<?xml version="1.0" encoding="utf-8"?>
<!-- Generator: Adobe Illustrator 26.0.2, SVG Export Plug-In . SVG Version: 6.00 Build 0)  -->
<svg version="1.1" id="Layer_1" xmlns="http://www.w3.org/2000/svg" xmlns:xlink="http://www.w3.org/1999/xlink" x="0px" y="0px"
	 viewBox="0 0 284 865" style="enable-background:new 0 0 284 865;" xml:space="preserve">
<style type="text/css">
	.st0{fill:#C9972D;}
	.st1{fill:#E65408;}
	.st2{fill:#829A58;}
	.st3{fill:#00305D;}
</style>
<g>
	<path class="st0" d="M166.83,805.35l0,0.02c0.07,1.72-1.27,3.17-2.99,3.24c-1.68,0.07-3.11-1.22-3.24-2.88
		c-0.23-3.08-0.34-6.17-0.34-9.25l-12.27-12.45l3.87,19.42l-17.06,4.1l14.7,5.68l-7.35,12.16l15.46-2.34l8.3,17.93l4.76-20.03
		l19.4,1.36l-14.41-13.75l17.91-13.06l-18.94,3.92l0.53-15.67l-8.08,8.22C166.79,796.44,166.64,800.9,166.83,805.35z"/>
	<g>
		<path class="st1" d="M203.08,687.47c0.75-0.62,1.85-0.86,2.65-1.44c0.6-0.37,1.04-1,1.43-1.55c-0.51-0.96-0.93-1.99-1.43-2.95
			c-0.51-0.96-1.25-1.79-1.75-2.74c-0.51-0.95-0.88-2.1-1.4-3.06c-1.06,0.33-1.36,0.73-2.81,1.43c-0.65,0.31-1.43,0.88-2.79,1.32
			c0.58,0.67,1.03,1.4,1.5,2.16c0.47,0.75,0.83,1.53,1.11,2.39c0.28,0.87-0.12,1.71-0.99,1.99c-0.6,0.2-1.08-0.07-1.51-0.48
			c-0.73-0.71-1.57-1.28-2.11-2.11c-0.55-0.83-0.93-1.83-1.4-2.71c-0.86,0.45-1.74,1.19-2.61,1.92c-0.78,0.65-1.59,1.35-2.31,2.19
			c-0.68,0.79-1.26,1.7-1.83,2.63c-0.55,0.9-0.88,1.92-1.26,2.93c-0.4,0.84-1.03,1.92-1.4,3.71c0.28,1.39,1.86,2.52,3.04,2.46
			c0.35,0.02,0.65,0.28,0.98,0.28c0.3,0,0.62,0.39,1.03,0.43c0.79,0.05,1.66,0.02,2.52-0.23c1.21-0.35,2.3-1.02,3.4-1.72
			c1.06-0.67,1.98-1.55,2.95-2.4c0.96-0.84,1.93-1.68,2.83-2.56C201.6,688.69,202.37,688.05,203.08,687.47z"/>
	</g>
	<g>
		<path class="st1" d="M236.15,708.45c-1.07,0.36-2.2,1.71-3.29,1.95c-1.11,0.24-2.35-0.29-3.46-0.21
			c-1.13,0.08-2.31,0.77-3.42,0.63c-1.1-0.14-2.22-0.72-3.29-1.12c-0.46-0.27-0.12-0.46-0.35-0.92c-0.47-0.97-1.35-1.79-1.96-2.8
			c-0.57-0.94-0.85-2.1-1.5-3.06c-0.61-0.91-1.11-1.94-1.76-2.88c-0.64-0.92-1.97-1.38-2.62-2.33c-0.64-0.93-0.97-2.23-1.59-3.18
			c-0.54,0.84-1.01,2.01-1.73,2.8c-0.68,0.75-1.31,1.67-2.12,2.36c-0.78,0.67-1.66,1.32-2.52,1.92c-0.86,0.6-1.89,1-2.78,1.51
			c-0.93,0.53-2.19,0.36-3.11,0.78c-0.99,0.45-1.71,1.46-2.65,1.76c-1.08,0.35-1.98,0.65-2.9,0.76c0.32,0.32,0.8,0.07,1.1,0.4
			c1.12,1.2,1.43,2.94,2.06,4.53c0.63,0.9,1.78,1.52,2.42,2.4c0.64,0.88,1.25,1.79,1.9,2.66c0.66,0.87,1.79,1.37,2.46,2.23
			c0.67,0.86,1.09,1.91,1.77,2.77c0.68,0.85,1.33,1.73,2.01,2.58c0.69,0.85,0.9,2.08,1.59,2.93c0.7,0.84,1.42,1.67,2.13,2.5
			c0.71,0.83,1.56,1.54,2.27,2.37c0.71,0.83,1.65,1.47,2.35,2.3c0.71,0.83,1.35,1.72,2.05,2.55c0.7,0.84,1.75,1.39,2.44,2.24
			c0.69,0.85,1.3,1.76,1.97,2.62c0.81,1.01,1.46,2.15,2.2,3.22c0.73,1.06,1.51,2.11,2.21,3.19c0.7,1.08,1.29,1.91,2,2.98
			c1.15-0.44,2.09-0.57,3.2-1.08c1.12-0.51,2.2-1.06,3.28-1.64c0.83-0.43,1.54-1.02,2.29-1.56c0.75-0.55,1.6-0.97,2.29-1.6
			c0.69-0.64,1.19-1.46,1.81-2.15c0.7-0.59,1.41-1.27,2.15-1.86c0.74-0.59,1.78-0.83,2.43-1.51c0.65-0.68,0.64-1.76,1.07-2.62
			c0.04-0.08-0.06,0.62,1.39-2.39c0.32-0.66,1.16-1.28,1.66-2.33c0.36-0.75,1.06-1.47,1.53-2.46c0.04-0.06-0.57-0.13-0.53-0.19
			c-0.96-1.17-1.1-2.41-1.62-2.99c-1.11-1.27-1.85-1.22-2.64-2.07c-0.48-0.51-1.4-1-2.45-2.26c-0.56-0.67-1-1.7-1.83-2.74
			c-0.6-0.74-1.39-1.51-2.17-2.49c-0.62-0.77-1.13-1.76-1.88-2.7c-0.64-0.81-1.34-1.66-2.07-2.6
			C237.32,710.83,236.88,709.38,236.15,708.45z"/>
	</g>
	<g>
		<path class="st1" d="M135.39,623.24c0.36-1.18,0.87-2.15,1.19-3.17c0.38-1.19,0.52-2.35,0.86-3.36c0.4-1.21,1.3-2.12,1.65-3.11
			c0.43-1.2,0.26-2.47,0.64-3.43c0.47-1.18,1.23-2.08,1.67-3.06c0.47-1.06,0.88-2.08,1.38-3.14c0.45-0.96,1.17-1.85,1.69-2.99
			c0.42-0.94,0.93-1.96,1.43-3.13c0.41-0.96,0.68-2.08,1.16-3.25c0.4-0.98,0.54-2.15,0.99-3.31c0.39-1,0.8-2.06,1.24-3.22
			c-0.2-0.97-0.82-1.82-1.07-2.79c-0.01-0.03,0.11-0.09,0.09-0.12c-0.29-1.11,0.11-2.41-0.2-3.51s-1.45-1.94-1.76-3.04
			c-0.11-0.03,0.29-0.44,0.18-0.47c-1.28-0.4-2.72-0.05-4.08-0.19c-1.32-0.14-2.48-0.92-3.76-1.32c-1.06-0.51-2.37-0.58-3.46-1.17
			c-1.06-0.57-2.27-0.96-3.31-1.61c-1.04-0.65-1.63-1.95-2.59-2.67c-0.99-0.75-2.13-1.26-2.97-2.09c-0.45,1.1-0.86,2.18-1.28,3.22
			c-0.45,1.1-1.28,2.01-1.7,3.04c-0.45,1.11-0.56,2.31-0.98,3.34c-0.45,1.11-1.08,2.11-1.49,3.14c-0.45,1.12-0.19,2.47-0.61,3.5
			c-0.45,1.13-1.41,1.99-1.82,3.01c-0.45,1.14-1.18,2.09-1.58,3.1c-0.45,1.15-0.39,2.4-0.78,3.4c-0.45,1.17-0.54,2.36-0.92,3.35
			c-0.46,1.2-1.4,2.07-1.77,3.04c-0.47,1.24-0.37,2.49-0.72,3.42c-0.48,1.3-1.29,2.18-1.63,3.07c-0.46,1.24-0.46,2.35-0.89,3.34
			c-0.4,0.93-1.26,1.73-1.87,2.96c0.57,0.99,1.31,1.91,2.05,2.77c0.73,0.86,1.21,2.05,2.09,2.78c0.98,0.82,2.25,1.49,3.43,1.98
			c1.18,0.49,2.68,0.13,3.92,0.35c1.2,0.42,2.49,0.86,3.79,1.24c1.27,0.37,2.46,0.78,3.81,0.63c1.34-0.16,2.66-0.51,3.99-0.64
			C132.71,622.97,134.02,623.12,135.39,623.24z"/>
	</g>
	<g>
		<path class="st1" d="M131.8,557.29c0.2-0.01-0.25,0.61-0.4,1.21c-0.05,0.63,0.42,1.13,0.87,1.65c0.99,1.04,2.29,1.94,3.7,2.65
			c0.75,0.32,1.46,0.66,2.2,1.05c0.71,0.42,1.26,1.24,1.96,1.81c1.55,1.36,2.31,0.89,4.19,1.02c-0.17-1.06-0.45-1.97-0.6-2.91
			c-0.16-1.04-0.29-2.02-0.44-2.98c-0.15-1-0.06-2.01-0.21-3c-0.15-0.96-0.35-1.94-0.52-2.97c-0.16-0.94-0.35-1.98-0.54-3.03
			c-1.43-0.14-2.9,0.02-4.27,0.22c-1.16,0.14-2.06,0.37-2.79,0.73c-1.06,0.53-1.8,1.13-2.23,1.82
			C131.96,555.78,132.02,557.03,131.8,557.29z"/>
	</g>
	<g>
		<path class="st1" d="M186.03,359.83c-0.79,0.15-1.3-0.37-2.13-0.3c-1.06,0.07-2.1-0.17-3.21-0.36c-1.1-0.19-2.46,0.33-3.42-0.16
			c-1-0.51-1.89-1.46-2.53-2.35c-0.5-0.75-0.91-1.55-1.46-2.27c-0.8-0.92-1.2-2.14-1.93-3.11c-0.73-0.97-1.51-1.89-2.18-2.9
			c-0.67-1.01-1.59-1.62-2.22-2.65c-0.57,0.46-1.39,0.6-2.61,1.16c-0.87,0.4-1.85,0.82-2.93,1.21c-0.96,0.35-1.86,1.11-2.91,1.4
			c-1.02,0.29-2.13,0.39-3.17,0.59c-1.07,0.2-2.2-0.25-3.23-0.18c-1.12,0.08-2.11,0.5-3.09,0.37c0.44,0.77,0.44,1.79,0.94,3
			c0.35,0.85,1.28,1.61,1.73,2.76c0.35,0.89,0.73,1.88,1.17,2.99c0.36,0.9,0.49,2,0.93,3.07c0.38,0.92,0.69,1.95,1.15,3
			c0.4,0.93,0.62,2.01,1.09,3.05c0.41,0.93,0.91,1.89,1.38,2.91c0.43,0.93,0.85,1.92,1.33,2.94c0.44,0.94,1.11,1.82,1.59,2.83
			c0.45,0.94,1.12,1.81,1.62,2.81c0.9,0.01,1.78,0.04,2.66-0.09c0.87-0.13,1.72-0.41,2.6-0.62c0.47-0.11,0.15,0.12,0.61,0.2
			c1.07,0.28,2.03,0.69,2.94,1.17c0.98,0.52,1.62,1.23,2.28,2.05c0.64,0.79,1.75,1.35,1.97,2.5c0.61,0.96,0.72,2.15,1.33,3.11
			c0.61,0.96,1.56,1.7,2.16,2.67c0.6,0.96,0.68,2.25,1.28,3.22c0.6,0.97,1.83,1.54,2.42,2.51c0.6,0.97,0.85,2.29,1.44,3.26
			c0.94-0.49,2.02-1,2.89-1.59c0.83-0.4,1.7-0.73,2.57-1.12c0.86-0.39,1.37-1.41,2.16-1.91c0.79-0.5,2.13-0.37,2.76-1.1
			c0.62-0.72,0.58-1.97,1.16-2.7c0.58-0.73,1.8-0.94,2.4-1.65c0.6-0.71,1.21-1.36,1.87-2.03c0.01-0.01-0.55-0.58-0.54-0.59
			c0.05-0.05-0.13,0.37-0.07,0.33c-0.46-0.99-0.23-2.27-0.72-3.24c-0.49-0.97-1.45-1.69-1.99-2.64c-0.54-0.94-0.88-2-1.48-2.92
			c-0.56-1.1-0.89-2.2-1.35-3.21c-0.48-1.06-1.37-1.91-1.81-2.99c-0.42-1.02-0.08-2.38-0.54-3.51c-0.4-0.98-1.33-1.83-1.81-2.97
			c-0.42-0.99-1.04-1.97-1.55-3.11C187.16,361.68,186.56,360.96,186.03,359.83z"/>
	</g>
	<g>
		<path class="st1" d="M152.54,331.5c-0.57,0.26-1.23,0.11-1.7-0.23c-0.01-0.01-0.11,0.13-0.12,0.12c-1.32-0.98-2.22-2.32-3.17-3.59
			c-0.91,0.71-1.79,1.25-2.42,1.91c-0.85,0.89-1.23,1.91-1.69,2.63c-0.89,1.39-1.27,2.31-1.49,2.61c-0.07,1.41,0.95,3.09,2.11,3.32
			c0.33,0.11,0.61,0.23,0.92,0.31c0.29,0.07,0.49,0.55,0.88,0.69c0.75,0.24,1.62,0.45,2.52,0.43c1.26-0.04,2.46-0.57,3.69-0.97
			c1.19-0.39,2.38-0.84,3.53-1.42c1.14-0.58,2.38-1,3.46-1.64c0.6-0.34,1.08-0.76,1.69-1.06c-0.54-0.86-0.93-1.78-1.48-2.63
			c-0.55-0.86-1.34-1.56-1.89-2.41c-0.55-0.85-1.04-1.74-1.6-2.6c-0.55-0.85-1.04-1.68-1.59-2.53c-1.28,0.3-2.29,0.77-3.45,1.35
			c1.05,1,2.07,2.08,2.69,3.43C153.8,330.03,153.38,331.11,152.54,331.5z"/>
	</g>
	<g>
		<path class="st1" d="M211.63,527.63c0.79-0.51,1.2-1.49,1.9-2.11c0.7-0.61,1.69-0.93,2.31-1.62c0.63-0.69,1.45-1.23,2-1.97
			c0.65-0.65,1.24-1.35,1.93-2.01c0.68-0.65,1.31-1.41,1.89-2.15c0.58-0.73,1.45-1.45,1.8-2.34c0.3-0.77-0.3-2.07,0.05-3.06
			c0.32-0.92,0.81-1.83,1.14-2.69c0.42-1.12,0.93-1.96,1.27-2.49c-0.76-0.78-1.34-1.64-2.12-2.39c-0.79-0.75-1.54-1.54-2.36-2.25
			c-0.82-0.71-1.71-1.33-2.58-1.99c-1.05-1-2.03-1.52-2.67-2.19c-0.82-0.86-1.53-1.54-2.36-2.49c-0.6-0.69-0.88-1.88-1.83-2.93
			c-0.64-0.71-1.68-1.28-2.59-2.25c-0.68-0.73-1.37-1.61-2.25-2.53c-0.71-0.75-1.87-1.19-2.74-2.08c-0.73-0.76-0.97-2.12-1.82-2.99
			c-0.75-0.77-1.69-1.45-2.55-2.31c-0.76-0.77-1.27-1.87-2.11-2.72c-0.77-0.77-1.84-1.32-2.68-2.17c-0.78-0.78-1.66-1.52-2.51-2.37
			c-0.79-0.78-1.51-1.83-2.36-2.67c-1.28,0.1-2.61,0.43-3.91,0.25c-0.53,0.96-0.75,2.07-1.3,2.94c-0.64,0.81-1.29,1.52-1.76,2.41
			c-0.47,0.9-1.11,1.73-1.66,2.56c-0.54,0.82-1.4,1.35-2.27,1.96c-0.78,0.69-1.67,1.28-2.48,1.94c-0.81,0.67-1.3,1.75-2.14,2.36
			c-0.86,0.63-1.95,0.87-2.85,1.4c-0.91,0.54-1.72,1.25-2.67,1.65c-0.97,0.4-1.78,0.94-2.81,1.16c0.34,0.29,0.7,0.06,1.03,0.36
			c1.33,1.2,1.58,2.06,2.15,2.79c0.49,0.64,1.33,1.14,2.47,2.51c0.58,0.7,0.79,2,1.76,3.08c0.67,0.75,1.49,1.57,2.41,2.56
			c0.71,0.77,1.29,1.81,2.18,2.75c0.75,0.79,2.41,0.83,3.3,1.75c0.77,0.8,1.25,1.98,2.13,2.88c0.77,0.78,1.07,2.02,1.85,2.79
			c0.78,0.77,1.91,1.17,2.69,1.94c0.78,0.76,1.54,1.55,2.32,2.32c0.78,0.77,1.97,1.12,2.74,1.89c0.77,0.77,1.18,1.91,1.94,2.69
			c0.76,0.78,1.51,1.57,2.26,2.37c0.89,0.93,1.89,1.78,2.72,2.77c0.83,0.99,1.02,2.48,1.82,3.5c0.8,1.02,2.04,1.76,2.84,2.77
			c1.11-0.54,2.12-1.37,3.18-1.97C209.36,528.61,210.6,528.3,211.63,527.63z"/>
	</g>
	<g>
		<path class="st1" d="M170.92,472.05c0.88-1.01,1.56-1.83,2.22-2.4c1.09-0.95,2.01-1.35,2.64-1.93c0.68-0.64,0.98-1.45,1.31-2.92
			c0.18-0.81,0.53-1.86,0.66-3.24c-0.92-1.3-1.95-2.56-2.86-3.87c-0.33-0.12-0.68-0.25-1.02-0.32c-1.07,0.32-2.05,0.85-3.07,1.3
			c-1.09,0.67-1.98,1.72-3.17,2.1c-0.51,0.24-1.06,0.39-1.58,0.62c-0.64,0.28-1.1,0.44-1.73,0.74c1.05,0.63,1.72,1.62,2.31,2.46
			c0.79,1.13,1.06,2.33-0.3,2.95c-0.47,0.22-1.06,0.08-1.5-0.12c-0.02-0.01,0.04-0.13,0.02-0.14c-1.52-0.69-2.38-1.92-3.35-3.2
			c-0.02-0.03-0.21-0.07-0.23-0.1c-0.07,0.06-0.07,0.25-0.13,0.31c-0.31,0.26-0.45,0.68-0.74,0.96c-0.65,0.63-1.3,1.24-1.86,1.94
			c-0.56,0.71-1.01,1.48-1.45,2.26c-0.11,0.2-0.33,0.33-0.44,0.53c-0.34,0.69-0.74,1.34-1,2.05c-0.15,0.4-0.19,0.84-0.31,1.24
			c-0.36,0.99-0.57,2.55-0.63,3.08c-0.05,0.39-0.19,0.39-0.14,0.78c0.39,1.31,1.85,2.38,3.01,2.3c0.04,0,0.08,0.08,0.12,0.08
			c0.35-0.01,0.64-0.07,0.97-0.1c0.26-0.02,0.62,0.21,0.97,0.3c0.05,0.01,0.05,0.24,0.1,0.24c0.79-0.02,1.66-0.2,2.51-0.52
			c1.18-0.46,2.14-1.32,3.17-2.11c1-0.76,2.2-1.36,3.09-2.29C169.38,474.1,170.1,473.01,170.92,472.05z"/>
	</g>
	<g>
		<path class="st1" d="M155.73,417.15c0.5,0.97,0.72,2.09,1.23,3.06c0.51,0.96,1.64,1.59,2.17,2.54c0.53,0.95,1.04,1.92,1.58,2.86
			c0.54,0.95,1.2,1.82,1.76,2.76c0.55,0.94,0.76,2.08,1.32,3.02c0.56,0.94,1.54,1.62,2.11,2.55c0.65,1.06,0.68,2.41,1.26,3.34
			c0.66,1.07,1.81,1.72,2.37,2.63c0.68,1.08,0.45,2.59,1,3.47c0.7,1.12,1.58,1.92,2.12,2.77c0.76,1.2,1.3,2.2,1.79,2.99
			c0.85,1.36,1.35,2.23,1.78,2.97c0.54,0.95,1.48,1.42,2.13,2.78c0.37,0.79,0.76,1.81,1.41,3.15c0.42,0.87,1.07,1.8,1.67,3.02
			c0.04-0.01-0.33,0.26-0.29,0.25c0.42-0.1,0.95,0.21,1.37,0.1c0.01,0-0.23-0.96-0.22-0.96c0.57-0.15,1.36,0.51,1.93,0.35
			c1.32-0.39,2.57-1.06,3.86-1.54c0.88-0.32,2.01-0.19,2.84-0.63c0.82-0.44,1.1-1.81,1.87-2.34c0.77-0.54,1.75-0.76,2.46-1.36
			c0.78-0.49,1.37-1.35,2.19-1.84c0.81-0.48,2.13-0.25,2.86-0.83c0.73-0.58,0.57-1.98,1.11-2.78c0.54-0.79,1.08-1.52,1.58-2.31
			c0.5-0.79,0.97-1.61,1.49-2.39c0.51-0.77,1.48-1.25,2.07-1.99c0.01-0.01,0.12,0.07,0.13,0.06c0.05-0.06-0.22,0.07-0.17,0.02
			c-0.57-0.93-1.29-1.72-1.89-2.63c-0.6-0.91-1.13-1.84-1.77-2.72c-0.64-0.88-0.93-2.01-1.63-2.85c-0.61-0.92-1.3-1.79-1.86-2.74
			c-0.56-0.95-1.12-1.9-1.66-2.87c-0.53-0.96-1-1.97-1.52-2.94c-0.52-0.97-0.5-2.24-1.03-3.21c-0.53-0.97-1.97-1.43-2.52-2.38
			c-0.55-0.96-0.46-2.3-1.05-3.23c-0.52-0.86-0.81-1.86-1.35-2.71c-0.53-0.85-1.9-1.18-2.43-2.03c-0.42-0.68-0.21-1.76-0.64-2.44
			c-0.11-0.17-0.26-0.3-0.37-0.47c-0.32-0.52-0.81-0.94-1.14-1.45c-0.45-0.71-1.08-1.31-1.53-2.03c-0.44-0.72-0.38-1.75-0.83-2.46
			c-0.43-0.68-1.57-0.91-1.99-1.58c-0.26-0.42-0.61-0.78-0.88-1.2c-0.49-0.78-0.08-2.11-0.56-2.9c-0.48-0.78-1.43-1.17-1.91-1.95
			c-0.63,1.4-0.94,2.08-1.53,2.7c-0.52,0.55-0.92,1.4-2,2.47c-0.67,0.53-2,0.4-2.55,1.02c-0.15,0.17-0.1,0.52-0.25,0.69
			c-0.35,0.41-0.89,0.63-1.24,1.03c-0.3,0.34-0.6,0.61-0.93,0.91c-0.03,0.03,0.53,0.69,0.5,0.72c-0.67,0.61-1.83,0.54-2.75,0.91
			c-0.9,0.48-1.66,1.26-2.57,1.71c-0.91,0.45-1.94,0.63-2.87,1.03c-0.93,0.4-1.96,0.48-2.92,0.82c-1.02,0.36-1.81,1.62-2.9,1.81
			c-1.07,0.18-1.99,0.47-3.09,0.45c0.27,0.36-0.11,0.41,0.15,0.78C153.94,414.46,155.32,415.5,155.73,417.15z"/>
	</g>
	<g>
		<path class="st1" d="M145.29,394.35c-0.31,1.39-0.6,2.72-0.88,4.12c0.46,0.97,1.15,1.61,2,1.68c0.34,0.07,0.57,0.57,0.9,0.62
			c0.3,0.04,0.55,0.42,0.96,0.51c0.77,0.16,1.65-0.04,2.54-0.17c1.25-0.18,2.38-0.69,3.56-1.23c1.14-0.52,2.25-1.11,3.33-1.82
			c1.07-0.7,2.15-1.39,3.16-2.14c0.89-0.65,2.07-1.18,3.06-1.66c0.16-0.08,1.9-1.26,2.01-1.32c0.7-0.31,1.75-0.62,2.41-1.52
			c0.52-0.71,0.6-1.77,0.86-2.77c0.56-1.56,0.97-2.62,0.64-3.66c-0.28-0.88-0.92-1.72-2.71-2.53c-1.11,0.07-2.27-0.06-3.37,0.15
			c-0.41,0.14-1.7,0.93-2.08,1.1c-0.96,0.42-1.07,0.38-1.92,0.56c-1.45,0.3-2.87,0.79-4.3,1.23c-0.51,0.16-1.03,0.2-1.51,0.44
			c0.09,0.08-0.04,0.29,0.05,0.37c0.86,0.75,1.81,1.39,2.54,2.26c0.73,0.86,1.46,1.74,1.88,2.83c0.34,0.86-0.14,1.89-0.99,2.23
			c-0.57,0.23-1.33,0.2-1.78-0.15c-0.89-0.7-1.53-1.63-2.17-2.5c-0.64-0.88-1.1-1.88-1.67-2.83c-0.15-0.25-0.47-0.64-0.65-0.87
			c-0.47,0.32-1.65,1.33-3.59,3.59c-0.76,0.92-1.71,1.72-2.28,2.75C145.18,393.8,145.4,394.14,145.29,394.35z"/>
	</g>
	<g>
		<path class="st1" d="M217.6,635.79c-0.62,1.4-0.83,1.89-1.41,2.51c-0.52,0.55-1.96,0.31-3.04,1.38c-0.8,0.64-1.49,1.46-2.14,2.22
			c-0.66,0.77-1.12,1.69-1.85,2.38c-0.71,0.68-1.23,1.71-2.21,2.11c-0.9,0.48-1.82,0.9-2.73,1.35c-0.91,0.45-1.88,0.79-2.82,1.2
			c-0.93,0.4-2.12,0.1-3.09,0.44c-1.02,0.36-1.94,0.91-3.03,1.09c-1.07,0.18-2.06,0.67-3.17,0.65c0.27,0.36-0.01,0.92,0.25,1.29
			c0.94,1.35,2.97,2.13,3.37,3.79c0.53,1.05,0.92,2.02,1.43,2.99c0.55,1.04,0.78,2.19,1.31,3.15c0.57,1.03,1.1,2.03,1.64,2.98
			c0.58,1.02,0.56,2.35,1.12,3.29c0.6,1.01,1.64,1.71,2.22,2.64c0.61,0.99,1.42,1.82,2.01,2.75c0.62,0.97,0.84,2.17,1.44,3.12
			c0.61,0.95,1.56,1.66,2.17,2.61c0.6,0.94,1.2,1.88,1.8,2.86c0.58,0.93,0.96,2.02,1.55,3.01c0.56,0.94,1.61,1.64,2.18,2.65
			c0.54,0.94,0.26,2.39,0.81,3.42c0.52,0.95,1.31,1.8,1.85,2.84c0.5,0.97,1.21,1.88,1.74,2.93c0.49,0.98,0.9,2.09,1.41,3.16
			c1.04-0.24,2.14-0.4,3.14-0.69c1.02-0.29,1.89-0.97,2.87-1.33c0.99-0.37,1.78-1.08,2.72-1.54c0.94-0.46,2-0.61,2.89-1.18
			c0.87-0.56,1.48-1.48,2.29-2.17c0.78-0.49,2.15-0.14,2.97-0.63c0.81-0.48,1.67-1.01,2.41-1.59c0.73-0.58,0.63-1.93,1.17-2.72
			c0.05-0.07-0.31,0.5,1.54-2.28c0.41-0.61,1.24-1.16,1.88-2.14c0.46-0.69,0.86-1.57,1.47-2.48c0.05-0.06,0.76-0.03,0.81-0.07
			c-0.57-0.93-1.98-1.35-2.58-2.26c-0.6-0.91-0.9-2-1.55-2.88c-0.64-0.88-0.63-2.24-1.33-3.08c-0.61-0.92-1.92-1.35-2.49-2.3
			c-0.56-0.95-1.18-1.88-1.71-2.85c-0.53-0.96-1.21-1.86-1.73-2.83c-0.52-0.97-0.8-2.07-1.33-3.04c-0.53-0.97-0.35-2.34-0.9-3.3
			c-0.55-0.96-1.1-1.94-1.69-2.87c-0.55-0.9-2.1-1.18-2.65-2.08c-0.55-0.9-0.13-2.4-0.69-3.29c-0.55-0.9-1.48-1.57-2.04-2.46
			c-0.56-0.9-1.04-1.84-1.59-2.73c-0.56-0.89-1.65-1.45-2.21-2.35c-0.56-0.89-1.14-1.77-1.7-2.67c-0.56-0.89-0.97-1.88-1.53-2.77
			C218.3,637.12,218.16,636.69,217.6,635.79z"/>
	</g>
	<g>
		<path class="st1" d="M186.83,639.58c0.3,0.04,0.45,1.04,0.85,1.14c0.77,0.16,1.71-0.09,2.6-0.22c1.25-0.18,2.37-0.8,3.55-1.33
			c1.14-0.52,2.34-0.98,3.42-1.69c1.07-0.7,2.21-1.33,3.22-2.08c0.78-0.57,1.48-1.29,2.26-1.77c0.83-0.51,1.8-0.89,2.67-1.36
			c0.91-0.4,1.55-1.02,2.1-1.79c0.57-0.8,1.13-1.61,1.36-2.49c0.61-1.69,0.96-2.71,0.67-3.58c-0.21-0.91-1.6-1.86-2.98-2.48
			c-2.77,0.18-2.99,0.05-3.52,0.29c-0.44,0.19-1.02,0.65-3.39,1.27c-0.89,0.24-2.14,0.1-3.62,0.43c-0.73,0.17-1.28,0.58-1.97,0.86
			c1.52,1.04,1.96,2.13,2.15,2.93c0.37,1.55-1.09,2.66-2.26,2.13c-0.02-0.01,0.09-0.25,0.06-0.26c-1.4-0.64-2.4-1.51-3.35-2.65
			c-0.95,0.64-1.89,0.9-2.6,1.55c-0.86,0.79-1.51,1.68-2.08,2.44c-0.74,0.97-1.24,1.94-1.63,2.74c-0.75,1.54-0.75,2.7-0.91,2.92
			c0.09,1.41,1.18,3.08,2.36,3.18C186.17,639.82,186.5,639.53,186.83,639.58z"/>
	</g>
	<g>
		<path class="st1" d="M183.68,565.81c0.94,1.35,1.7,2.76,2.1,4.42c0.5,0.97,1.17,1.88,1.68,2.85s0.86,2.02,1.39,2.97
			c0.53,0.95,0.71,2.11,1.25,3.06c0.54,0.95,1.36,1.74,1.91,2.68c0.55,0.94,0.97,1.97,1.53,2.9c0.56,0.94,2.09,1.28,2.66,2.22
			c0.57,0.93,0.99,1.94,1.58,2.87c0.58,0.92,0.58,2.22,1.17,3.13c0.59,0.92,1.18,1.84,1.76,2.76c0.59,0.92,1.28,1.77,1.86,2.7
			c0.58,0.93,1.71,1.51,2.28,2.45c0.56,0.93,0.56,2.21,1.1,3.16c0.66,1.11,1.75,1.99,2.34,3.15c0.58,1.15,0.84,2.47,1.39,3.64
			c0.55,1.17,0.87,2.61,1.42,3.77c1.11-0.25,2.16-1.03,3.1-1.29c1.11-0.31,2.32,0.01,3.23-0.31c1.08-0.39,1.72-1.55,2.58-1.97
			c1.01-0.49,1.9-0.89,2.72-1.44c0.88-0.59,1.72-1.15,2.52-1.83c1.13-0.71,2.26-1.05,3.04-1.57c1.26-0.84,2.49-1.03,3.12-1.56
			c1.12-0.95,0.75-2.24,1.32-3.28c0.38-0.71,1.46-1.23,2.35-2.52c0.51-0.75,1.37-1.44,2.22-2.51c0.01-0.01-0.04-0.05-0.03-0.07
			c0.05-0.06,0.03-0.59,0.08-0.64c-0.57-0.93-1.03-1.98-1.63-2.89c-0.6-0.91-1.61-1.55-2.26-2.43c-0.64-0.88-1.49-1.61-2.19-2.45
			c-0.61-0.92-0.75-2.14-1.32-3.09c-0.56-0.95-1.84-1.49-2.38-2.45c-0.54-0.96-0.64-2.17-1.17-3.14c-0.52-0.97-0.71-2.13-1.24-3.09
			c-0.53-0.97-1.61-1.63-2.16-2.58c-0.55-0.96-1.41-1.71-2-2.64c-0.55-0.9-0.46-2.2-1.01-3.1c-0.55-0.9-1.26-1.7-1.82-2.6
			c-0.55-0.9-1.3-1.67-1.86-2.57c-0.56-0.9-0.98-1.87-1.54-2.77c-0.56-0.89-1.23-1.72-1.79-2.61c-0.56-0.89-0.65-2.08-1.21-2.97
			c-0.56-0.89-1.15-1.77-1.71-2.66c-0.56-0.89-1.19-1.96-1.75-2.85c-0.2,0.44-0.39,1.35-0.65,1.75c-0.86,1.43-2.75,1.9-3.83,2.97
			c-0.8,0.64-1.5,1.47-2.15,2.23c-0.66,0.78-0.51,2.31-1.24,3.01c-0.71,0.68-1.72,1.22-2.71,1.62c-0.9,0.48-2.04,0.45-2.95,0.9
			c-0.91,0.45-1.93,0.64-2.86,1.05c-0.93,0.4-1.72,1.14-2.68,1.48c-0.94,0.33-1.86,0.97-2.87,1.15c-0.99,0.18-2.2-0.55-3.22-0.54
			c0.03,0.27,0.12,1.02,0.16,1.29C183.41,565.66,183.61,565.71,183.68,565.81z"/>
	</g>
	<g>
		<path class="st1" d="M185.04,544.73c-0.58,0.09-1.16-0.17-1.53-0.58c-0.01-0.01,0.03-0.05,0.01-0.07
			c-0.94-1.08-1.42-2.43-1.94-3.71c-0.49,0.34-1.1,0.85-1.55,1.23c-0.73,0.61-1.46,1.21-2.08,1.91c0.08,0.33,0.01,0.7,0.08,1.03
			c0.23,1.1,0.57,2.17,0.85,3.26c0.28,1.09,0.8,2.11,1.11,3.18s0.43,2.22,0.74,3.3c0.1-0.01,0.26,0.18,0.36,0.16
			c1.25-0.18,2.36-0.96,3.54-1.5c1.14-0.52,2.3-1.05,3.38-1.76c1.07-0.7,2.15-1.41,3.15-2.17c0.78-0.57,1.57-1.17,2.35-1.65
			c0.83-0.51,1.78-0.93,2.66-1.39c0.91-0.4,1.55-0.99,2.09-1.76c0.57-0.8,1.26-1.56,1.5-2.43c0.61-1.69,0.98-2.78,0.69-3.65
			c-0.21-0.91-1.67-2.17-3.05-2.8c-1.11,0.07-2.22,0.44-3.32,0.64c-1.21,0.41-2.29,1.33-3.54,1.43c-1.36,0.31-2.81,0.38-4.2,0.74
			c-0.58,0.15-1.38,0.32-1.93,0.56c0.87,1.23,1.88,2.51,2.11,4.04C186.66,543.68,185.95,544.59,185.04,544.73z"/>
	</g>
	<g>
		<path class="st1" d="M153.71,515.16c0.92-0.28,1.77-0.94,2.67-1.14c0.69-0.15,1.46-0.16,2.19-0.21c0.27-0.02,0.55,0.02,0.81-0.02
			c0.46-0.04,0.94,0.04,1.36-0.12c1.4-0.53,2.37-1.81,3.14-2.95c0.25-0.3,0.66-0.3,0.86-0.56c0.73-0.92,1.09-1.76,1.1-2.48
			c0.11-0.93-0.93-2.3-2.03-3.34c-0.21-0.06-0.22-0.5-0.43-0.55c-0.87-0.22-1.78-0.47-2.67-0.6c-0.68-0.01-1.35,0.64-2.02,0.72
			c-0.6,0.06-1.26,0-1.83-0.15c-0.14-0.02-0.25-0.18-0.4-0.2c-0.64-0.08-1.31-0.04-1.96-0.13c-0.56-0.09-1.27-0.39-1.83-0.45
			c-0.37,1.22-0.11,1.31-0.2,2.59c-0.1,1.28-0.07,1.28-0.17,2.55c-0.06,0.79-0.59,1.51-1.38,1.45c-0.65-0.05-1.28-0.61-1.42-1.21
			c-0.18-0.84,0.04-1.73-0.03-2.58c-0.06-0.85-0.29-1.69-0.25-2.54c-0.57,0.09-1.16,0.05-1.72,0.19c-0.86,0.22-1.61,0.82-2.43,1.14
			c-0.83,0.32-1.78,0.41-2.54,0.86c-1.02,0.62-1.83,1.55-2.7,2.34c-0.84,0.65-1.68,1.97-2.02,2.39c-0.25,0.31-0.77-0.02-0.93,0.34
			c-0.38,1.36,0.52,3.27,1.59,3.75c0.3,0.18,0.57,0.3,0.86,0.45c0.27,0.14,0.31,0.74,0.66,0.96c0.68,0.4,1.44,0.92,2.33,1.1
			c1.24,0.24,2.57,0.15,3.86,0.03c1.25-0.12,2.52-0.39,3.77-0.7C151.23,515.76,152.51,515.54,153.71,515.16z"/>
	</g>
	<g>
		<path class="st1" d="M178.42,564.83c-0.4-1.57,0.2-3.39-0.1-4.99c-0.04-0.23-0.45-0.4-0.49-0.64c-0.09-0.52-0.35-1.01-0.44-1.53
			c-0.05-0.3,0.35-0.67,0.3-0.97c-0.06-0.37,0.08-0.77,0.02-1.14c-0.12-0.75-1.38-1.32-1.5-2.07c-0.18-1.14,0.35-2.32,0.15-3.42
			c-0.19-1.04-0.11-2.18-0.35-3.37c-0.2-1-1.36-1.88-1.62-3.09c-0.22-0.99-0.42-2.08-0.69-3.27c-0.22-1.01,0.59-2.33,0.32-3.52
			c-0.23-1.02-1-2-1.26-3.18c-0.23-1.03-0.16-2.2-0.43-3.36c-0.24-1.03-1.14-1.98-1.4-3.13c-0.24-1.05-0.28-2.2-0.54-3.35
			c-0.24-1.06-0.39-2.48-0.66-3.64c-0.93,1-1.02,1.79-2.33,2.45c-0.62,0.32-1.69,0.35-3.03,0.99c-0.54,0.19-1.1,0.34-1.6,0.6
			c-0.67,0.35-1.13,1.09-1.78,1.47c-0.82,0.48-2.13,0.34-3.41,0.72c-1.02,0.3-2.1,0.61-3.3,0.82c-1.11,0.19-2.15,1.37-3.33,1.47
			c-1.16,0.09-2.37-1.06-3.52-1.08c-1.19-0.02-2.35,0.36-3.46,0.19c-1.21-0.18-2.37-0.48-3.38-0.85c0.13,0.43,0.74,0.86,0.86,1.29
			c0.45,1.58,0.38,3.28,0.21,4.98c0.15,1.06,0.33,2.13,0.5,3.19c0.17,1.06,0.9,2.01,1.09,3.07c0.19,1.05-0.16,2.2,0.04,3.25
			c0.2,1.05,0.23,2.14,0.44,3.18c0.21,1.05,0.72,2.04,0.94,3.08c0.11,0.55-0.34,1.22-0.23,1.77c0.12,0.56,0.56,1.05,0.68,1.6
			c0.01,0.07,0.11,0.12,0.13,0.18c0.22,1,0.63,1.96,0.86,2.95c0.23,1,0.07,2.09,0.31,3.08c0.23,1,1.26,1.81,1.49,2.81
			c0.23,1-0.54,2.23-0.31,3.22s0.96,1.88,1.18,2.88c0.12,0.56,0.03,1.16,0.15,1.72c0.17,0.84,0.09,1.73,0.25,2.57
			c0.01,0.07,0.07,0.13,0.08,0.2c0.23,1.13,0.75,2.19,0.91,3.33c0.05,0.41,0.55,0.75,0.6,1.16c0.11,0.9-0.27,1.85-0.18,2.75
			c0.13,1.26,0.5,2.49,0.64,3.75c0.01,0.07,0.01-0.1,0.02-0.03c0.58,0.06,1.07,0.73,1.64,0.77c0.69,0.05,1.41-0.57,2.1-0.54
			c1.18,0.04,2.36,0.76,3.54,0.74c0.93-0.01,1.83-0.71,2.75-0.85c0.92-0.15,1.93,0.1,2.83-0.15c0.9-0.25,1.83-0.41,2.7-0.74
			c1.34-0.31,2.61-1.08,4-1.43c0.55-0.14,0.91-0.72,1.44-0.92c0.78-0.3,1.9,0.11,2.59-0.4c0.41-0.31,0.72-0.73,1.12-1.04
			c0.5-0.39,0.7-1.14,1.19-1.53c0.65-0.52,1.43-0.91,2.1-1.41c0.67-0.5,1.24-1.17,1.96-1.63c0.02-0.01-0.01-0.04,0.01-0.05
			c0.06-0.04,0.87,0.26,0.93,0.23c-0.21-0.96-1.54-1.7-1.78-2.65c-0.24-0.96,0.14-2.07-0.14-3.02c-0.28-0.94-0.55-1.9-0.88-2.83
			C179.23,565.21,178.53,565.11,178.42,564.83z"/>
	</g>
	<g>
		<path class="st1" d="M172.51,294.81c-0.41-0.58-0.88-1.07-1.24-1.68c-0.02-0.04-0.44-0.05-0.46-0.09
			c-0.45,1.05-0.62,2.13-1.32,2.84c-0.67,0.68-1.68,1.06-2.53,1.8c-1.18,0.92-1.98,1.56-2.48,2.1c-1.18,1.28-0.9,1.81-1.85,2.63
			c-0.49,0.42-1.48,0.56-2.91,1.33c-0.75,0.41-1.54,1.15-2.7,1.72c-0.85,0.42-1.73,1.08-2.84,1.61c-0.99,0.47-2.15,0.46-3.2,0.78
			c-1.05,0.32-2.48,0.67-3.56,0.87c0.6,0.93,1.45,2.17,2.03,3.08c0.6,0.93,1.48,1.67,2.06,2.57c0.6,0.93,0.73,2.14,1.31,3.03
			c0.6,0.93,1.84,1.42,2.41,2.31c0.6,0.93,1.05,1.93,1.62,2.81c0.6,0.94,1.42,1.7,1.99,2.58c0.61,0.94,0.65,2.21,1.22,3.07
			c0.62,0.95,1.57,1.62,2.14,2.48c0.64,0.96,0.97,2.03,1.54,2.86c0.67,0.97,0.93,2.11,1.5,2.88c0.96,1.3,2.37,2.28,3.32,3.58
			c0.19,0.26,0.12,0.7,0.31,0.95c0.43,0.6,0.86,1.21,1.28,1.82c0.75,1.08,1.33,2.25,2.02,3.37c0.69,1.12,1.84,1.87,2.47,3.03
			c1.13,0.1,2.12-0.06,3.23-0.17c1.11-0.11,2.21-0.17,3.3-0.47c0.02-0.01,0.06,0.04,0.08,0.03c0.48-0.13,0.98-0.18,1.44-0.36
			c0.47-0.2,0.89-0.51,1.34-0.76c1.35-0.76,2.95-1.3,4.02-2.38c1.03-0.75,2.13-1.52,3.18-2.37c1.03-0.83,1.7-2.13,2.34-3.33
			c0.64-1.19,0.72-2.68,1.37-3.85c0.64-1.16,1.56-2.06,2.44-3.12c-0.62-0.79-0.57-1.88-1.21-2.67c-0.64-0.78-1.6-1.31-2.23-2.1
			c-0.63-0.79-1.56-1.37-2.15-2.19c-0.68-0.98-1.45-1.79-2.01-2.65c-0.65-0.99-0.59-2.31-1.13-3.19c-0.6-0.98-1.07-1.96-1.6-2.87
			c-0.55-0.95-1.5-1.64-2.04-2.59c-0.53-0.91-0.71-2.05-1.29-3.03c-0.53-0.88-1.08-1.82-1.71-2.81c-0.55-0.86-1.13-1.79-1.79-2.77
			c-0.57-0.84-1.07-1.82-1.74-2.77c-0.59-0.84-1.29-1.69-1.98-2.62c-0.61-0.84-1.33-1.69-2.03-2.62
			C173.82,296.67,173.22,295.74,172.51,294.81z"/>
	</g>
	<g>
		<path class="st1" d="M152.17,289.77c-0.59,0.2-1.11,0.19-1.54-0.2c-0.86-0.77-1.47-1.68-2.07-2.62c-0.6-0.94-1.25-1.85-1.77-2.85
			c-0.24-0.46-0.46-0.63-0.8-1.02c-0.98,0.87-2.09,1.3-2.81,2.08c-0.92,0.99-1.53,2.04-2.1,2.89c-0.79,1.18-1.03,2.34-1.3,3.29
			c-0.42,1.42-0.54,2.52-0.27,3.45c0.53,1.83,1.75,2.86,1.69,3.06c0.1-0.17,0.43,0.47,0.82,0.94c0.49,0.4,1.28,0.58,1.97,0.51
			c1.42-0.22,2.84-1.14,4.23-1.89c0.69-0.43,1.45-0.68,2.19-1.06c0.67-0.31,1.62-0.4,2.56-0.64c0.82-0.2,1.78-0.42,2.32-1.26
			c0.54-0.73,0.83-1.67,1.52-2.17c0.07-0.05-0.17,0.16-0.11,0.1c0.7-0.7,1.24-1.58,1.96-2.3c0.72-0.71,1.56-1.31,2.23-2.04
			c0.69-0.76,1.3-1.57,1.88-2.37c0.84-1.13,1.65-2.48,1.61-3.18c0.08-0.1-0.43-1-0.77-1.5c-0.38-0.55-0.87-0.99-1.38-1.37
			c-1.02-0.82-2.34-1.25-3.77-1.26c-1.3,0-2.73,0.14-3.96,0.84c-1.11,0.16-2.1,0.54-3.13,0.76c-1.06,0.23-1.89,0.62-2.89,1.09
			c0.31,0.46,0.28,0.92,0.68,1.31c0.83,0.82,1.89,1.44,2.58,2.37c0.69,0.93,0.95,2.07,1.32,3.2
			C153.36,288.82,153.05,289.48,152.17,289.77z"/>
	</g>
	<g>
		<path class="st1" d="M106.36,473.34c0.49-1.15,1.14-1.77,1.5-2.64c0.52-1.24,1.31-2.06,1.64-2.87c0.57-1.37,0.75-2.28,1.12-3.05
			c0.41-0.86,0.8-1.6,1.53-2.84c0.43-0.73,1.12-1.53,1.82-2.71c0.47-0.79,0.76-1.86,1.4-2.95c0.49-0.84,0.85-1.88,1.45-2.92
			c0.5-0.87,0.84-1.93,1.43-2.97c0.61-1.06,1.18-2.13,1.77-3.21c0.58-1.07,1.07-2.19,1.63-3.28c0.57-1.08,1.86-2.17,2.41-3.26
			c-1.08-0.06-2.71,0.54-3.91,0.35c-1.11-0.18-2.25-0.64-3.4-0.94c-1.12-0.29-2.1-1.07-3.19-1.49c-1.1-0.42-2.24-0.72-3.25-1.28
			c-1.03-0.57-1.96-1.3-2.82-2.03c-0.91-0.76-2.08-1.34-2.74-2.28c-0.76-1.14-1.14-2.26-1.44-3.06c-0.68-1.85-0.51-3-0.59-3.32
			c0.27-1.12,0.31-2.28,0.46-3.43c0.15-1.14,0.9-2.24,0.98-3.39c-0.3-0.33-0.87-0.86-1.15-1.2c-0.57,1.05-0.76,2.37-1.3,3.36
			c-0.57,1.05-1.29,1.97-1.81,2.95c-0.57,1.05-1.33,1.95-1.86,2.93c-0.57,1.06-0.88,2.2-1.4,3.18c-0.57,1.07-1.39,1.94-1.9,2.92
			c-0.57,1.07-0.69,2.32-1.2,3.29c-0.57,1.08-1.47,1.91-1.97,2.87c-0.57,1.09-1.22,2.05-1.71,3c-0.58,1.12-0.32,2.55-0.81,3.5
			c-0.58,1.14-1.64,1.9-2.1,2.82c-0.6,1.18-0.94,2.28-1.38,3.17c-0.61,1.24-1.35,2.11-1.77,2.96c-0.59,1.18-0.51,2.39-1.03,3.32
			c-0.49,0.88-0.89,1.62-1.62,2.78c0.46,1.04,0.68,1.83,1.33,2.76c0.64,0.93,0.77,2.32,1.57,3.13c0.88,0.92,2.2,1.51,3.32,2.12
			c1.12,0.61,2.59,0.48,3.8,0.83c1.15,0.54,2.38,1.14,3.64,1.65c1.22,0.5,2.32,1.12,3.69,1.11c1.35-0.01,2.69,0.15,4.04,0.16
			C103.85,473.41,105,473.08,106.36,473.34z"/>
	</g>
	<g>
		<path class="st1" d="M90.81,337.47c0.68-1,0.81-2.23,1.31-2.96c0.64-0.94,1.5-1.49,2.1-2.28c0.56-0.74,1.4-1.27,2.17-2.17
			c0.57-0.66,0.76-1.82,1.57-2.7c0.61-0.66,1.53-1.19,2.32-2.03c0.64-0.68,1.09-1.66,1.88-2.49c0.01-0.01-0.16-0.13-0.15-0.14
			c0.2-0.22,1.37-0.64,2.65-2.01c0.61-0.66,1.35-1.45,2.19-2.39c0.65-0.73,1.3-1.6,2.08-2.51c0.66-0.76,1.25-1.68,1.99-2.57
			c0.66-0.79,1.56-1.48,2.28-2.38c0.66-0.81,0.84-2.02,1.54-2.93c0.14-0.38,0.98-0.61,1.18-0.94c-0.52-0.11-1.77-0.76-3.2-1.33
			c-0.96-0.38-2.35-0.07-3.42-0.53c-1.07-0.46-1.93-1.37-2.87-1.81c-1.4-0.66-2.85-0.82-3.28-1.13c-0.86-0.82-1.49-1.96-2.31-2.89
			c-0.8-0.9-1.45-1.94-2.16-2.93c-0.71-0.99-1.76-1.8-2.33-2.86c-0.58-1.08-0.69-2.48-1.07-3.61c-0.72,0.85-1.63,1.61-2.3,2.41
			c-0.72,0.85-1.36,1.73-2.03,2.52c-0.72,0.86-1.46,1.65-2.12,2.44c-0.72,0.87-1.42,1.69-2.08,2.49c-0.73,0.87-1.47,1.67-2.12,2.46
			c-0.73,0.88-0.98,2.07-1.63,2.86c-0.73,0.89-1.75,1.44-2.38,2.22c-0.74,0.92-1.45,1.73-2.07,2.51c-0.75,0.94-0.86,2.22-1.46,2.98
			c-0.77,0.98-1.59,1.69-2.14,2.42c-0.81,1.08-1.4,1.92-1.9,2.6c-0.81,1.1-1.32,1.84-1.93,2.55c-0.56,0.66-1.77,1.01-2.79,1.99
			c0.32,1.07,0.79,2.34,1.14,3.39c0.36,1.08,1.26,1.92,1.74,2.89c0.51,1.02,0.62,2.27,1.36,3.1c0.73,0.81,1.55,1.69,2.59,2.23
			c0.98,0.75,2.41,1,3.54,1.69c1.11,0.67,2.14,1.77,3.48,1.85c0.83,0.05,1.84-0.03,2.84-0.06c0.97-0.02,1.96,0.11,2.83,0.08
			C89.17,337.5,90.42,337.34,90.81,337.47z"/>
	</g>
	<g>
		<path class="st1" d="M116.79,280.83c0.05-0.04,0.14,0.17,0.19,0.14c-0.89-0.56-1.68-1.39-2.65-1.9c-0.97-0.5-2.04-0.82-3.06-1.15
			c-1.23-0.44-2.56-0.62-3.73-0.52c-1.33,0.12-2.48,0.67-3.15,1.8c-0.06,0.1,0.03,0.15-0.04,0.25c-0.45,0.8-0.83,2.01-0.76,3.03
			c0.02,0.54-0.07,1.18-0.04,1.88c0.04,0.7,0.45,1.33,0.84,1.94c0.54,0.8,1.14,1.61,1.85,2.32c0.69,0.69,1.53,1.26,2.31,1.87
			c0.79,0.62,1.7,1.06,2.5,1.59c1,0.67,1.6,1.55,2.27,2.05c1.1,0.82,1.91,1.33,2.48,1.81c0.99,0.82,1.47,1.37,2.52,1.67
			c1.44,0.45,3.12,0.01,4.22-0.44c1.08-0.41,1.77-1.07,2.71-1.78c0.3-0.6,0.83-1.77,0.67-2.8c-0.25-1.29-0.83-2.62-1.66-3.8
			c-0.53-1.38-2.32-1.8-2.53-3.46c-0.1-0.3-0.48-0.5-0.6-0.79c-0.24-0.55-0.39-0.91-0.75-1.35c-0.44,0.29-0.79,0.41-1.2,0.74
			c-0.76,0.62-1.55,1.19-2.33,1.79c-0.78,0.59-1.52,1.26-2.32,1.84c-0.64,0.47-1.57,0.15-2.04-0.49c-0.39-0.53-0.26-1.06,0.13-1.55
			c0.65-0.82,1.2-1.7,1.94-2.44C115.33,282.34,115.96,281.46,116.79,280.83z"/>
	</g>
	<g>
		<path class="st1" d="M88.33,382.07c1.17,0.55,2.26,1.49,3.53,1.99c1.25,0.5,2.6,1.05,3.96,0.97c1.06-0.03,2.25-0.53,3.52-0.62
			c1.11-0.08,2.22-0.28,3.43,0.04c0.34-0.77,0.88-1.29,1.24-2.05c0.36-0.76,0.59-1.59,0.99-2.33c0.5-0.89,1.04-1.85,1.65-2.84
			c0.55-0.89,1.47-1.6,2.09-2.56c0.57-0.89,1.11-1.85,1.72-2.79c0.59-0.9,1.21-1.8,1.81-2.73c0.59-0.91,0.78-2.09,1.37-3.01
			c0.59-0.92,1.49-1.65,2.07-2.58c0.58-0.94,1.29-1.79,1.84-2.73c0.56-0.96,0.66-2.17,1.18-3.11c0.53-0.98,1.43-1.76,1.89-2.72
			c0.49-1.02,0.91-2.29,1.3-3.26c-0.9,0.02-2.06,0.13-2.91-0.05c-0.91-0.19-1.8-0.44-2.56-0.78c-0.88-0.39-1.84-0.37-2.75-0.6
			c-0.91-0.24-1.74-0.79-2.65-1.02c-0.91-0.22-1.84-0.44-2.73-0.79c-0.83-0.48-1.84-0.73-2.66-1.25c-0.81-0.52-1.51-1.24-2.3-1.81
			c-0.78-0.56-1.32-1.45-2.08-2.07c-0.89-0.7-2.06-1.21-2.76-2.15c-0.69-0.92-1.02-2.28-1.44-3.35c-0.61,1.05-1.44,2.07-2.01,3.04
			c-0.62,1.05-1.16,2.08-1.72,3.04c-0.62,1.06-0.77,2.31-1.32,3.26c-0.61,1.06-1.7,1.76-2.25,2.72c-0.61,1.07-0.97,2.2-1.52,3.16
			c-0.6,1.06-0.92,2.2-1.45,3.17c-0.58,1.06-1.29,1.98-1.8,2.97c-0.55,1.04-1.49,1.85-1.99,2.87c-0.51,1.03-1.02,2.05-1.52,3.11
			c-0.59,1.15-1.11,2.31-1.72,3.44c-0.61,1.13-0.74,2.55-1.49,3.6c-0.17,0.22-0.59,0.38-0.76,0.61c0.49,1.04,0.94,2.16,1.58,3.09
			c0.64,0.93,1.53,1.72,2.33,2.55c0.92,0.93,1.89,1.94,3.04,2.57C85.62,381.69,87.09,381.69,88.33,382.07z"/>
	</g>
	<g>
		<path class="st1" d="M117.2,340.53c1.37,0.73,2.71,1.85,4.3,2.01c1.06,0.18,2.38-0.24,3.67-0.83c1.44-0.67,2.88-1.37,3.4-1.91
			c0.51-0.99,0.73-2.36,0.44-3.58c-0.27-1.17-1.11-2.21-1.91-3.01c-1.13-0.47-1.95-1.01-2.67-1.77c-0.64-0.68-1.11-1.62-2.06-2.45
			c-0.67-0.59-1.54-0.98-2.63-1.62c-0.51,0.69-0.9,1.29-1.42,1.97c-0.52,0.67-1.06,1.35-1.61,2.01c-1.06,1.28-3.46-0.18-2.77-1.72
			c0.67-1.46,1.93-2.68,2.81-4.01c-0.54-0.22-1.29-0.5-1.84-0.68c-0.94-0.3-1.9-0.66-2.85-0.83c-1.63-0.24-2.94,0.11-3.99,0.21
			c-2.38,0.24-3.51,0.77-3.84,0.83c-0.33,0.6-0.56,1.28-0.89,1.89c-0.04,1.72,1.21,2.71,1.38,3.68c-0.26,1,0.32,1.86,1.19,2.85
			c0.65,0.75,1.29,1.74,2.28,2.43c0.9,0.62,2.02,1,3,1.54c1.05,0.57,2.12,0.99,3.04,1.42C115.87,339.74,117.02,340.43,117.2,340.53z
			"/>
	</g>
	<g>
		<path class="st1" d="M104.49,324.84c-0.01,0.03,0.03,0.02-0.09,0.25c0.24-0.18,0.24-0.19,0.42-0.44
			C104.93,324.49,104.65,324.74,104.49,324.84z"/>
	</g>
	<g>
		<path class="st1" d="M111.76,396.88c-0.3,1.41-0.39,2.87-0.65,4.29c-0.11,0.62-0.33,1.23-0.44,1.85c-0.18,1.06-0.5,2.23-0.68,3.49
			c-0.16,1.13,0.43,2.43,0.27,3.63c-0.16,1.18-0.53,2.35-0.71,3.51c-0.19,1.23-0.35,2.43-0.57,3.53c-0.26,1.3-0.41,2.42-0.73,3.38
			c0.43,0.44,0.86,0.57,1.32,0.96c1.27,1.08,2.5,2.08,3.99,2.85c0.64,0.33,1.12,1.05,1.81,1.27c1.58,0.48,3.31,0.7,4.96,0.71
			c0.24,0,0.48-0.28,0.72-0.29c1.28,0.15,2.61,0.82,3.97,0.89c1.34,0.07,2.65-0.5,3.92-1.02c1.15-0.42,2.38-1.15,3.78-1.69
			c0.05-0.02,0.07-0.14,0.13-0.16c0.29-0.11,0.76,0.34,1.07,0.25c0.17-0.05,0.33-0.1,0.5-0.14c0.19-0.04,0.29-0.5,0.48-0.53
			c0.22-0.03,0.83,0.17,1.06,0.15c0.11-1.17-0.15-2.42,0.02-3.53c0.17-1.15,0.35-2.29,0.57-3.41c0.23-1.13,0.52-2.24,0.79-3.35
			c0.27-1.12,0.27-2.3,0.56-3.4c0.28-1.1,0.66-2.17,0.95-3.28c0.29-1.11,0.57-2.22,0.85-3.35c0.08-0.34-0.04-0.73,0.04-1.08
			c0.35-1.48,1.49-2.78,1.8-4.26c0.09-0.43-0.56-1.02-0.47-1.46c0.23-1.1,1.14-2.07,1.34-3.18c0.16-0.86-0.27-1.83-0.12-2.7
			c0.16-0.86,0.97-1.64,1.11-2.51c0.01-0.54-0.46-1.18-0.43-1.72c-1.07,0.39-2.16,0.92-3.24,0.96c-0.59,0.03-1.18-0.19-1.73-0.24
			c-0.09-0.01-0.18-0.2-0.27-0.21c-1.15-0.11-2.27,0.37-3.38,0.46c-0.57,0.05-1.15-0.07-1.71-0.01c-1.12,0.11-2.22-0.15-3.36-0.2
			c-0.95-0.19-1.89-0.26-2.83-0.5c-0.93-0.23-1.88-0.43-2.81-0.71c-0.92-0.28-1.82-0.63-2.74-0.97c-1.06-0.38-2.28-0.6-3.25-1.27
			c-0.95-0.65-1.62-1.27-2.36-2.15c-0.21,1.03-0.29,1.74-0.5,2.78c-0.21,1.04-0.36,2.08-0.57,3.12c-0.21,1.04-0.69,2.01-0.9,3.05
			c-0.21,1.04-0.49,2.06-0.69,3.09C112.41,394.86,111.95,395.84,111.76,396.88z"/>
	</g>
	<g>
		<path class="st1" d="M117.51,369.02c0.2,0.63,0.83,1.02,1.27,1.46c0.49,0.52,1.08,0.95,1.41,1.55c0.06,0.88,0.79,1.11,1.35,1.6
			c0.81,0.65,1.55,1.43,2.53,1.87c0.96,0.43,1.96,0.85,3,1.08c1.04,0.23,2.14,0.06,3.18,0.11c0.39,0.03,0.77,0.03,1.16,0.05
			c0.58,0.04,1.15,0.2,1.71,0.25c0.66,0.06,1.32,0.17,1.97,0.28c0.57,0.1,1.18,0.22,1.77,0.37c0.58,0.14,1.13,0.33,1.71,0.37
			c0.18,0.01,0.35-0.06,0.53-0.07c0.24-0.01,0.52,0.25,0.76,0.19c0.42-0.07,0.7-0.53,1.07-0.71c0.73-0.34,1.66-1.09,2.52-1.99
			c0.9-0.94,1.53-1.92,1.82-2.56c0.16-1.07,0.01-2.14-0.67-3.25c-0.58-0.94-1.3-1.88-2.47-2.46c-0.89-0.06-1.77-0.18-2.55-0.54
			c-0.77-0.36-1.41-1-2.17-1.41c-0.59-0.33-1.26-0.49-1.91-0.72c-0.53-0.2-1-0.63-1.6-0.7c-0.69-0.16-1.37-0.29-2.05-0.39
			c-0.02,0-0.27,0.16-0.29,0.16c-0.53,1.1-0.58,2.09-0.77,2.81c-0.32,1.25-0.49,2.05-0.48,2.83c0.02,0.81,0.26,1.63-0.33,2.81
			c-0.01,0.01-0.21-0.09-0.21-0.07c-0.42,0.85-1.36,1.27-2.2,0.85c-0.46-0.23-0.99-0.62-1.11-1.08c-0.3-1.2-0.1-2.07,0.12-2.85
			c0.22-0.77,0.91-1.47,1.11-2.62c0.13-0.74,0.11-1.84,0.06-2.99c-1.35,0.04-2.63,0.45-3.63,0.65c-1.42,0.28-2.65,0.33-3.5,0.76
			c-1.86,0.93-2.55,2.13-2.81,2.23C117.7,367.59,117.64,368.35,117.51,369.02z"/>
	</g>
	<g>
		<path class="st1" d="M118.28,366.25c0.01-0.19-0.13,0.14-0.25,0.29c0,0.04,0.02,0.07,0.02,0.11c-0.01,0.05-0.02,0.11-0.02,0.16
			C118.27,366.61,118.27,366.56,118.28,366.25z"/>
	</g>
	<g>
		<path class="st1" d="M140.62,676.7c1.06-0.03,2.26-0.32,3.54-0.41c1.11-0.08,2.42-0.03,3.63,0.29c0.47-1.05,1.08-2.25,1.56-3.19
			c0.51-1.01,0.7-2.14,1.23-3.07c0.55-0.96,1.24-1.81,1.83-2.74c0.57-0.91,0.93-1.97,1.54-2.91c0.58-0.89,1.34-1.69,1.96-2.63
			c0.58-0.88,1.24-1.74,1.86-2.71c0.57-0.88,1.24-1.76,1.84-2.74c0.55-0.89,1.18-1.79,1.77-2.77c0.53-0.9,0.53-2.16,1.1-3.16
			c0.52-0.92,1.25-1.77,1.81-2.78c0.51-0.93,1.1-1.86,1.64-2.88c0.18-0.51,0.11-0.7,0.31-1.2c-0.9,0.02-1.51-0.7-2.36-0.88
			c-0.91-0.19-1.82-0.19-2.59-0.54c-0.88-0.39-1.79-0.64-2.7-0.88c-0.91-0.24-1.93-0.05-2.84-0.28c-0.91-0.22-1.87-0.55-2.76-0.89
			c-0.83-0.48-1.51-1.3-2.33-1.82c-0.81-0.52-1.37-1.41-2.16-1.97c-0.78-0.56-1.81-0.79-2.57-1.41c-0.89-0.7-1.56-1.66-2.26-2.6
			c-0.69-0.92-1.37-2.07-1.79-3.14c-0.58,0.99-1.38,2.04-1.92,2.96c-0.58,1-0.73,2.19-1.27,3.12c-0.58,1.01-1.03,2.03-1.56,2.95
			c-0.58,1.01-1.32,1.87-1.84,2.79c-0.58,1.02-1.05,2.03-1.56,2.94c-0.58,1.03-1.37,1.85-1.87,2.76c-0.58,1.05-0.67,2.26-1.16,3.16
			c-0.59,1.09-1.12,2.06-1.58,2.94c-0.59,1.13-1.63,1.82-2.06,2.67c-0.62,1.21-1.22,2.11-1.61,2.9c-0.62,1.27-0.52,2.4-0.98,3.2
			c-0.48,0.83-1.03,1.52-1.87,2.64c0.49,1.04,0.86,2.02,1.5,2.95c0.64,0.93,1.11,2.08,1.91,2.9c0.92,0.93,2.45,1.11,3.6,1.74
			c1.14,0.63,2.05,1.83,3.29,2.2c1.17,0.55,2.67,0.45,3.93,0.95C138.08,675.68,139.25,676.79,140.62,676.7z"/>
	</g>
	<g>
		<path class="st1" d="M149.28,616.53c-0.03,0.05-0.06,0.09-0.08,0.14c0.21-0.22,0.31-0.16,0.42-0.44c0.07-0.18-0.17,0.09-0.33,0.19
			C149.27,616.46,149.29,616.5,149.28,616.53z"/>
	</g>
	<g>
		<path class="st1" d="M149.25,616.78c-0.08,0.02-0.08,0.01-0.13,0.08c-0.33,0.61-0.59,1.21-0.92,1.81
			c-0.02,0.66,0.13,1.24,0.41,1.8c0.29,0.65,0.6,1.17,0.72,1.85c-0.22,0.86,0.23,1.57,0.6,2.21c0.56,0.88,1.4,1.61,2.19,2.34
			c0.77,0.71,1.7,1.25,2.61,1.81c0.91,0.55,1.91,0.89,2.89,1.27c1.54,0.65,2.86,1.6,4.25,2.36c1.37,0.73,2.82,1.62,4.41,1.78
			c1.58,0.27,3.18-0.17,4.32-0.83c1.08-0.52,2.12-1.43,2.62-1.96c0.5-0.96,0.89-2.24,0.6-3.51c-0.25-1.07-0.97-2.17-1.89-3.1
			c-1.16-0.49-2.09-1.24-2.93-2.13c-0.83-0.88-1.65-1.77-2.61-2.53c-0.42-0.33-0.68-0.94-1.19-1.18c-0.03-0.02-0.2,0.15-0.23,0.13
			c-0.54,0.73-1.23,1.32-1.73,2c-0.53,0.73-0.7,1.66-1.08,2.42c-0.01,0.03,0.09,0.08,0.07,0.11c-0.35,0.71-1.42,0.88-2.13,0.52
			c-0.6-0.3-1.12-1.01-0.98-1.64c0.22-0.95,0.77-1.78,1.18-2.6c0.43-0.86,0.99-1.68,1.52-2.43c-1.1-0.47-2.19-0.76-3.13-1.02
			c-1.18-0.33-2.25-0.36-3.19-0.45c-1.29-0.12-2.32-0.08-3.2,0.06C150.47,616.28,149.48,616.78,149.25,616.78z"/>
	</g>
	<g>
		<path class="st1" d="M121.56,462.52c-0.02,0.04,0.01,0.07-0.01,0.11c-0.03,0.05-0.05,0.09-0.08,0.14c0.21-0.22,0.24-0.2,0.42-0.45
			C121.99,462.16,121.71,462.41,121.56,462.52z"/>
	</g>
	<g>
		<path class="st1" d="M122.46,470.46c0.56,0.88,1.17,1.75,1.96,2.48c0.77,0.71,1.57,1.45,2.48,2c0.91,0.55,1.87,1.08,2.84,1.47
			c1.54,0.65,3.21,0.87,4.6,1.63c1.37,0.73,2.63,1.98,4.22,2.14c1.58,0.27,3.2-0.15,4.33-0.8c1.08-0.52,2.08-1.47,2.59-2
			c0.5-0.96,0.95-2.23,0.66-3.5c-0.25-1.07-1.15-1.95-2.07-2.88c-1.2-0.5-2.08-1.43-2.94-2.35c-0.85-0.91-1.56-1.98-2.58-2.74
			c-0.37-0.27-0.69-0.62-1.13-0.81c-0.04-0.03-0.26-0.02-0.31-0.05c-0.24,0.75-0.45,1.51-0.66,2.27c-0.2,0.76-0.95,1.42-1.72,1.21
			c-0.65-0.17-0.94-0.96-0.94-1.6c0.03-1.15,0.14-2.31,0.36-3.43c-0.52-0.22-1.01-0.64-1.54-0.82c-1.14-0.4-2.33-0.78-3.49-0.98
			c-1.43-0.21-2.93-0.2-4.3-0.03c-0.69,0.07-1.33,0.42-1.97,0.63c-0.32,0.1-0.55,0.37-0.85,0.5c-0.21,0.1-0.26,0.01-0.46,0.12
			c-0.07,0.04,0.07,0.08,0.02,0.15c-0.33,0.61-0.66,1.09-0.99,1.69c-0.04,1.75,0.83,2.63,1.01,3.65
			C121.37,469.26,122.09,469.81,122.46,470.46z"/>
	</g>
	<g>
		<path class="st1" d="M119.86,522.19c0.34-0.77,0.47-1.54,0.83-2.31c0.36-0.77,1.19-1.29,1.59-2.03c0.51-0.91,0.59-2.06,1.13-2.95
			c0.54-0.89,1.69-1.39,2.26-2.26c0.56-0.87,0.74-2,1.31-2.87c0.57-0.87,0.81-1.96,1.38-2.83c0.57-0.87,1.38-1.58,1.94-2.45
			c0.56-0.88,1.21-1.69,1.75-2.58c0.54-0.89,1.39-1.59,1.92-2.49c0.53-0.9,1.07-1.79,1.59-2.69c0.51-0.9,0.7-1.99,1.19-2.9
			c0.5-0.91,0.64-1.99,1.12-2.91c0.18-0.51,0.8-1.07,0.99-1.57c-0.9,0.02-2.01,0.5-2.86,0.32c-0.91-0.19-1.8-0.59-2.57-0.93
			c-0.88-0.39-1.67-0.93-2.57-1.17c-0.91-0.24-1.74-0.81-2.65-1.04c-0.91-0.22-1.7-0.53-2.58-0.87c-0.87-0.51-2.02-0.55-2.92-1.11
			c-0.88-0.55-1.87-0.98-2.71-1.6c-0.85-0.62-1.26-1.76-2.02-2.47c-0.77-0.72-1.68-1.27-2.29-2.09c-0.62-0.84-1.17-1.65-1.56-2.63
			c-0.61,1.05-1.44,1.85-2,2.81c-0.62,1.05-1.27,2.02-1.83,2.98c-0.62,1.06-1.05,2.15-1.6,3.1c-0.61,1.06-1.36,1.96-1.91,2.91
			c-0.61,1.07-0.84,2.27-1.38,3.23c-0.6,1.06-1.31,1.98-1.84,2.95c-0.58,1.06-1.18,2.05-1.7,3.03c-0.55,1.04-1.22,1.99-1.72,3.01
			c-0.51,1.03-0.82,2.15-1.31,3.21c-0.59,1.15-0.77,2.5-1.38,3.64c-0.61,1.13-1.79,1.91-2.53,2.96c-0.17,0.22,0.08,0.62-0.09,0.85
			c0.57,1.19,1.13,2.24,1.78,3.17c0.74,1.07,1.66,1.82,2.52,2.6c0.92,0.84,1.67,1.84,2.74,2.42c1.06,0.57,2.23,0.93,3.44,1.29
			c1.17,0.55,2.33,1.31,3.59,1.82c1.25,0.5,2.59,0.72,3.96,0.63c1.06-0.03,2.28,0,3.55-0.09
			C117.53,522.22,118.65,521.87,119.86,522.19z"/>
	</g>
	<g>
		<path class="st1" d="M154.4,683.86c0.21-0.22,0.31-0.16,0.41-0.45c0.07-0.18-0.17,0.09-0.32,0.19c-0.02,0.04,0.01,0.07-0.01,0.11
			C154.46,683.76,154.43,683.81,154.4,683.86z"/>
	</g>
	<g>
		<path class="st1" d="M158.36,707.17c-0.83-0.48-1.88-0.65-2.7-1.18c-0.81-0.52-1.64-1.07-2.43-1.63
			c-0.78-0.56-1.09-1.76-1.85-2.37c-0.89-0.7-1.84-1.32-2.54-2.26c-0.69-0.92-1.42-1.47-1.85-2.54c-0.53,0.91-1.01,1.41-1.55,2.33
			c-0.53,0.91-1.17,1.77-1.7,2.68c-0.53,0.91-1.01,1.86-1.54,2.77c-0.53,0.91-0.77,1.99-1.3,2.91c-0.52,0.92-1.49,1.58-2.01,2.5
			c-0.52,0.89-0.54,2.07-1.04,2.96c-0.51,0.9-1.48,1.53-1.97,2.44c-0.49,0.91-1.12,1.74-1.6,2.66c-0.47,0.91-0.32,2.14-0.78,3.07
			c-0.45,0.92-1.24,1.69-1.67,2.63c-0.59,1.15-1.33,2.21-1.94,3.34c-0.61,1.13-0.87,2.48-1.62,3.53c-0.17,0.22-0.03,0.23-0.2,0.46
			c0.49,1.04,0.72,2.07,1.36,3c0.64,0.93,1.12,2.02,1.92,2.85c0.92,0.93,2.22,1.39,3.37,2.02c1.14,0.63,2.16,1.59,3.41,1.97
			c1.17,0.55,2.45,1.01,3.71,1.51c1.25,0.5,2.6,1.18,3.96,1.1c1.06-0.03,2.21-1.12,3.48-1.21c1.11-0.08,2.18,0.07,3.39,0.38
			c0.45-1.02,1.38-1.59,1.92-2.62c0.52-1,0.9-2.09,1.49-3.09c0.57-0.98,0.67-2.27,1.28-3.25c0.6-0.97,1.92-1.49,2.55-2.47
			c0.62-0.96,0.79-2.22,1.41-3.18c0.63-0.96,1.58-1.72,2.2-2.68c0.63-0.97,1.28-1.92,1.89-2.89c0.61-0.98,1.19-1.98,1.77-2.96
			c0.59-1,1.33-1.92,1.87-2.91c0.56-1.02,1.03-2.09,1.52-3.1c0.51-1.05,0.93-2.37,1.34-3.41c-0.9,0.02-1.98-0.27-2.84-0.45
			c-0.91-0.19-1.71-0.42-2.48-0.77c-0.88-0.39-1.88-0.5-2.78-0.74c-0.91-0.24-1.93-0.06-2.84-0.28
			C160.08,708.05,159.25,707.52,158.36,707.17z"/>
	</g>
	<g>
		<path class="st1" d="M169.72,685.92c-0.91,1.24-1.76,2.57-2.85,3.68c-0.56,0.57-1.5,0.39-2.07-0.17c-0.46-0.45-0.84-1.16-0.56-1.7
			c0.62-1.22,1.53-2.25,2.29-3.38c-0.56-0.23-1.01-0.59-1.58-0.77c-0.94-0.3-1.96-0.37-2.92-0.54c-1.43-0.21-2.83-0.03-4.2,0.14
			c-0.69,0.07-1.44-0.19-2.07,0.02c-0.32,0.1-0.5,0.55-0.79,0.68c-0.21,0.1-0.18,0.15-0.39,0.26c-0.07,0.04-0.11-0.13-0.15-0.06
			c-0.33,0.61-0.99,1.09-1.32,1.69c-0.04,1.75,1.27,2.7,1.45,3.71c-0.19,0.72,0.22,1.76,0.99,2.76c0.54,0.69,1.24,1.47,2.07,2.16
			c0.73,0.61,1.63,1.12,2.48,1.64c0.86,0.53,1.79,0.93,2.67,1.28c1.54,0.65,2.93,1.42,4.32,2.18c1.37,0.73,2.84,1.56,4.43,1.72
			c0.81,0.14,1.55,0.07,2.29-0.17c0.7-0.23,1.33-0.53,1.88-0.84c0,0,0.14,0.24,0.14,0.24c1.08-0.52,2.18-1.41,2.69-1.93
			c0.5-0.96,0.58-2.23,0.29-3.5c-0.25-1.07-0.85-2.05-1.77-2.98c-0.95-0.4-1.67-1.12-2.49-1.97c-0.64-0.66-1.33-1.44-2.26-2.23
			C171.56,687.25,170.77,686.53,169.72,685.92z"/>
	</g>
	<g>
		<path class="st2" d="M206.19,690.62c-2.46,2.76-8.24,6.84-17.2,9.17c1.02,1.25,2.1,2.44,3.22,3.6c2.51-0.24,4.94-1.26,7.32-2.42
			c2.43-1.18,4.65-2.88,6.5-4.88c1.14-1.85,3.42-2.89,5.05-4.38c-0.91-1.57-1.77-3.18-2.63-4.78
			C207.54,688.25,207.08,689.55,206.19,690.62z"/>
		<path class="st2" d="M255.32,732.43c-0.71,2.38-2.07,4.52-3.64,6.41c-5.1,6.1-1.47,5.83-13.34,12.64
			c-2.07,1.17-4.33,1.94-6.64,2.5c0.83,1.14,1.72,2.23,2.65,3.29c6.67,0.36,24.79-11.96,24.32-20.53
			C257.56,735.3,256.44,733.87,255.32,732.43z"/>
		<path class="st2" d="M145.93,575.07c-0.2-0.85-0.44-1.69-0.59-2.55c-0.08-0.41-0.13-0.82-0.21-1.23
			c-0.39-0.08-0.78-0.09-1.17-0.18l-0.1-0.02l-0.06-0.02c-1.71-0.75-2.92-2.62-4.91-2.55c-4.11,0.15-7.92-3.5-9.66-6.65
			c-0.57,1.44-1.13,2.89-1.72,4.33c5.54,3.82,7.88,5.32,12.61,6.48C142,573.48,143.86,574.68,145.93,575.07z"/>
		<path class="st2" d="M132.72,630.16c0.55-1.03,1.05-2.08,1.47-3.16c-2.22,0.44-4.53,0.38-6.81,0.08
			c-5.59-0.75-7.8,1.91-16.88-5.08c-1.56-1.21-2.87-2.78-3.86-4.52c-0.32,0.71-0.6,1.44-0.9,2.16c-0.13,0.33-0.17,1.16-0.01,1.81
			c1.06,4.25,6.34,7.4,10.33,9.21c2.77,0.6,5.83,1,8.68,0.98C127.53,631.57,130.34,631.45,132.72,630.16z"/>
		<path class="st2" d="M164.95,341.65c-0.64-1.11-1.28-2.21-1.92-3.32c-0.69,0.42-1.38,0.83-2.11,1.14
			c-3.94,1.52-7.96,2.65-12.35,3.19c-1.11,0.13-2.27,0.12-3.49-0.1c-0.09-0.01-0.21,0-0.31,0c0.67,1.46,1.43,2.88,2.23,4.29
			C155.83,348.24,163.42,342.26,164.95,341.65z"/>
		<path class="st2" d="M195.81,395.96c-2.49,1.79-4.46,4.34-7.19,5.96c-0.91,0.4-1.84,0.7-2.76,1.03c0.87,1.43,1.76,2.85,2.64,4.28
			c0.86-0.32,1.73-0.61,2.57-1c2.75-1.2,5.41-2.66,7.69-4.48c2.15-1.71,3.91-3.88,4.35-6.11c-0.73-1.67-1.45-3.34-2.18-5
			C199.64,392.78,197.8,394.52,195.81,395.96z"/>
		<path class="st2" d="M176.47,478.19c1.65-3.28,4.85-3.11,6.52-8.19c-0.14-0.11-0.3-0.19-0.37-0.34c-0.65-1.36-1.41-2.65-2.21-3.93
			c-4.17,5.1-3.12,9.54-16.98,16.46c-0.91,0.44-1.92,0.76-3.01,0.97c-0.11,0.02-0.2,0.08-0.31,0.1c-0.09,0.02-0.19,0.07-0.29,0.1
			c0.28,0.29,0.58,0.56,0.86,0.83c0.87,0.84,1.75,1.67,2.67,2.47C167.06,485.98,172.85,482.85,176.47,478.19z"/>
		<path class="st2" d="M210.09,536.61c2.56-0.09,5.19-1.5,7.51-3.06c5.95-4.01,15.91-12.56,14.9-19.54
			c-1.24-1.33-2.48-2.66-3.72-3.99c-0.5,2.43-1.66,4.69-3.06,6.7c-1.75,2.52-2.76,5.58-4.79,8.01c-2.31,2.15-4.83,3.98-7.37,5.75
			c-1.96,1.35-4.14,2.32-6.39,3.07C208.08,534.63,209.07,535.64,210.09,536.61z"/>
		<path class="st2" d="M167.23,396.34c-0.56,0.75-0.88,1.15-1.49,1.66c-0.79,0.65-1.59,1.21-2.45,1.7
			c-3.74,1.96-7.62,3.52-11.91,4.56c-1.08,0.25-2.24,0.37-3.48,0.29c-0.09,0-0.2,0.03-0.3,0.04c0.83,1.38,1.75,2.7,2.69,4.01
			c2.52,0.11,5.06-0.57,7.58-1.38c2.57-0.84,5-2.21,7.12-3.93c0.68-0.82,1.62-1.38,2.61-1.9c0.5-0.27,0.99-0.56,1.49-0.82
			c0.53-0.28,1.02-0.58,1.49-0.9c2.71-1.87,3.55-4.9,4.93-7.58c-0.52-0.84-1.03-1.67-1.55-2.51c-1.14,2.08-3.51,3.07-5.24,4.9
			C168.16,395.07,168.24,394.99,167.23,396.34z"/>
		<path class="st2" d="M197.82,458.65c-2.73,1.58-5.6,2.79-8.48,3.94c-0.78,0.31-1.61,0.48-2.42,0.7c-0.22,0.06-0.43,0.13-0.65,0.19
			c-0.35,0.09-0.68,0.23-1.03,0.3c-0.18,0.04-0.35,0.09-0.53,0.13c-0.03,0.01-0.07,0-0.1,0.01c-0.41,0.08-0.84,0.07-1.25,0.13
			c-0.31,0.04-0.63,0.07-0.94,0.1c0.43,0.81,0.94,1.57,1.41,2.36c0.26,0.42,0.49,0.86,0.76,1.27c0.11,0.02,0.23,0.02,0.35,0.04
			c0.71,0.11,1.44,0.12,2.19,0.06c0.11-0.01,0.23-0.02,0.34-0.03c0.51-0.06,1.02-0.14,1.54-0.25c0.58-0.13,1.16-0.27,1.73-0.45
			c7.11-2.25,20.16-9.01,20.77-16.32c-0.91-1.57-1.82-3.15-2.73-4.73c-1.03,2.25-2.67,4.19-4.49,5.84
			C202.02,453.98,200.35,456.74,197.82,458.65z M184.66,463.96c-0.44,0.47-0.29,0.46-0.47,0.94
			C184.37,464.43,184.18,464.47,184.66,463.96z"/>
		<path class="st2" d="M207.39,634.65c-1.38,1.77-1.67,2.62-4.65,4.3c-3.74,1.96-7.62,3.52-11.91,4.56
			c-1.08,0.25-2.24,0.37-3.48,0.3c-0.09,0-0.2,0.03-0.3,0.04c0.83,1.37,1.75,2.71,2.69,4.01c2.52,0.11,5.06-0.57,7.58-1.38
			c2.57-0.84,5-2.21,7.12-3.93c1.74-2.09,5.12-2.64,6.87-4.7c1.84-2.04,2.5-4.27,3.65-6.52c-0.52-0.84-1.03-1.67-1.55-2.51
			C212.04,631.32,209.04,632.17,207.39,634.65z"/>
		<path class="st2" d="M234.49,704.72c0.48-0.2,0.97-0.39,1.44-0.6c5.53-2.51,14.53-8.04,15.03-14.06
			c-0.91-1.57-1.82-3.15-2.73-4.73c-1.04,2.25-2.67,4.19-4.49,5.84c-2.27,2.06-3.94,4.81-6.47,6.73c-1.49,0.86-3.03,1.6-4.58,2.29
			c-0.48,0.22-0.97,0.41-1.45,0.61c-0.49,0.21-0.97,0.42-1.46,0.62c-2.28,0.93-4.11,1.6-7.91,1.98c0.66,1.25,1.39,2.45,2.18,3.63
			c3.05,0.59,6.35-0.65,9-1.7C233.53,705.13,234.01,704.92,234.49,704.72z"/>
		<path class="st2" d="M188.1,560.24c2.57-0.84,5-2.21,7.12-3.93c1.74-2.09,5.12-2.64,6.87-4.7c1.84-2.04,2.5-4.27,3.65-6.52
			c-0.52-0.84-1.03-1.67-1.55-2.51c-0.31,0.56-0.68,1.05-1.11,1.47c-1.79,1.63-3.7,2.55-4.91,4.36c-0.66,0.85-1.26,1.78-2.04,2.49
			c-0.84,0.71-1.69,1.29-2.61,1.82c-3.74,1.95-7.61,3.52-11.9,4.56c0.39,1.41,0.73,2.83,1.06,4.26
			C184.49,561.33,186.3,560.83,188.1,560.24z"/>
		<path class="st2" d="M241.75,603.83c-0.91-1.57-1.82-3.15-2.73-4.73c-1.03,2.25-2.67,4.19-4.49,5.84
			c-2.27,2.06-3.94,4.81-6.47,6.73c-4.7,2.71-10,4.97-15.4,5.5c0.66,1.25,1.39,2.45,2.17,3.63c4.51,0.88,12.78-3.09,16.14-5.1
			C235.23,613.23,241.34,608.75,241.75,603.83z"/>
		<path class="st2" d="M160.17,521.87c0.74-0.12,1.44-0.32,2.11-0.58c0.28-0.11,0.58-0.17,0.83-0.32c1.33-0.73,2.33-1.64,3.27-2.59
			c0.6-0.6,1.18-1.22,1.79-1.84c0.17-0.18,0.34-0.35,0.52-0.53c-0.21-0.96-0.43-1.92-0.64-2.88c-0.18,0.16-0.38,0.24-0.57,0.38
			c-0.92,0.67-0.68,0.55-1.93,1c-1.55,0.56-3.02,0.95-4.32,1.69c-0.26,0.15-0.53,0.28-0.78,0.46c-0.39,0.26-0.78,0.53-1.18,0.79
			c-0.5,0.34-1.02,0.66-1.56,0.89c-1.03,0.4-2.02,0.67-3.07,0.86c-4.18,0.62-8.35,0.83-12.75,0.4c-1.11-0.12-2.24-0.39-3.38-0.86
			c-0.09-0.03-0.2-0.04-0.3-0.06c0.34,1.57,0.76,3.13,1.23,4.68c2.34,0.93,4.97,1.12,7.61,1.18c2.7,0.05,5.45-0.45,8.01-1.38
			C156.55,522.27,158.41,522.15,160.17,521.87z"/>
		<path class="st2" d="M177.79,581.25c-0.5,0.25-0.99,0.5-1.5,0.72c-0.01,0.01-0.03,0.01-0.04,0.02c-1.15,0.49-2.25,1.13-3.35,1.77
			c-0.51,0.3-1.03,0.58-1.55,0.87c-1.09,0.61-2.21,1.19-3.42,1.58c-3.1,0.59-6.21,0.79-9.3,0.94c-1.77,0.07-3.54-0.09-5.3-0.39
			c-0.55-0.09-1.09-0.25-1.63-0.38c-0.04-0.01-0.08-0.02-0.12-0.03c0.01,0.07,0.03,0.15,0.05,0.22c0.15,0.95,0.38,1.89,0.59,2.82
			c0.08,0.36,0.14,0.73,0.23,1.09c2.22,1.29,5.19,1.5,7.98,1.41c2.97-0.09,5.99-0.32,8.94-0.93c0.91-0.17,1.79-0.43,2.68-0.66
			c0.55-0.14,1.12-0.24,1.66-0.41c1.16-0.36,2.26-0.81,3.35-1.3c0.26-0.11,0.55-0.19,0.8-0.31c0.23-0.11,0.43-0.25,0.65-0.36
			c2.2-1.17,4.1-2.75,4.94-4.63c-0.34-1.79-0.68-3.57-1.03-5.36C181.09,579.32,179.49,580.39,177.79,581.25z"/>
		<path class="st2" d="M152.63,303.67c2.25-0.95,4.26-2.41,6.07-4.02c2.02-1.26,4.54-2.14,6.02-4.16c1.42-2.03,3.08-4.1,3.39-5.07
			l0.15-0.45c0.13-0.4,0.41-0.71,0.75-0.89c-0.6-1.21-1.23-2.41-1.95-3.55c-0.3,0.79-0.69,1.51-1.04,2.2
			c-1.68,2.85-3.89,5.65-6.55,7.98c-1.59,0.98-3.82,0.9-4.9,2.57c-2.23,3.47-7.42,4.5-10.97,4.14c0.86,1.29,1.73,2.58,2.57,3.88
			C148.38,305.48,150.52,304.59,152.63,303.67z"/>
		<path class="st2" d="M183.56,356.09c0.36-0.06,0.71-0.17,1.07-0.25c0.5-0.11,1-0.22,1.49-0.37c0.48-0.15,0.95-0.33,1.43-0.51
			c1.71-0.65,3.39-1.49,5.01-2.46c2.08-1.93,4.15-4.22,5.76-6.57c1.56-2.33,3.06-4.7,3.36-7.39c-0.53-1.04-1.11-2.05-1.76-3.02
			c-0.91,2.07-2.28,3.93-3.83,5.64c-1.95,2.13-3.18,4.99-5.5,7.05c-1.57,1.07-3.25,1.9-4.98,2.63c-0.47,0.2-0.95,0.37-1.43,0.55
			c-0.48,0.18-0.94,0.39-1.43,0.55c-0.16,0.05-0.32,0.13-0.48,0.18c-1.88,0.59-3.92,0.77-5.92,0.59c0.4,0.67,0.84,1.32,1.26,1.98
			C178.59,356.13,181.66,356.38,183.56,356.09z"/>
		<path class="st2" d="M103.1,480.2c0.65-0.97,1.26-1.96,1.8-2.99c-2.25,0.2-4.54-0.1-6.78-0.64c-2.81-0.69-5.9-0.39-8.83-1.43
			c-4.02-2.05-8.81-5.76-10.79-10.31c-0.4,0.67-0.75,1.37-1.13,2.05c-0.17,0.32-0.3,1.14-0.2,1.8c0.2,1.4,0.85,2.82,1.82,4.08
			c4.31,5.52,9.41,7.4,16.01,8.05C97.8,481.06,100.6,481.23,103.1,480.2z"/>
		<path class="st2" d="M106.26,298.25c6.24,5.48,3.79,3.54,12.43,5.64c0.57-0.47,1.14-0.95,1.67-1.45c0.52-0.44,0.98-0.94,1.47-1.41
			c-1.52-0.24-2.85-0.86-4.13-1.21c-1.64-0.51-3.41-0.7-5.1-1.23c-4.39-1.56-8.57-6.23-10.98-10.68c-0.07-0.1-1.57-3-1.78-3.45
			c-0.77,0.93-1.54,1.87-2.32,2.8C100.41,293.77,103.15,296.31,106.26,298.25z"/>
		<path class="st2" d="M85.32,343.57c0.9-0.82,1.74-1.68,2.5-2.61c-3.88,0.46-12.83-2.19-15.02-3.55c-2.68-2.16-4.26-5.05-5.51-7.81
			c-0.62-1.4-1.07-2.84-1.39-4.29c-0.47,0.5-0.94,1-1.37,1.53c-0.29,2.29,0.3,4.97,1.38,7.12c1.16,2.28,3.03,4.32,5.08,5.66
			c2.31,1.45,4.83,2.58,7.27,3.41C80.69,343.68,83.03,344.33,85.32,343.57z"/>
		<path class="st2" d="M110.85,342.02c-8.91-6.35-8.09-8.16-9.99-9.63c-0.13-0.2-0.14-0.44-0.22-0.66
			c-0.58,1.01-1.14,2.03-1.73,3.04c2.93,3.84,2.77,6.51,11.36,9.46c3.87,1.95,5.38,4.77,14.31,3.57c0.26-0.32,0.51-0.64,0.77-0.96
			c0.27-0.33,0.49-0.69,0.75-1.03c-1.79,0.04-3.44-0.45-4.96-0.68C117.57,344.59,115.75,345.61,110.85,342.02z"/>
		<path class="st2" d="M88.04,392.82c3,0.88,7.17,1.81,10.07,0.66c1.21-1.63,2.18-3.39,3.05-5.22c-1.63-0.03-3.48-0.02-5.54-0.39
			c-6.06-1.13-8.37,0.94-16.67-6.89c-1.47-1.43-2.63-3.18-3.45-5.08c-1.27,1.97-2.35,3.28-1.17,6.45c1.44,4.16,6.16,7.19,10.18,9.06
			C84.98,391.62,85.57,392.01,88.04,392.82z"/>
		<path class="st2" d="M117,374.85c-0.18-0.14-0.28-0.37-0.42-0.56c-0.22,1.14-0.43,2.29-0.66,3.44c0.1,0.07,0.22,0.08,0.3,0.17
			l0.04,0.05c1.6,1.81,3.6,3.05,5.91,3.95c2.29,0.96,4.93,1.14,7.54,1.15c0.79,0.11,1.59,0.29,2.4,0.48
			c0.59,0.14,1.17,0.27,1.76,0.39c1.25,0.25,2.5,0.41,3.7,0.2l0,0c0.61-0.11,1.1-0.28,1.65-0.42c1.47-0.37,2.82-0.83,4.06-1.38
			c0.04-0.02,1.09-0.45,1.12-0.46c0.08-0.22,0.16-0.45,0.24-0.67c0.41-1.1,0.35-1.09,0.55-1.69c-0.59,0.21-1.17,0.38-1.76,0.48
			c-0.71,0.13-1.41,0.22-2.08,0.31c-0.37,0.05-0.73,0.09-1.08,0.15c-0.48,0.09-0.96,0.23-1.44,0.36c-0.55,0.14-1.1,0.25-1.65,0.39
			c-0.77,0.2-1.54,0.4-2.34,0.47c-0.44,0.01-0.86-0.07-1.29-0.1c-0.58-0.05-1.16-0.08-1.73-0.19c-0.77-0.15-1.54-0.34-2.28-0.58
			c-3.52-1.06-6.81-2.37-10.04-4.33C118.7,375.95,118.09,375.23,117,374.85z"/>
		<path class="st2" d="M126.04,436.06c0.83-0.06,1.25-0.04,2.02-0.19c0.93-0.18,1.85-0.38,2.73-0.64c0.38-0.7,0.75-1.63,1.19-2.8
			c-0.44,1.17-0.81,2.08-1.19,2.8c1.15-0.34,2.24-0.82,3.18-1.62c0.63-1.93,0.97-3.91,1.22-5.92c-0.51,0.16-1.04,0.32-1.59,0.49
			c-0.56,0.17-1.14,0.34-1.75,0.49c-0.17,0.33-2.04,3.87-3.08,5.86l2.39-4.53l0.26-0.5c0.06-0.2,0.07-0.42,0.05-0.64
			c0.03,0.27,0.06,0.23-0.05,0.64l0.43-0.83c-0.13,0.03-0.27,0.05-0.4,0.08c-1.47,0.34-1.15,0.25-1.63,0.34
			c-2.18,0.31-4.33,1.06-6.58,1.41c0.89,0.34,1.66,0.62,2.44,0.79c-0.78-0.17-1.55-0.45-2.44-0.79c-3.89,0.62-11.96-1.51-16.3-6.31
			C104.58,433.57,116.53,436.73,126.04,436.06z"/>
		<path class="st2" d="M143.97,626.66c0.94,2.23,2.43,4.04,4.33,5.64c1.87,1.64,4.31,2.66,6.77,3.51c2.32,1.16,4.54,3.13,7.11,3.53
			c2.61,0.39,4.77,0.34,6.93,0.06l0.18-0.02c0.03,0,0.06,0.01,0.09,0.01c1.2-1.47,1.14-1.5,1.51-1.99
			c-1.79,0.04-3.44-0.45-4.97-0.68c-1.8-0.27-3.72-0.14-5.54-0.59c-1.76-0.55-3.32-1.48-4.74-2.53c-3-2.14-5.69-4.42-8.12-7.32
			c-0.62-0.74-0.97-1.61-1.87-2.32c-0.13-0.2-0.14-0.44-0.22-0.66c-0.58,1.01-1.14,2.03-1.73,3.04c0.07,0.09,0.19,0.15,0.23,0.26
			L143.97,626.66z"/>
		<path class="st2" d="M129.44,683.07c1,0.49,2.25,0.96,3.39,1.33c1.18,0.35,2.35,0.69,3.51,0.88c2.25,0.29,4.44,0.62,6.56-0.22
			c1.21-1.63,2.17-3.39,3.05-5.22c-3.09-0.06-12.24-0.9-14.66-1.77c-2.79-1.46-5.27-3.36-7.55-5.51c-1.47-1.43-2.62-3.18-3.45-5.08
			c-0.53,0.82-1.04,1.64-1.49,2.5c-0.28,1.05-0.16,2.67,0.32,3.95c0.48,1.37,1.33,2.62,2.37,3.74c2.06,2.26,4.87,3.95,7.81,5.32
			L129.44,683.07z"/>
		<path class="st2" d="M120.57,478.39c1.87,1.64,4.31,2.66,6.77,3.51c2.32,1.16,4.54,3.13,7.11,3.53c2.61,0.39,4.77,0.34,6.93,0.06
			l0.18-0.02c0.03,0,0.06,0.01,0.09,0.01c0.26-0.32,0.51-0.64,0.76-0.96c0.27-0.33,0.49-0.69,0.75-1.03
			c-1.79,0.04-3.44-0.45-4.96-0.68c-1.8-0.27-3.72-0.14-5.54-0.59c-1.76-0.55-3.32-1.48-4.74-2.53c-8.91-6.35-8.09-8.16-9.99-9.63
			c-0.13-0.2-0.14-0.44-0.22-0.66c-0.58,1.01-1.14,2.03-1.73,3.04C116.68,473.36,117.13,475.51,120.57,478.39z"/>
		<path class="st2" d="M115.17,531.16c1.21-1.63,2.18-3.39,3.05-5.22c-1.63-0.03-3.48-0.02-5.54-0.39
			c-6.06-1.12-8.37,0.94-16.67-6.89c-1.47-1.43-2.62-3.18-3.45-5.08c-1.27,1.97-2.35,3.28-1.17,6.45c1.44,4.16,6.16,7.19,10.18,9.06
			c0.47,0.2,1.06,0.6,3.53,1.41C108.1,531.37,112.27,532.3,115.17,531.16z"/>
		<path class="st2" d="M173.53,704.34c-0.83-0.16-1.63-0.34-2.39-0.45c-3.55-0.54-5.39,0.48-10.28-3.11
			c-8.9-6.35-8.09-8.16-9.99-9.63c-0.13-0.2-0.14-0.44-0.22-0.66c-0.58,1.01-1.14,2.03-1.73,3.04c0.7,0.92,1.15,3.07,4.59,5.95
			c1.87,1.64,4.31,2.66,6.78,3.51c2.31,1.16,4.54,3.13,7.1,3.53c2.21,0.33,4.08,0.3,5.91,0.13c0.17-0.02,0.83-0.06,1.29-0.09
			c0.19-0.23,0.37-0.46,0.56-0.69c0.63-0.78,0.6-0.82,0.96-1.29c-0.27,0.01-0.55,0.03-0.82,0.01
			C174.68,704.54,174.1,704.45,173.53,704.34z"/>
		<path class="st2" d="M125.5,734.67c-0.53,0.82-1.04,1.64-1.49,2.5c-2.41,8.91,16.82,17.95,24.1,15.07
			c1.21-1.63,2.17-3.4,3.05-5.22c-14.5-0.28-17.13-2.49-22.21-7.28C127.48,738.32,126.32,736.56,125.5,734.67z"/>
	</g>
	<path class="st3" d="M135.71,56.98c-0.36-8.28-1.01-18.5,0.28-26.08c2.66-15.21,1.02-15.52,1.81-23.79l0.69-5.86
		c0.12-0.64-0.42-1.36-1.16-1.38c-0.36-0.02-0.74,0.12-1,0.4c-0.29,0.32-0.34,0.45-0.51,1.68l-0.92,5.85
		c-0.59,3.9-1.13,7.81-1.49,11.74c-0.38,3.93,0.21,7.92-0.37,11.83c-0.28,3.92-0.87,7.83-1.12,11.77
		c-0.24,4.63-0.23,9.26-0.11,13.89L135.71,56.98z"/>
	<path class="st3" d="M135.27,361.24c-1.22-15.3-1.77-30.65-1.67-45.99c4.31,3.81,4.47,3.72,7.29,6.79
		c1.52,1.17,3.39,2.01,4.76,3.38c0.24,0.24,0.49,0.46,0.69,0.74c0.08,0.11,0.17,0.22,0.25,0.33c0.31,0.44,0.64,0.86,0.96,1.28
		c0.95,1.28,1.95,2.5,3.27,3.48l0.02,0.02c0.47,0.35,1.11,0.43,1.68,0.17c0.84-0.38,1.2-1.37,0.82-2.2
		c-0.62-1.35-1.55-2.46-2.59-3.46c-0.4-0.38-0.81-0.75-1.24-1.1c-0.3-0.25-0.6-0.5-0.91-0.73c-0.1-0.07-0.18-0.17-0.27-0.25
		c-1.72-1.44-2.81-3.56-4.43-5.12c-1.96-1.35-3.95-2.61-5.73-4.1c-1.45-1.19-3-2.22-4.56-3.24c0.19-12.95,0.85-26.49,2.2-39.48
		c3.36,3.64,3.84,3.92,6.26,7.56c0.76,0.8,1.52,1.34,2.76,2.45c0.73,0.65,1.51,1.48,1.96,2.33c1.04,1.96,3.38,6.57,5.45,5.88
		c3.01-1-0.65-5.52-2.92-7.77c-0.74-0.73-1.2-1.53-1.58-2.18c-1.08-1.88-1.42-2.69-2.19-3.7c-6.8-6.36-5.98-6.07-9.31-8.58
		c0.42-3.57,0.88-7.14,1.43-10.69c-1.01-0.03-2.02-0.04-3.03-0.08c-0.58,3.62-1.08,7.25-1.53,10.89c-0.01,0.12-0.03,0.23-0.04,0.35
		c-0.16,1.33-0.33,2.67-0.48,4.01c-1.86,0.31-3.5,1.26-5.02,2.34c-2.94,2.12-3.32,0.25-8,4.21c-0.15,0.13-2.33,1.93-2.53,2.08
		c-1.75,1.33-3.25,2.83-4.57,4.5c-1.03,1.32,0.65,3.03,1.98,2.04c3.28-2.39,4.12-3.21,5.99-4.45c0.79-0.53,0.43-0.39,1.93-1.17
		c4.27-2.22,4.16-3.69,6.59-4.38c1.1-0.32,2.18-0.63,3.21-1.06c-1.13,11.48-1.71,22.51-2.03,34.21c-1.78,0.97-3.08,2.51-4.24,4.13
		c-1.24,1.75-3.38,2.66-4.87,4.22c-0.94,1.41-1.85,2.83-2.82,4.2c-1.52,2.14-2.95,4.22-4.05,6.63c-0.69,1.53,1.36,2.79,2.41,1.51
		c1.01-1.22,4.47-5.75,4.12-5.27c0.6-0.81,2.15-2.56,3.83-4.07c1.22-1.62,1.92-3.77,3.63-4.98c0.68-0.48,1.33-0.98,1.96-1.49
		c-0.08,5.41-0.08,10.82,0.03,16.23c3.23,4.67,4.81,8.97,0.39,12.46c0.14,3.06,0.37,6.11,0.57,9.16c-1.63,2.94-1.38,3.59-2.86,7.08
		c-0.72,1.71-0.55,1.24-0.58,1.51c-0.22,1.69,0.31,3.37-0.29,4.88c-0.62,1.57-1.12,3.2-0.69,4.91c0.12,0.46,0.44,0.88,0.9,1.11
		c0.85,0.42,1.88,0.07,2.3-0.77l0.01-0.03c0.75-1.51,0.67-3.08,0.59-4.7c-0.07-1.31,0.71-2.45,1.28-3.61
		c0.12-0.24,0.3-0.64,0.37-0.86c0.01-0.1,0.15-1.63,0.22-2.09c0.7,0.1,1.4,0.21,2.09,0.34
		C134.71,361.14,134.99,361.19,135.27,361.24z"/>
	<path class="st3" d="M174.28,713.79c-3.58,29.37-9.23,52.87-9.77,55.77c-1.69,9.13-2.65,18.42-2.65,27.73
		c0,2.78,0.07,5.57,0.25,8.35c0.06,0.87,0.82,1.55,1.7,1.5c0.89-0.05,1.57-0.81,1.52-1.7c-0.19-3.91-0.13-7.82,0.05-11.73
		c0.35-7.87,1.3-15.72,2.74-23.47c0.55-2.9,1.18-5.79,1.92-8.62c4.69-20.04,7.34-39.18,8.98-57.15
		C176.69,709.16,176.8,711.04,174.28,713.79z"/>
	<path class="st3" d="M162.51,500.44c-1.09-4.85-2.2-9.7-3.36-14.54c-0.87-1.02-1.81-1.97-2.79-2.89c-0.05-0.03-0.1-0.03-0.15-0.06
		c-1.21-0.77-1.91-1.94-2.48-2.92c-0.24-0.4-0.45-0.8-0.67-1.2c0.52,2.22,1.06,4.44,1.57,6.66c-0.04,0.03-0.09,0.02-0.13,0.05
		c-1.49,1.45-2.09,3.42-2.46,5.39c-0.36,1.95-1.82,3.56-2.39,5.51c-0.11,1.27-0.17,2.53-0.25,3.78c-0.03,0.5-0.07,1.01-0.11,1.51
		c-0.02,0.23-0.03,0.47-0.05,0.7c-0.03,0.27,0,0.55-0.01,0.82c-0.08,1.71,0.03,3.43,0.39,5.1c0.13,0.61,0.65,1.09,1.3,1.13
		c0.79,0.06,1.48-0.54,1.53-1.33l0.38-5.1l0.03-0.35c0.02-0.46,0.14-0.9,0.21-1.35c0.09-0.59,0.18-1.18,0.35-1.76
		c0.21-0.73,0.44-1.46,0.7-2.16c0.26-1.75-0.12-3.79,0.86-5.39c0.28-0.45,0.53-0.9,0.8-1.35c0.64,2.85,1.27,5.71,1.89,8.56
		c1.2,0.12,2.35,0.69,3.5,0.98C161.63,500.33,162.07,500.36,162.51,500.44z"/>
	<path class="st3" d="M152.19,472.39c0.34-1.4,0.99-2.68,1.65-3.93c0.21-0.38,0.51-0.69,0.74-1.05c-0.8-3.15-1.63-6.29-2.46-9.44
		c0.5,0.31,0.98,0.67,1.5,0.96c1.37,0.74,2.54,1.82,3.65,2.93c0.44,0.26,0.94,0.46,1.44,0.66c0.49,0.19,0.97,0.4,1.42,0.65
		c0.45,0.24,0.86,0.53,1.19,0.93c0.02,0.03,0.05,0.04,0.07,0.07c0.97,1.28,1.89,2.53,3.41,3.22l0.04,0.02
		c0.44,0.2,0.95,0.21,1.42-0.01c2.67-1.23-0.22-4.22-2.82-5.64c-0.29-0.16-0.54-0.37-0.78-0.59c-0.4-0.36-0.77-0.77-1.11-1.21
		c-0.5-0.65-0.99-1.32-1.62-1.84c-1.52-0.76-3.06-1.43-4.47-2.32c-1.36-0.84-2.85-1.46-4.4-1.91c-0.26-0.98-0.51-1.97-0.77-2.95
		c-3.4-12.65-6.16-25.46-8.46-38.36c-0.7,4.48-1.06,6.39-1.97,9.45c1.37,7.08,2.89,14.12,4.55,21.14c-1.26,1.39-2.12,3.05-2.88,4.78
		c-0.91,2.09-2.88,3.55-4.08,5.55l-2.4,6.56c-0.07,0.18-0.1,0.38-0.16,0.57c-0.16,0.46-0.27,0.93-0.4,1.4
		c-0.13,0.5-0.31,0.98-0.41,1.49c-0.21,1.13-0.34,2.27-0.37,3.42c-0.01,0.64,0.42,1.24,1.06,1.42c0.76,0.2,1.55-0.25,1.75-1.01
		c0.21-0.76,0.48-1.49,0.72-2.24c0.15-0.49,0.31-0.97,0.47-1.46c0.16-0.47,0.29-0.94,0.45-1.41c0.11-0.32,0.2-0.64,0.31-0.95
		c0.67-2.02,1.81-3.87,3.04-5.64c0.88-1.95,1.2-4.31,2.68-5.99c0.46-0.53,0.92-1.06,1.36-1.6c0.32,1.29,0.59,2.6,0.92,3.89
		c1.87,7.3,3.66,14.61,5.42,21.93C151.98,473.38,152.07,472.91,152.19,472.39z"/>
	<path class="st0" d="M133.84,172.26c-2.52-7.13-12.55-9.5-19.75-13.87c9.81-7.92,14.27-15.66,16.33-24.88
		c2.1-7.43,2.1-7.43-5.12-7.22c-10.33,0.3-14.4,0.41-36.51,1.05c7.2,4.5,15.3,2.14,24.53,4.21c-4.59,18.51-12.01,29.67-30.63,34.97
		c0,0,0.12,1.59,1.42,2.14c0.28,0.12,0.55,0.26,0.96,0.25l0.12,0l14.6-0.42c0.35,12.12,0.7,24.39,1.05,36.51l7.21-0.21
		c4.69-2.59,7.22-5.12,7.08-10.03c-0.21-7.22,2.03-14.65,1.82-22.01C117.73,172.73,133.33,172.28,133.84,172.26z"/>
	<path class="st0" d="M137.19,113.82c1.61-0.05,3.18-0.09,4.79-0.14c4.81-0.14,43.78-1.26,48.63-1.4c2.45-0.07,2.38-2.53,4.84-2.6
		c0,0-0.05-1.4-1.15-3.05c-0.04-0.06-1.26-1.48-1.44-1.64c-2.53-2.53-12.2-2.25-14.51,2.73l-2.45,0.07
		c-4.06,1.14-8.06,1.79-11.93,2.25c-5.42,0.64-10.55,0.85-14.84,0.98l-11.33,0.33l-1.18,0.03l0,0l0,0l-2.07,0.06l0.07,2.46
		C135.51,113.87,136.35,113.84,137.19,113.82z"/>
	<path class="st0" d="M189.49,158.53c-26.32,0.76-0.2-2.03-48.7-0.91c-2.31,0.07-4.91,0.14-4.77,4.9
		c0.21,7.36,0.42,14.57,3.23,21.86c0.37,12.88,2.95,12.05,17.38,11.63c7.22-0.21,14.36-2.87,21.72-3.08
		c9.74,2.17,12.12-0.35,14.3-10.09c2.31-4.98,2.17-9.74,2.03-14.65C196.99,163.23,194.47,160.85,189.49,158.53z M170.84,188.25
		l-0.35-12.12c0.17,0,7.18-0.21,7.36-0.21C177.87,176.38,175.57,188.11,170.84,188.25z M177.44,161.34
		c0.06,2.18,0.37,12.96,0.35,12.27l-7.36,0.21c0-0.03-0.37-12.96-0.42-14.72C172.42,161.38,174.94,161.41,177.44,161.34z
		 M153.32,171.7l-0.28-9.67l4.91-0.14c0.07,2.45,0.21,7.36,0.35,12.27C156.02,174.23,155.73,173.97,153.32,171.7z M154.17,186.83
		c-0.25-0.26-0.43-0.4-0.43-0.4c-0.01-0.47-0.3-10.28-0.28-9.81l4.91-0.14c0.01,0.47,0.08,2.92,0.07,2.45
		c-0.66,4.8,1.82,7.83-1.96,12.33c-0.02-0.52-0.19-1.01-0.37-1.49C155.62,188.47,154.73,187.38,154.17,186.83z"/>
	<path class="st0" d="M183.6,124.62c-2.34,0.07-4.61,0.06-6.86,0.02c-3.05-0.05-6.05-0.16-9.06-0.31c-1.36-0.07-2.73-0.14-4.11-0.22
		c-2.29-0.12-4.62-0.24-7-0.35c-7.02-0.31-14.68-0.26-16.78-0.2c0.2,7.06,2.82,12.02,0.49,17.03c0.14,4.76,2.59,4.69,7.5,4.55
		c0.77-0.02,32.12-0.92,31.6-0.91c9.51-2.7,9.6-2.8,9.32-12.4C191.03,126.86,188.51,124.48,183.6,124.62z M159.85,142.34
		c-0.01-0.48-0.45-15.5-0.42-14.58c0.49-0.01,13.93-0.4,14.58-0.42c0.02,0.61,0.37,12.97,0.35,12.27
		C169.3,139.76,164.36,140.06,159.85,142.34z"/>
	<path class="st3" d="M154.15,386.15c-0.09-0.08-0.15-0.18-0.24-0.26c-0.37-0.36-0.72-0.74-1.02-1.16c-0.29-0.4-0.56-0.81-0.82-1.23
		c-0.61-0.98-1.18-1.99-1.94-2.85c-0.74-0.61-1.49-1.2-2.23-1.8c-0.39,3.23-0.16,1.51-0.43,5.51c0.48,0.38,0.97,0.76,1.48,1.12
		c0.4,0.29,0.79,0.61,1.16,0.92c0.4,0.34,0.76,0.71,1.09,1.12c0.18,0.22,0.39,0.42,0.54,0.67c1.15,1.89,2.26,3.75,4.03,5.15
		c0.45,0.35,1.09,0.48,1.66,0.25c0.86-0.34,1.28-1.31,0.94-2.16C157.5,389.25,155.87,387.64,154.15,386.15z"/>
	<path class="st3" d="M183.49,537.2c-0.25-0.3-0.44-0.64-0.64-0.97c-0.86-1.48-1.32-3.24-2.28-4.7c-1.48-1.55-3.04-3-4.43-4.58
		c-0.73-0.81-1.51-1.56-2.34-2.27c0.51,2.37,1.06,4.73,1.57,7.09c5.04,7.41,3.84,3.27,6.07,8.77c0.52,1.28,1.11,2.5,2.06,3.58
		l0.03,0.03c0.36,0.41,0.92,0.63,1.5,0.54c0.91-0.14,1.54-0.99,1.41-1.91c-0.23-1.54-0.94-2.87-1.81-4.1
		c-0.3-0.42-0.61-0.83-0.94-1.22C183.62,537.37,183.56,537.28,183.49,537.2z"/>
	<path class="st3" d="M196.95,678.47c-0.63-0.73-1.89-2.01-1.43-1.54c-1.71-1.72-2.56-4.26-4.09-6.2c-1.83-1.68-3.72-3.27-5.45-5.02
		c-1.52-1.51-3.2-2.83-4.97-4.04c-0.01-13.93-0.5-27.86-1.37-41.76c0.78,0.43,1.55,0.89,2.35,1.27c1.48,0.69,2.78,1.74,3.99,2.84
		c0.66,0.35,1.42,0.59,2.15,0.87c0.52,0.2,1.01,0.44,1.45,0.74c0.28,0.19,0.56,0.39,0.78,0.67c0.12,0.15,0.25,0.27,0.37,0.42
		c0.94,1.14,1.88,2.23,3.29,2.87l0.04,0.02c1.73,0.77,4.43-1.65-0.11-4.76c-0.48-0.33-0.97-0.66-1.49-0.93
		c-0.05-0.02-0.09-0.06-0.13-0.08c-0.44-0.23-0.82-0.54-1.18-0.88c-0.92-0.88-1.66-2.01-2.69-2.78c-1.64-0.74-3.29-1.38-4.83-2.22
		c-1.33-0.7-2.76-1.19-4.22-1.56c-0.52-7.74-1.13-15.48-1.9-23.2c-1.09,0.49-2.18,0.96-3.3,1.33c0.34,3.03,0.63,6.06,0.93,9.09
		c-1.67,0.94-2.91,2.36-4.09,3.87c-1.29,1.64-3.57,2.29-4.97,3.91c-0.85,1.21-1.71,2.38-2.57,3.55c-0.28,0.39-0.56,0.79-0.85,1.17
		c-0.11,0.14-0.21,0.3-0.32,0.44c-0.2,0.26-0.37,0.58-0.56,0.85c-1.03,1.46-1.98,3.1-2.43,5.05c-0.15,0.63,0.15,1.3,0.76,1.6
		c0.71,0.35,1.56,0.06,1.92-0.64l0.03-0.05c0.74-1.48,1.87-2.82,2.98-4.33c0.08-0.11,0.15-0.2,0.23-0.31
		c0.22-0.31,0.48-0.57,0.72-0.86c0.31-0.39,0.62-0.79,0.96-1.15c0.76-0.81,1.57-1.57,2.44-2.25c1.38-1.38,2.06-3.55,3.78-4.7
		c0.83-0.54,1.66-1.09,2.43-1.71c0.56,6.2,1.03,12.4,1.38,18.61c1.9,4.06,0.28,6.46,0.29,6.93c0.43,9.94,0.63,19.88,0.44,29.84
		c-0.02,2.23-0.15,4.46-0.21,6.69c-1.71,0.2-3.17,3.1-3.87,4.63c-0.75,1.65-2.55,2.54-3.69,3.91c-0.56,1.09-1.15,2.15-1.78,3.18
		c-0.15,0.24-0.67,1.08-0.93,1.43c-0.16,0.22-2.28,3.55-2.78,4.56c-0.74,1.46,1.17,2.82,2.31,1.66c1.23-1.25,3.1-3.63,3.43-4.1
		c0.04-0.05,1.19-1.54,1.43-1.82c0.66-0.76,1.35-1.5,2.06-2.23c0.93-1.52,1.2-3.51,2.52-4.75c0.39-0.37,0.77-0.75,1.14-1.14
		c-0.14,3.63-0.31,7.27-0.54,10.9c2.5,1.6,2.55,2.91,3.28,3.97c0.49-8.15,0.83-16.31,0.91-24.48c0.82,0.82,1.63,1.67,2.47,2.47
		c1.74,1.6,3.18,3.5,4.53,5.44c1.2,1.23,2.72,2.23,3.89,3.52c0.34,0.38,0.63,0.79,0.9,1.23c0.21,0.34-0.02-0.17,0.77,1.3
		c1.2,2.22,3.24,5.88,5.07,5.28C199.49,684.81,198.73,680.52,196.95,678.47z"/>
	<g>
		<path class="st3" d="M169.45,186.06c-1.09-0.3-0.85,0.96-0.58,2.06c0.48-0.45,0.84-0.98,0.85-1.65c0.23-0.58-1.4-1.34-1.04-1.92
			c0.1-0.53,0.52-1.05,0.91-1.61c-0.96,0.07-3.22-1.46-1.72,0.88C168.41,184.64,169.26,185.62,169.45,186.06z"/>
	</g>
	<g>
		<path class="st3" d="M168.14,188.54c0.04,0.02,0.11-0.03,0.15-0.04c0.06-0.35,0.02-0.58-0.07-0.51
			C168.03,187.94,167.87,188.49,168.14,188.54z"/>
	</g>
	<g>
		<path class="st2" d="M152.94,175.4c-0.07-0.18-0.05-0.19-0.16-0.35c-0.1,0.01-0.14,0.04-0.2,0.07c0.1,0.08,0.18,0.17,0.27,0.26
			C152.88,175.38,152.92,175.39,152.94,175.4z"/>
	</g>
	<g>
		<path class="st3" d="M167.71,141.14c-0.2-0.51-0.36-1.16-0.8-1.75c-0.27-0.39-0.6-0.71-0.82-1.04c-0.16-0.24-0.37-0.44-0.44-0.62
			c-0.13-0.23,0.38-0.17,0.64-0.25c0.21-0.09,0.08-0.36,0.13-0.53c0.02-0.15,0.02-0.36,0.02-0.51c-1.21,0.14-2.02-0.16-2.7-0.62
			c-0.81-0.55-1.44-1.24-2.5-1.1c-0.64,0.08-1.35,0.51-2.41,1.34c-0.18,1.41-0.61,2.34-0.72,3.25c-0.11,0.98,0.08,1.83,0.93,3.11
			c0.84-0.23,1.66-0.39,2.5-0.57c0.06-0.01,0.11-0.12,0.17-0.13c1.33-0.31,2.69-0.35,3.99-0.47c0.65-0.05,1.29-0.15,1.93-0.13
			C167.71,141.13,167.72,141.21,167.71,141.14z"/>
	</g>
	<g>
		<path class="st2" d="M167.34,142.61c0.12,0.17,0.21-0.07,0.41-0.14c0.29-0.1,0.31-0.49,0.17-0.99
			C167.33,141.95,167.51,142.14,167.34,142.61z"/>
	</g>
	<g>
		<path class="st3" d="M169.12,176.01c-0.68-1.54-0.57-2.42-0.27-3.07c0.49-1.06,1.64-1.47,1.45-2.77
			c-0.67-0.17-1.46-0.41-2.17-0.71c-0.02,0.91,0.1,0.35,0.09,2.5c-0.24,2.31-0.44,2.28-0.79,4.58
			C167.33,177.21,168.52,176.51,169.12,176.01z"/>
	</g>
	<g>
		<path class="st3" d="M115.07,66.79c0.02-1.12,0.04-2.24,0.04-3.36c0-1.12,0-2.24-0.05-3.36c-0.05-1.12-0.15-2.23-0.29-3.34
			c-1.12,0-2.32-0.02-3.62-0.01c-1.13,0.01-2.33,0.02-3.62,0.03c-1.15,0.01-2.37,0.08-3.65,0.09c-1.16,0.02-2.37,0.02-3.65,0.04
			c-0.11,1.16-0.26,2.32-0.36,3.48c-0.1,1.17-0.19,2.34-0.2,3.5c-0.01,1.18,0.09,2.33,0.27,3.48c0.96-0.03,1.95-0.05,3.02-0.08
			c0.96-0.03,1.97-0.05,3.02-0.08c0.97-0.03,1.97-0.11,3.02-0.15c0.98-0.04,1.99-0.06,3.04-0.1
			C113.01,66.89,114.03,66.84,115.07,66.79z"/>
	</g>
	<g>
		<path class="st3" d="M120.83,66.52c1.13-0.06,2.29-0.09,3.49-0.15c1.13-0.06,2.29-0.2,3.48-0.27c1.14-0.06,2.31-0.05,3.5-0.12
			c1.14-0.07,2.3-0.12,3.5-0.19c1.06-0.01,2.12-0.09,3.18-0.08c0.55,0,1.1-0.02,1.64-0.01c0.54,0.01,1.08,0.06,1.62,0.07
			c1.01,0.02,2.02,0.04,3.02,0.07c1.01,0.02,2.02-0.01,3.02,0.01c1.01,0.02,2.01,0.06,3.02,0.07c-0.09-1.04-0.17-2.08-0.25-3.12
			c-0.08-1.04-0.13-2.09-0.2-3.13c-0.07-1.04-0.17-2.08-0.23-3.13c-1.16,0.06-2.24,0.08-3.25,0.13c-1.17,0.06-2.24,0.1-3.23,0.15
			c-1.21,0.05-2.28,0.07-3.24,0.11c-1.25,0.05-2.31,0.15-3.23,0.17c-1.34,0.04-2.37,0.07-3.23,0.06c-1.3-0.01-2.21-0.07-3.23-0.12
			c-0.88-0.05-1.84-0.13-3.2-0.18c-0.88-0.04-1.92-0.04-3.22-0.07c-0.94-0.02-1.96-0.01-3.2-0.02c0.11,1.09,0.16,2.13,0.21,3.22
			c0.04,1.09,0.05,2.18,0.06,3.27C120.87,64.34,120.84,65.43,120.83,66.52z"/>
	</g>
	<g>
		<path class="st3" d="M160.37,65.67c1-0.07,2.01-0.11,3.02-0.18c1-0.07,2.01-0.14,3.01-0.2c1-0.06,2.01-0.15,3.01-0.21
			c1.01-0.05,2.01-0.08,3.02-0.12c1.01-0.04,1.99-0.09,3-0.12c0.01-1.08,0.04-2.15,0.07-3.23c0.03-1.08,0.1-2.16,0.15-3.24
			c0.05-1.08,0.11-2.16,0.18-3.24c-1.17,0.06-2.31,0.11-3.42,0.17c-1.18,0.06-2.31,0.15-3.42,0.21c-1.18,0.06-2.31,0.15-3.41,0.21
			c-1.18,0.06-2.33,0.06-3.42,0.12c-1.18,0.06-2.31,0.19-3.4,0.25c-1.19,0.06-2.33,0.08-3.41,0.14c0.07,1.06,0.19,2.13,0.26,3.19
			c0.07,1.06,0.07,2.13,0.15,3.19c0.08,1.06,0.21,2.1,0.3,3.16C157.51,65.74,158.93,65.77,160.37,65.67z"/>
	</g>
	<g>
		<path class="st3" d="M75.16,89.35c-0.84-0.57-1.65-1.14-2.52-1.65c-0.87-0.51-1.76-0.99-2.66-1.46c-0.9-0.46-1.81-0.9-2.72-1.34
			c-0.91-0.44-1.84-0.84-2.75-1.27c-0.6,1.05-1.24,2.08-1.84,3.13c-0.6,1.05-1.13,2.14-1.73,3.2c-0.6,1.05-1.24,2.08-1.84,3.14
			c-0.6,1.05-1.2,2.11-1.8,3.16c-0.6,1.05-1.22,2.12-1.82,3.17c0.84,0.56,1.69,1.14,2.52,1.71c0.83,0.57,1.68,1.11,2.5,1.69
			c0.82,0.58,1.65,1.15,2.46,1.74c0.81,0.59,1.6,1.17,2.4,1.78c0.54-0.89,1.07-1.75,1.6-2.65c0.53-0.89,1.06-1.79,1.59-2.69
			c0.52-0.9,1.06-1.79,1.57-2.7c0.6-1.06,1.14-2.07,1.68-3.01c0.6-1.06,1.14-2.06,1.67-2.99C74.08,91.22,74.64,90.26,75.16,89.35z"
			/>
	</g>
	<g>
		<path class="st3" d="M51.89,130.77c0.5-0.93,0.95-1.89,1.43-2.82c0.48-0.94,0.98-1.86,1.44-2.8c0.47-0.94,0.88-1.91,1.35-2.85
			c0.47-0.94,0.94-1.88,1.42-2.82c0.48-0.94,1.01-1.84,1.51-2.77c0.56-0.9,1.15-1.79,1.71-2.7c0.56-0.91,1.07-1.84,1.62-2.74
			c-0.78-0.6-1.54-1.24-2.34-1.82c-0.8-0.58-1.62-1.15-2.43-1.72c-0.81-0.57-1.63-1.13-2.45-1.68c-0.82-0.55-1.66-1.1-2.49-1.65
			c-0.39,0.69-0.79,1.4-1.18,2.09c-0.47,0.98-0.95,1.96-1.41,2.95c-0.47,0.98-0.92,1.97-1.39,2.96c-0.47,0.98-0.98,1.95-1.45,2.93
			c-0.47,0.98-0.89,1.99-1.36,2.97c-0.47,0.99-0.97,1.95-1.44,2.94c-0.47,0.99-0.91,1.99-1.38,2.98c0.99,0.71,2,1.42,2.98,2.14
			c0.98,0.72,1.98,1.42,2.96,2.16C49.97,129.24,50.92,130.02,51.89,130.77z"/>
	</g>
	<g>
		<path class="st3" d="M41.98,147.25c0.55-0.98,1.12-1.93,1.69-2.9c0.57-0.97,1.18-1.92,1.77-2.88c0.59-0.96,1.16-1.93,1.76-2.88
			c0.6-0.95,1.18-1.9,1.78-2.85c-0.92-0.72-1.81-1.45-2.74-2.15c-0.93-0.7-1.89-1.37-2.83-2.06c-0.94-0.69-1.88-1.37-2.83-2.05
			c-0.45,0.95-0.9,1.89-1.35,2.83c-0.45,0.95-0.9,1.9-1.35,2.84c-0.45,0.95-0.91,1.89-1.36,2.84c-0.45,0.95-0.9,1.9-1.35,2.84
			c-0.46,0.94-0.95,1.87-1.41,2.81c-0.46,0.94-0.87,1.88-1.33,2.82c1.06,0.11,2.1,0.23,3.17,0.32c1.07,0.09,2.13,0.16,3.2,0.24
			C39.86,147.1,40.92,147.16,41.98,147.25z"/>
	</g>
	<g>
		<path class="st3" d="M50.32,177.04c-1.15,0.41-2.3,0.87-3.46,1.27c-1.16,0.4-2.33,0.75-3.48,1.17c-1.15,0.42-2.26,0.87-3.39,1.33
			c0.61,1.09,1.16,2.15,1.74,3.18c0.62,1.09,1.24,2.13,1.82,3.15c0.62,1.08,1.22,2.14,1.81,3.16c0.62,1.08,1.24,2.11,1.84,3.13
			c0.62,1.07,1.22,2.09,1.82,3.11c1.09-0.5,2.17-0.96,3.27-1.45c1.09-0.49,2.18-1,3.26-1.5c1.09-0.5,2.15-1,3.21-1.55
			c-0.58-1-1.1-1.99-1.68-2.99c-0.58-1-1.17-1.99-1.74-2.99c-0.57-1-1.14-2-1.71-3c-0.57-1.01-1.15-2.01-1.7-3.01
			C51.39,179.05,50.86,178.03,50.32,177.04z"/>
	</g>
	<g>
		<path class="st3" d="M74.8,218.27c-0.62-0.98-1.25-2-1.89-3.02c-0.62-0.99-1.24-1.99-1.87-3.01c-0.62-1-1.26-2-1.89-3.02
			c-0.61-1-1.26-1.99-1.88-3c-0.62-1.01-1.23-2.03-1.85-3.05c-0.61-1.01-1.18-2.06-1.8-3.09c-0.62-1.02-1.28-2.02-1.89-3.06
			c-1.06,0.55-2.16,1-3.24,1.5c-1.08,0.5-2.15,1.05-3.24,1.53c-1.09,0.48-2.21,0.94-3.29,1.44c0.56,0.92,1.13,1.84,1.69,2.74
			c0.56,0.91,1.13,1.79,1.69,2.69c0.56,0.9,1.06,1.82,1.63,2.71c0.56,0.89,1.19,1.74,1.76,2.63c0.56,0.88,1.1,1.79,1.68,2.68
			c0.56,0.87,1.16,1.73,1.74,2.62c0.57,0.87,1.12,1.77,1.71,2.68c0.57,0.87,1.15,1.77,1.74,2.68c0.82-0.31,1.66-0.63,2.47-0.97
			c0.98-0.41,1.7-1.03,2.43-1.61c0.74-0.59,1.5-1.12,2.37-1.61C73.43,218.44,74.1,218.3,74.8,218.27z"/>
	</g>
	<g>
		<path class="st3" d="M87.25,237.15c-0.56-0.8-1.18-1.67-1.83-2.63c-0.57-0.83-1.17-1.7-1.8-2.64c-0.57-0.85-1.12-1.76-1.74-2.68
			c-0.57-0.86-1.19-1.74-1.8-2.67c-0.57-0.87-1.13-1.79-1.73-2.72c-0.33,0.14-0.7,0.25-1.13,0.25c-0.57,0-1.15-0.01-1.72-0.01
			c-0.93,0.9-1.97,1.66-3.1,2.27c-1.11,0.6-2.31,1.07-3.52,1.55c0.61,0.93,1.22,1.89,1.86,2.87c0.61,0.93,1.29,1.86,1.94,2.84
			c0.61,0.93,1.19,1.93,1.83,2.91c0.62,0.94,1.27,1.88,1.92,2.87c0.62,0.94,1.26,1.87,1.91,2.86c0.93-0.56,1.87-1.06,2.81-1.61
			c0.94-0.55,1.87-1.12,2.81-1.67c0.94-0.55,1.88-1.1,2.82-1.65C86.94,237.19,87.09,237.21,87.25,237.15z"/>
	</g>
	<g>
		<path class="st3" d="M168.43,243.93c-1.1,0.01-2.19-0.07-3.29-0.02c-1.1,0.05-2.2,0.17-3.3,0.25c-1.1,0.08-2.19,0.18-3.29,0.28
			c-1.1,0.1-2.19,0.18-3.29,0.28c-1.1,0.11-2.18,0.33-3.28,0.44c-1.1,0.11-2.19,0.23-3.29,0.33c-1.1,0.1-2.2,0.02-3.3,0.09
			c-1.17,0.01-2.31,0.14-3.42,0.16c-1.17,0.02-2.32,0.04-3.44,0.06c-1.17,0.02-2.31,0.09-3.42,0.12c-1.17,0.03-2.31,0.08-3.42,0.11
			c-1.18,0.03-2.32-0.13-3.43-0.1c-1.18,0.04-2.31,0.22-3.41,0.26c-1.18,0.04-2.33-0.02-3.42,0.03c-1.18,0.05-2.31,0.14-3.4,0.18
			c-1.19,0.05-2.29,0.15-3.37,0.2c0.21,0.39,0.43,0.78,0.43,1.33c-0.01,0.89-0.2,1.77-0.25,2.65c-0.05,0.88-0.04,1.73-0.11,2.62
			c1.21-0.01,2.36,0.07,3.51,0.07c1.21-0.01,2.39-0.11,3.54-0.11c1.22-0.01,2.4,0.07,3.54,0.07c1.22,0,2.39,0.05,3.53,0.05
			c1.22,0,2.4-0.15,3.54-0.15c1.22,0,2.39,0,3.52,0c1.23,0,2.46,0.13,3.57,0.14c0.01-1.57-0.05-3.18-0.05-4.74
			c0-1.21,0.62-2,1.44-2.43c0.88-0.45,1.97-0.42,2.85,0.03c0.83,0.42,1.56,1.19,1.56,2.4c0,1.58-0.05,3.13-0.05,4.71
			c1.17,0.01,2.21,0.03,3.24,0.05c1.18,0.02,2.27,0.1,3.28,0.12c1.19,0.02,2.27,0.12,3.26,0.14c1.21,0.03,2.3-0.07,3.29-0.04
			c1.21,0.03,2.27,0.17,3.25,0.19c1.15,0.03,2.2-0.09,3.24-0.09c1.05,0,2.13,0.09,3.27,0.06c0.05-1.08,0.16-2.19,0.22-3.26
			c0.06-1.08,0.02-2.16,0.06-3.24C168.38,246.07,168.41,245.01,168.43,243.93z"/>
	</g>
	<g>
		<path class="st3" d="M225.8,128.26c0.77,1.16,1.49,2.35,2.24,3.52c0.75,1.17,1.5,2.31,2.22,3.5c1-0.67,1.98-1.33,2.98-1.99
			c1-0.67,2-1.34,2.99-2.02c0.99-0.69,1.99-1.35,2.96-2.07c0.96-0.72,1.9-1.48,2.82-2.25c0.12-0.21-0.11-0.21-0.23-0.42
			c-0.48-0.86-0.95-1.72-1.44-2.57c-0.49-0.86-0.98-1.71-1.46-2.56c-0.49-0.85-1-1.69-1.49-2.55c-0.49-0.85-0.97-1.7-1.46-2.55
			c-1.1,0.58-2.2,1.13-3.31,1.7c-1.11,0.56-2.2,1.15-3.31,1.72c-1.11,0.56-2.22,1.12-3.32,1.7c-1.1,0.58-2.21,1.15-3.29,1.76
			c0.48,0.87,0.99,1.74,1.49,2.59C224.7,126.59,225.25,127.42,225.8,128.26z"/>
	</g>
	<g>
		<path class="st3" d="M216.06,110.54c0.46,0.82,0.92,1.65,1.36,2.48c0.44,0.83,0.83,1.69,1.27,2.53c0.43,0.84,0.88,1.67,1.31,2.51
			c1.07-0.6,2.13-1.2,3.21-1.76c1.08-0.57,2.2-1.07,3.29-1.62c1.09-0.55,2.15-1.15,3.24-1.71c1.09-0.56,2.19-1.1,3.27-1.67
			c-0.63-1.06-1.25-2.14-1.88-3.19c-0.63-1.06-1.31-2.09-1.95-3.14c-0.64-1.05-1.28-2.1-1.95-3.13c-0.36-0.57-0.67-1.1-1.02-1.66
			c-1.01,0.65-2.05,1.24-3.1,1.81c-1.05,0.58-2.09,1.17-3.17,1.67c-1.08,0.5-2.2,0.92-3.32,1.35c-1.11,0.42-2.27,0.81-3.42,1.15
			c0.45,0.7,0.94,1.44,1.43,2.2C215.08,109.05,215.56,109.77,216.06,110.54z"/>
	</g>
	<g>
		<path class="st3" d="M202.93,88.33c0.61,1.15,1.19,2.2,1.74,3.22c0.58,1.09,1.12,2.15,1.71,3.22c0.56,1.02,1.12,2.08,1.77,3.2
			c0.57,0.98,1.21,2.02,1.9,3.16c1.17-0.31,2.31-0.72,3.44-1.11c1.14-0.4,2.26-0.81,3.36-1.29c1.1-0.48,2.19-0.99,3.24-1.56
			c1.06-0.57,2.07-1.19,3.08-1.84c-0.66-1.08-1.29-2.13-1.92-3.19c-0.65-1.08-1.3-2.15-1.94-3.21c-0.65-1.08-1.29-2.14-1.92-3.21
			c-0.63-1.06-1.25-2.15-1.88-3.21c-1.05,0.45-2.1,0.96-3.15,1.43c-1.05,0.46-2.12,0.88-3.16,1.35c-1.04,0.48-2.07,1-3.1,1.5
			c-1.03,0.5-2.05,1.02-3.08,1.54C203,88.35,202.96,88.32,202.93,88.33z"/>
	</g>
	<g>
		<path class="st3" d="M245.06,131.87c-0.93,0.75-2.06,1.65-3.03,2.35c-0.97,0.71-2,1.32-2.99,1.99c-0.99,0.68-1.69,1.79-2.69,2.45
			c-1,0.66-1.88,1.09-2.88,1.75c0.49,0.91,0.35,1.83,0.81,2.75c0.46,0.92,0.9,1.83,1.31,2.78c0.36,0.83,0.08,1.3-0.76,1.67
			c-0.74,0.32-1.46,0.47-1.89-0.18c-0.63-0.93-1.31-1.83-1.9-2.78c-0.59-0.95-1.41-1.78-1.98-2.74c-0.57-0.97-0.38-2.36-0.92-3.34
			c-0.55-0.98-1.45-1.75-1.98-2.74c-0.53-0.99-1.43-1.78-1.95-2.77s-0.92-2.05-1.44-3.05c-0.53-1.01-1.26-1.88-1.86-2.86
			c-0.59-0.98-1.06-1.82-1.69-2.78c-1.35-0.39-1.65-2.27-1.51-3.65c-0.6-0.87-1.47-1.75-2.07-2.62c-0.6-0.87-1.44-1.58-2.02-2.46
			c-0.59-0.88-0.94-1.9-1.5-2.8c-0.53-1-0.87-2.05-1.37-2.97c-0.53-0.99-1.19-2.01-1.69-2.93c-1.04-0.09-2.35-0.31-2.79-1.14
			c-0.46-0.86-0.07-2.12,0.37-2.96c-0.54-0.99-0.99-2.02-1.49-2.93c-0.54-0.98-1.33-1.78-1.83-2.7c-0.53-0.98-0.65-2.14-1.15-3.07
			c-0.53-0.98-1.63-1.61-2.13-2.56c-0.51-0.96-0.71-2.07-1.2-3.02c-0.48-0.95-0.86-1.96-1.34-2.94c-0.46-0.95-0.61-2.06-1.07-3.05
			c-0.44-0.95-1.34-1.72-1.8-2.73c-0.42-0.95-0.46-2.11-0.9-3.14c-0.72-1.68,1.4-2.73,2.29-1.11c0.5,0.9,1.15,1.65,1.59,2.46
			c0.5,0.9,0.84,1.81,1.27,2.61c0.49,0.9,0.95,1.43,1.38,2.24c1.01-0.52,1.82-0.94,2.84-1.43c1.02-0.49,2.26-0.5,3.29-0.97
			c1.03-0.47,2.11-0.8,3.15-1.25c1.03-0.46,1.56-1.34,2.6-1.79c-0.6-0.99-1.07-1.73-1.68-2.73c-0.6-0.98-1.06-2.06-1.68-3.06
			c-0.61-0.98-1.15-2.01-1.79-3.01c-0.61-0.98-1.32-1.91-1.97-2.92c-0.62-0.97-1.4-1.86-2.06-2.87c-0.63-0.96-0.71-2.3-1.37-3.29
			c-0.64-0.96-1.28-1.96-1.96-2.96c-0.65-0.96-1.53-1.82-2.22-2.82c-0.07-0.08-0.24-0.06-0.35-0.05c-1.06,0.06-2.09,0.31-3.1,0.37
			c-1.05,0.06-2.07,0.35-3.08,0.4c-1.05,0.06-2.08,0.23-3.09,0.29c-1.05,0.06-2.08,0.07-3.09,0.13c-1.05,0.06-2.41-0.5-3.42-0.44
			c-0.08,1.11-0.01,2.5-0.07,3.61c-0.06,1.11,0.4,2.24,0.37,3.35c-0.03,1.11-0.25,2.03-0.26,3.14c1.57,0.01,3.01-0.18,4.62-0.11
			c0.91,0.04,1.97,1.19,1.93,2.1c-0.05,1.27-1.49,1.39-3.14,1.53c-1.01,0.09-2.28-0.08-3.66,0.01c-1.03,0.18-1.83,0.43-2.8,0.34
			c-0.82-0.08-1.72-0.28-2.89-0.33c-0.82-0.03-1.76,0.33-2.9,0.41c-0.17,0.01-1.5,0.15-3.34,0.25c-1,0.05-2.14,0.19-3.34,0.26
			c-1.11,0.07-2.25,0.09-3.36,0.17c-1.2,0.09-2.4-0.43-3.4-0.34c-1.65,0.16-2.75,0.96-3.15,1.14c-0.64,0.28-1.42,0.12-2.11,0.18
			c-1.03,0.08-2.01-0.16-3.02-0.41c-0.88-0.21-1.77-0.16-2.67-0.12c-1.27,0.06-2.49-0.37-3.62-0.32c-1.28,0.06-2.47,0.39-3.59,0.44
			c-1.3,0.06-2.49,0.02-3.59,0.08c-1.33,0.06-2.51,0.47-3.57,0.52c-1.4,0.06-2.59-0.03-3.58,0.01c-1.64,0.07-2.77,0.03-3.56,0.06
			c-3.25,0.13-0.5-0.26-3.52-0.1c-0.83,0.05-1.93,0.08-3.09,0.14c-1.04,0.05-2.12,0.76-3.12,0.75c-1.28,0-2.46-0.15-3.14-0.34
			c-0.98-0.27-1.96-0.72-3.01-0.65c-1,0.06-2.01,0.47-3.04,0.68c-1.01,0.2-2.07,0.14-3.07,0.33c-1.04,0.19-1.96,0.62-2.95,0.64
			c-0.4,1.45-1.68,0.94-3.32,0.2c-1.02-0.46-2.14-1.21-3.52-1.23c-1.32,0.01-2.56,0.41-3.69,0.42c-1.39,0.01-2.63,0.08-3.68,0.09
			c-2.2,0.02-3.55-0.09-3.64-0.09c-0.8,0-1.04-0.91-1.03-1.71c0-0.9,0.02-1.78,1.85-2.05c0.78-0.12,1.86,0.16,3.19,0.09
			c0.9-0.04,1.94-0.17,3.15-0.21c0.96-0.03,2.35,0.38,3.52,0.35c-0.13-1.17-0.4-2.63-0.38-3.8c0.02-1.17,0.39-2.32,0.49-3.49
			c0.09-1.17-0.47-2.11-0.37-3.28c-1.19,0.02-2.14,0.19-3.42,0.21c-1.19,0.02-2.44-0.36-3.71-0.34c-1.2,0.03-2.44,0.35-3.71,0.38
			c-1.21,0.03-2.41-0.16-3.68-0.13c-0.58,1.02-0.91,2.13-1.49,3.15c-0.58,1.02-1.38,1.91-1.97,2.93c-0.59,1.02-1.29,1.96-1.88,2.98
			c-0.59,1.02-1.16,2.04-1.74,3.06c-0.59,1.02-1.52,1.83-2.11,2.85c-0.59,1.02-0.6,2.36-1.19,3.38c-0.59,1.02-1.15,1.86-1.74,2.87
			c0.92,0.44,1.48,1.19,2.4,1.63c0.92,0.44,1.78,0.98,2.68,1.45c0.9,0.47,1.96,0.63,2.84,1.14c0.88,0.51,1.93,1.37,2.77,1.95
			c0.85-1.4,1.53-2.67,2.08-3.45c1.63-2.31,1.87-2.18,2.61-1.72c0.64,0.4,0.69,0.92,0.32,1.64c-0.5,0.97-0.65,2.12-1.18,3.07
			c-0.53,0.95-1.25,1.83-1.76,2.79c0.21,1.44-0.55,2.95-1.76,3.4c-0.59,1.08-1.12,2.18-1.7,3.27c-0.58,1.08-1.02,2.24-1.61,3.32
			c-0.59,1.08-1.31,2.09-1.92,3.15c-0.61,1.04-1.31,2.02-1.9,3.07c-0.59,1.05-0.75,2.33-1.33,3.39c-0.58,1.06-1.92,1.77-2.49,2.83
			c-0.05,0.67-0.13,1.37-0.68,1.87c-0.45,0.84-0.69,1.81-1.13,2.65c-0.44,0.84-1.2,1.52-1.64,2.36c-0.44,0.84-1.01,1.61-1.45,2.45
			c-0.56,0.92-1.08,1.85-1.66,2.76c-0.58,0.91-0.83,2.03-1.42,2.94c-0.59,0.9-1.57,1.56-2.16,2.46c-0.59,0.91-1.12,1.86-1.7,2.77
			c-0.58,0.91-0.56,1.92-1.12,2.84c1.1,0.97,0.71,2.25,0.09,3.19c-0.61,0.91-1.67,1.74-2.88,1.64c-0.47,0.93-0.75,1.85-1.23,2.78
			c-0.48,0.93-1.19,1.74-1.68,2.67c-0.49,0.92-0.77,1.97-1.27,2.88c-0.5,0.92-1.31,1.68-1.83,2.59c0.83,0.84,0.93,2.07,0.63,3.12
			c-0.3,1.04-0.97,1.82-2.42,1.68c-0.36-0.03-0.72,0.03-1.08-0.01c-0.59,0.93-1.34,1.74-2.01,2.71c-1.13,1.65-3.18,0.46-2.34-1.35
			c0.24-0.52,0.09-1.06,0.34-1.57c-1.05-0.08-1.99-0.42-3.04-0.5c-1.04-0.09-2.09-0.12-3.14-0.22c-1.04-0.1-2.07-0.08-3.11-0.21
			c-0.45,0.91-1.16,1.65-1.6,2.56c-0.44,0.91-0.99,1.95-1.45,2.86c0.57,1.05,1.8,1.87,2.35,2.88c0.58,1.05,1.09,2.11,1.65,3.12
			c0.57,1.04,0.62,2.35,1.17,3.34c0.57,1.05,1.09,2.09,1.64,3.09c0.57,1.04,1.06,2.1,1.61,3.09c0.58,1.04,1.54,1.68,2.09,2.67
			c1.14-0.47,2.32-0.48,3.48-0.92c1.15-0.43,2.19-1.17,3.36-1.58c1.16-0.41,2.25-0.79,3.42-1.19c-0.52-0.98-0.9-1.93-1.4-2.89
			c-0.51-0.98-0.95-1.98-1.43-2.93c-0.5-0.99-0.98-1.97-1.45-2.92c-0.83-1.65,1.77-3.09,2.72-1.49c0.94,1.6,0.89,1.63,1.82,3.24
			c0.93,1.61,0.64,1.78,1.57,3.39c0.93,1.61,0.99,1.56,2.1,3.06c0.85,0.45,0.88,1.66,0.94,2.68c0.57,1.33,0.99,1.14,1.71,2.39
			c0.73,1.25,1.01,1.09,1.74,2.34c0.73,1.25,0.36,1.47,1.09,2.72c0.53,0.94,1.26,1.76,1.81,2.69c0.54,0.93,1.07,1.87,1.62,2.8
			c0.56,0.92,0.95,1.94,1.52,2.86c0.57,0.92,1.15,1.83,1.72,2.74c0.58,0.91,1.54,1.57,2.13,2.48c0.58,0.91,0.78,2.06,1.37,2.96
			c0.59,0.9,1.16,1.81,1.76,2.71c0.54,0.93,0.92,1.95,1.44,2.9c0.52,0.94,1.54,1.62,2.06,2.56c0.51,0.95,0.52,2.17,1.04,3.12
			c0.52,0.95,1.19,1.81,1.72,2.75c0.53,0.94,0.82,2.03,1.37,2.95c0.55,0.93,1.5,1.61,2.09,2.52c0.58,0.91,1.26,1.74,1.88,2.63
			c0.64,0.9,1,1.94,1.59,2.76c0.64,0.91,1.04,1.91,1.61,2.73c0.64,0.92,1.35,1.7,1.92,2.51c0.65,0.94,1.73,1.48,2.28,2.29
			c0.66,0.96,0.93,2.05,1.45,2.84c0.67,1.01,1.46,1.75,1.93,2.51c0.71,1.17,0.97,2.19,1.28,2.89c0.78,1.76,0.57,2.38-0.2,2.82
			c-0.48,0.27-1.1-0.06-1.56-0.27c-0.23,0.36-0.35,1.06-0.81,1.33c-0.91,0.53-2.08,0.63-3,1.15c-0.92,0.53-1.56,1.52-2.48,2.05
			c-0.92,0.53-1.78,0.8-2.69,1.33c0.7,1.06,1.45,1.94,2.17,3.05c0.69,1.05,1.1,2.36,1.83,3.49c1.12-0.02,2.27,0.19,3.35,0.17
			c1.13-0.02,2.23-0.14,3.32-0.16c1.13-0.01,2.25,0.23,3.34,0.22c1.12-0.01,2.23-0.13,3.31-0.14c1.13-0.01,2.23-0.46,3.31-0.47
			c1.12-0.01,2.22-0.23,3.3-0.24c1.12-0.01,2.34,0.44,3.42,0.43c0.07-0.89,0.09-1.92,0.15-2.82c0.05-0.89,0.16-1.79,0.17-2.68
			c0-0.44-0.15-0.38-0.01-0.72c-1.22,0.05-2.23-0.43-3.25-0.39c-1.26,0.04-2.37-0.08-3.35-0.07c-1.38,0.01-2.51,0.4-3.4,0.31
			c-1.87-0.18-2.59-0.79-2.59-1.6c-0.01-0.76,0.47-1.55,1.22-1.62c1.15-0.09,2.28-0.12,3.38-0.2c1.15-0.09,2.29-0.02,3.39-0.1
			c1.15-0.09,2.28-0.1,3.38-0.18c1.15-0.09,2.3,0.05,3.39-0.03c1.16-0.08,2.27-0.38,3.36-0.45c1.16-0.08,2.3,0.07,3.4-0.01
			c1.16-0.08,2.27-0.43,3.36-0.5c1.16-0.08,2.28-0.19,3.37-0.26c1.17-0.07,2.31,0.19,3.4,0.13c1.18-0.07,2.3-0.24,3.38-0.3
			c1.18-0.06,2.28-0.57,3.36-0.62c1.19-0.06,2.31-0.12,3.38-0.16c1.19-0.05,2.31-0.08,3.37-0.11c1.2-0.04,2.33-0.13,3.38-0.15
			c1.23-0.03,2.37,0.24,3.41,0.22c1.23-0.02,2.34-0.1,3.37-0.11c1.25,0,2.35,0.07,3.37,0.08c1.23,0.01,2.32-0.3,3.36-0.29
			c1.14,0.01,2.21-0.08,3.33-0.09c1.05-0.01,2.14,0.32,3.36,0.26c1.02-0.06,2.15,0.2,3.4,0.09c1.14-0.1,2.18-0.84,3.22-0.93
			c1.15-0.1,2.23-0.32,3.26-0.4c1.16-0.09,2.28,0.19,3.3,0.12c1.19-0.09,2.28-0.21,3.29-0.27c1.21-0.08,2.31,0.05,3.29,0.01
			c1.26-0.06,2.34-0.61,3.27-0.61c1.4,0,2.49,0.22,3.29,0.33c1.94,0.27,2.36,1.11,2.34,2c-0.02,0.75-0.23,1.57-2.6,2
			c-0.84,0.15-2.02-0.33-3.5-0.22c-0.98,0.07-2.1,0.14-3.43,0.2c-1.04,0.04-2.17,0.72-3.44,0.75c-1.06,0.03-2.22-0.32-3.47-0.3
			c-1.09,0.01-2.24,0.14-3.48,0.15c-0.02,1.05-0.04,2.1-0.09,3.15c-0.04,1.05-0.07,2.1-0.13,3.15c-0.06,1.05-0.1,2.05-0.15,3.1
			c0.98-0.06,1.97-0.42,3.15-0.5c0.98-0.07,2.04-0.12,3.19-0.21c1-0.07,2.09,0.18,3.23,0.1c1.01-0.08,2.1,0.06,3.23-0.03
			c1.02-0.08,2.07-0.44,3.21-0.53c1.03-0.08,2.08-0.34,3.21-0.43c1.03-0.08,2.13,0.11,3.24,0.02c1.04-0.08,2.14,0.07,3.26-0.02
			c1.05-0.08,2.21-0.33,3.33-0.42c0.49-0.93,0.45-2.24,0.92-3.18c0.47-0.94,1.33-1.69,1.79-2.63c0.46-0.95,0.66-2.01,1.11-2.96
			c0.45-0.95,1.49-1.63,1.93-2.58c0.44-0.96,0.62-2.03,1.05-2.99c0.43-0.96,0.75-1.97,1.17-2.93c0.42-0.96,0.5-1.77,0.91-2.74
			c-1.04-0.51-1.53-1.58-2.57-2.11c-1.04-0.52-2.48-0.24-3.52-0.76c-1.04-0.52-1.87-1.4-2.92-1.89c-0.63,1.05-1.16,2.16-1.83,3.22
			c-0.66,1.03-1.55,1.94-2.25,2.99c-0.68,1.01-1.55,1.92-2.29,2.96c-1.06,1.51-3.36,0.05-2.41-1.55c0.53-0.89,1.43-1.57,1.95-2.46
			c0.52-0.9,0.95-1.85,1.46-2.75c0.51-0.9,0.62-2.03,1.12-2.94c0.51-0.91,1.55-1.54,2.05-2.45c0.11-0.65,0.18-1.39,0.68-1.88
			c0.66-1.2,1.15-2.49,1.8-3.7c0.65-1.21,1.48-2.32,2.13-3.53c0.51-0.95,0.81-2.02,1.3-2.98c0.49-0.96,1.02-1.91,1.5-2.88
			c0.48-0.97,0.89-1.97,1.36-2.95c0.46-0.98,1.06-1.89,1.51-2.88c0.45-0.98,1.38-1.75,1.82-2.74c0.44-0.99,0.95-1.95,1.39-2.94
			c0.43-0.99,0.87-1.97,1.3-2.97c0.55-1.1,0.32-2.54,0.83-3.56c0.56-1.11,1.05-2.2,1.56-3.22c0.55-1.12,1.55-1.95,2.05-2.97
			c0.55-1.13,0.88-2.29,1.37-3.31c0.55-1.13,1.2-2.13,1.68-3.13c0.55-1.14,0.81-2.27,1.27-3.26c0.03-0.89,0.33-1.91,0.99-2.45
			c0.48-1.04,1.33-1.71,1.73-2.58c0.48-1.06,0.61-2.12,0.99-2.97c0.47-1.08,1.08-1.92,1.44-2.77c0.45-1.07,1.07-1.88,1.45-2.75
			c0.41-0.95,0.38-2.03,0.84-2.99c0.4-0.84,1.19-1.55,1.74-2.58c0.43-0.81,1.1-1.61,1.69-2.64c0.99-1.76,3.28-0.71,2.58,1.17
			c-0.39,1.05-0.9,2.06-1.32,3.1c-0.42,1.04-0.55,2.21-1,3.24c-0.45,1.03-0.81,2.1-1.28,3.12c-0.47,1.02-0.89,2.07-1.38,3.08
			c-0.49,1.01-1,2.02-1.5,3.02c-0.5,1.01-1.17,1.79-1.68,2.79c1.22,0.42,2.39,0.66,3.59,1.13c1.19,0.48,2.13,1.57,3.31,2.08
			c1.18,0.51,2.58,1.13,3.75,1.65c0.55-0.92,0.75-2.45,1.34-3.45c0.55-0.93,1.49-1.67,2.08-2.67c0.55-0.93,0.89-2.03,1.48-3.03
			c0.55-0.94,1.13-1.9,1.72-2.89c0.55-0.94,1.33-1.78,1.91-2.78c0.56-0.94,1.44-1.73,2.03-2.72c0.56-0.95,0.57-2.24,1.15-3.24
			c0.56-0.95,1.68-1.6,2.27-2.6c0.56-0.95,0.72-2.15,1.3-3.15c-0.48-1.71-1.15-1.39-2.02-2.94c-0.87-1.55-0.3-1.86-1.18-3.41
			c-0.87-1.55-1.53-1.19-2.4-2.74c-0.88-1.56-0.6-1.71-1.47-3.27c-0.88-1.56-1.14-1.46-1.78-3.13
			C245.85,133.48,246.4,133.06,245.06,131.87z M95.43,103.66c0.92-0.51,1.68-0.9,2.47-0.97c1.1-0.11,2.06,0.12,2.72-0.05
			c1.24-0.17,2.15-1.57,3.18-2.28c0.46-0.15,0.56,0.18,1.04,0.12c0.97-0.31,2.06,0.39,3.23,0.7c1,0.27,1.98,0.68,2.99,1.24
			c0.97,0.53,1.8,1.25,2.66,1.9c0.97,0.73,2.11,1.13,2.77,1.81c0.59,0.63,1.3,1.23,1.85,1.99c0.58,0.71,1.68,1.19,2.33,2.03
			c0.63,0.83,0.05,1.93,0.04,2.77c-0.01,0.93,0.13,1.83-0.12,2.63c-0.39,1.02-0.41,2.18-0.85,3.1c-0.47,0.98-1.14,1.88-1.74,2.7
			c-0.63,0.86-1.3,1.82-2.16,2.44c-0.81,0.57-1.88,1.07-2.97,1.38c-0.92,0.26-2.08-0.39-3.25-0.35c-0.82,0.03-1.46,0.03-2.04-0.46
			c-0.04-0.03-0.23,0.19-0.26,0.16c-0.53-0.46-0.97-0.97-1.48-1.29c-0.27-0.13-0.44-0.47-0.69-0.57c-0.17-0.11-0.55,0.2-0.33,0.17
			c0.09-0.19-0.43-0.1-0.57-0.26c-1.1-0.85-1.86-0.92-2.98-0.56c-1.03,0.33-2.08,0.63-3.3,0.28c-1.18,0.1-0.93-1.65-1.63-1.99
			c-0.66-0.82-0.75-1.88-1.12-2.71c-0.41-0.93-1.32-1.63-1.56-2.53c-0.26-0.97-0.15-1.99-0.45-2.87c-0.26-1.16-0.44-2.4-0.5-3.89
			c0.03-0.79,0.5-1.6,1.02-2.57C94.11,104.96,94.48,104.23,95.43,103.66z M194.53,188.22c-0.36,0.35-0.01-0.8,0.49-0.75
			c-0.16,0.96-0.46,1.88-0.71,2.87c-0.24,0.93-0.02,2.06-0.39,3.03c-0.45,1.06-1.02,2.06-1.56,2.93c-0.6,0.96-1.77,1.41-2.51,2.14
			c-0.78,0.77-1.57,1.35-2.54,1.83c-0.93,0.46-1.89,0.62-3.01,0.8c-0.99,0.16-2,0.65-3.17,0.58c-1.38-0.09-2.42-0.19-3.35-0.39
			c-1.09-0.23-2.06-0.21-3.3-0.32c-0.91-0.08-1.96-0.95-3.34-0.83c-0.94,0.08-1.99,0.64-3.28,0.86c-0.98,0.16-2.01,0.79-3.26,1.05
			c-1.33,0.19-2.29,0.32-3.13,0.62c-1.08,0.39-1.87,1.01-2.95,1.36c-0.85,0.28-1.93,0.5-3.27,0.61c-0.9,0.08-1.98-0.72-3.27-0.76
			c-1.04-0.03-2.07,0.14-3.13,0.04c-1.02-0.1-2.09,0.07-3.16-0.06c-1.2-0.21-2.37-0.6-3.7-0.91c-1.1-0.26-2.15-0.8-3.45-1.45
			c-1.41-0.7-2.6-1.94-3.27-3.24c-0.75-1.35-1.63-2.38-1.87-3.55c-0.18-1.04,0.2-2.13,0.13-3.1c-0.08-1.03-0.04-2.06-0.1-3.06
			c-0.42-1.1-1.09-2.13-1.42-3.25c-0.33-1.12-0.18-2.36-0.44-3.5c-0.26-1.14-1.03-1.97-1.21-3.12c-1.11-0.06-1.97-0.32-3.06-0.31
			c-1.11,0-2.21-0.08-3.31-0.01c-1.1,0.06-2.24-0.18-3.33-0.06c-1.09,0.12-2.08,0.75-3.17,0.92c0.07,1.09-0.3,2.14-0.3,3.21
			c0,1.1,0.33,2.19,0.23,3.25c-0.18,1.44,0.01,1.46-0.18,2.9c-0.19,1.44-0.33,1.42-0.52,2.87c-0.19,1.44,0.08,1.48-0.1,2.92
			c-0.15,1.33-0.29,2.42-0.36,3.39c-0.1,1.34-0.68,2.35-0.84,3.35c-0.18,1.08-0.58,1.95-1.15,3.11c-0.46,0.93-0.39,2.15-0.98,2.87
			c-0.65,0.8-1.48,1.45-2.21,2.04c-0.8,0.64-1.74,1.05-2.54,1.51c-0.91,0.52-1.83,0.89-2.62,1.29c-0.68,0.34-1.08,0.39-2.85,0.33
			c-0.7-0.03-1.63,0.11-2.88,0.11c-0.82-0.01-1.78-0.67-2.9-0.65c-0.02,0-0.02-0.03-0.05-0.02c-1.46,0.03-2.09-0.04-2.54-1.17
			c-0.3-0.75-0.43-1.78-0.51-3.26c-0.05-0.94-0.27-2.03-0.29-3.32c-0.02-1-0.26-2.11-0.29-3.34c-0.02-1.02-0.16-2.13-0.2-3.33
			c-0.04-1.05-0.04-2.17-0.1-3.37c-0.05-1.07,0.63-2.24,0.55-3.43c-0.12-1.54-0.41-3.09-0.6-4.63c-0.31-1.54-1.63-3.05-1.51-4.6
			c0.02-1.14,0.21-2.28,0.33-3.42c0.12-1.13,0.22-1.98,0.39-3.11c-1.28-0.13-2.29-0.09-3.57-0.11c-1.28-0.03-2.58-0.59-3.86-0.48
			c-1.27,0.11-2.71,0.17-3.98,0.45c-0.18,0.1,0.36,0.58,0.16,0.67c-1.18,0.08-2.82-0.43-3.9-1.68c-0.54-0.58-1.19-1.03-1.41-1.63
			c-0.23-0.65-0.44-1.09-0.5-1.96c-0.09-1.4,0.95-2.95,2.24-3.35c0.08-0.03,0.1,0.02,0.18,0c1.1-0.34,2.36-0.11,3.38-0.48
			c1.08-0.4,1.88-1.42,2.87-1.86c1.05-0.46,2.29-0.48,3.25-0.99c1.01-0.54,1.8-1.4,2.72-2c0.95-0.62,1.84-1.28,2.69-1.97
			c0.87-0.71,2.04-1.1,2.82-1.89c0.79-0.79,1.34-1.82,2.05-2.69c0.7-0.86,1.43-1.71,2.05-2.65c0.61-0.92,0.88-2.05,1.42-3.05
			c0.52-0.96,1.15-1.88,1.62-2.92c0.45-0.99,0.97-1.98,1.38-3.05c0.39-1.02,1.01-1.99,1.37-3.08c0.34-1.04,0.71-2.31,1.03-3.41
			c-0.64-0.08-2.15,0.26-3.59,0.2c-0.96-0.05-2.05-0.17-3.23-0.24c-1.03-0.06-2.09-0.53-3.2-0.62c-1.06-0.09-2.17,0.04-3.24-0.08
			c-1.09-0.13-2.13-0.57-3.17-0.75c-1.12-0.19-2.25-0.11-3.24-0.38c-1.14-0.31-2.26-0.55-3.12-0.98c-1.13-0.57-1.82-1.49-2.22-2.32
			c-0.42-0.86-0.71-2.02-0.05-3.21c1.03-1.88,2.91-1.9,3.38-2.05c1.22-0.12,2.39-0.12,3.45-0.22c1.23-0.12,2.43,0.43,3.48,0.33
			c1.25-0.12,2.3-1.05,3.31-1.14c1.31-0.12,2.46,0.15,3.43,0.08c1.41-0.1,2.51-0.26,3.41-0.29c1.49-0.05,2.41,0.58,3.36,0.66
			c0.94,0.08,1.91-0.15,3.4-0.04c0.89,0.06,1.96,0.43,3.35,0.47c0.97,0.03,2.1-0.72,3.4-0.71c1.01,0.01,2.14-0.01,3.4-0.01
			c1.04,0,2.17,0.4,3.4,0.39c1.06-0.01,2.22-0.33,3.44-0.35c1.04,0.15,2.09-0.1,4.51,1.4c1.31,0.97,2.1,2.63,2.18,3.58
			c0.09,1.19-0.33,2.5-0.59,3.79c-0.24,1.22-0.7,2.42-0.94,3.64c-0.2,1.09-0.42,2.16-0.7,3.2c-0.28,1.07-0.98,1.98-1.33,3
			c-0.36,1.04-0.15,2.29-0.58,3.28c-0.44,1-0.93,2-1.44,2.96c-0.52,0.96-1.53,1.63-2.11,2.55c-0.58,0.92-1.27,1.74-1.92,2.62
			c-0.65,0.87-1.03,1.94-1.74,2.78c-0.7,0.83-1.8,1.73-2.56,2.53c1.02,0.53,2.3,1.18,3.27,1.75c0.99,0.58,1.95,1.15,2.88,1.79
			c0.93,0.65,1.73,1.41,2.59,2.17c0.84,0.74,1.81,1.19,2.57,2.06c-0.04-1.15,0.08-2.08,0.12-3.04c0.05-1.18,0.09-2.22,0.35-3.12
			c0.31-1.08,0.78-2.01,1.56-2.7c0.69-0.61,1.58-1.24,2.77-1.55c0.88-0.23,1.99-0.24,3.2-0.31c0.2,0.06-0.21,0.42-0.04,0.54
			c1.03,0.32,2.1-0.03,3.15-0.04c1.06-0.01,2.2,0.68,3.23,0.47c1.06-0.22,2.04-0.79,3.01-1.09c1.09-0.34,2.05-0.92,2.98-1.18
			c1.22-0.34,2.24-0.18,3.03,0.02c0.53,0.16,1,0.62,1.53,0.79c0.53,0.17,1.15,0.1,1.68,0.13c1.58,0.06,1.6-0.34,3.18-0.28
			s1.56,0.52,3.15,0.58c0.86,0.02,1.73-0.03,2.62,0.03c0.86,0.05,1.72-0.53,2.61-0.42c0.57-0.24,1.2,0.07,1.71,0.49
			c0.03,0.02,0.09-0.14,0.11-0.12c1.18,0.22,2.32,0.19,3.47,0.24c1.17,0.04,2.32,0.26,3.49,0.19c1.15-0.07,2.28-0.43,3.46-0.56
			c1.14-0.12,2.33,0.09,3.52-0.02c1.13-0.1,2.3-0.01,3.51-0.05c0.07,0,0.07-0.11,0.14-0.12c0.74-0.02,1.9,0.23,3.14,0.88
			c0.9,0.47,1.7,1.27,2.56,2.06c0.79,0.73,1.35,1.62,1.92,2.59c0.55,0.93,1.42,1.75,1.61,2.89c0.17,1.02-0.12,2.12-0.36,3.29
			c-0.2,0.99-0.52,2.03-1.09,3.12c-0.02,1.13,0.17,2.24,0.26,3.31c0.09,1.12-0.11,2.23-0.01,3.3c0.11,1.11,0.13,2.18,0.15,3.26
			c0.02,1.09,0.69,2.23,0.51,3.33C195.8,186.34,194.97,187.15,194.53,188.22z M133.92,126.28c0-0.05-0.22-0.04-0.23-0.09
			c-0.04-1.68,1.27-2.95,2.94-2.99c0.03,0,0.03-0.54,0.06-0.54c1.38,0,2.56,0.04,3.59,0.02c1.46-0.03,2.64,0.58,3.61,0.52
			c1.48-0.09,2.54-0.22,3.57-0.33c1.05-0.11,2.08-0.09,3.55-0.18c1.39-0.14,2.54-0.68,3.57-0.72c1.47-0.06,2.64-0.11,3.6-0.01
			c1.42,0.15,2.56,0.2,3.61,0.57c0.99,0.35,1.72,1.58,3.1,1.99c1.25,0.39,2.53,0.13,3.62,0.11c1.23-0.01,2.28-0.63,3.4-0.92
			c1.16-0.29,2.3-0.53,3.43-0.83c1.12-0.3,2.32-0.74,3.52-0.77c0.82-0.01,1.95-0.13,3.29-0.08c0.97,0.04,1.91,0.99,3.08,1.37
			c0.93,0.3,1.97,0.5,3,1.16c1.05,0.67,2.11,1.58,2.69,2.78c0.62,1.27,0.67,2.71,0.55,3.84c-0.1,1.9-0.84,3.16-1.43,4.37
			c-0.07,1.19-0.09,2.42-0.23,3.72c-0.18,1.33,0.27,2.55,0.02,3.44c-0.39,1.38-1.33,2.13-1.9,2.83c-0.71,0.87-1.6,1.29-2.64,1.93
			c-0.8,0.49-1.53,1.3-2.56,2.12c-1.17,0.81-2.31,0.94-3.19,1.27c-1.13,0.43-2.05,1.18-3.27,1.11c-0.96-0.05-2.03-0.53-3.4-0.7
			c-0.97-0.12-2.07-0.37-3.38-0.48c-1.01-0.09-2.13-0.51-3.41-0.56c-1.05-0.04-2.21,0.44-3.46,0.43c-1.06,0-2.22-0.42-3.45-0.38
			c-1.08,0.03-2.22,0.47-3.44,0.54c-0.83-0.22-1.95-0.03-3.26,0.07c-1.01,0.07-2.13,0.06-3.3,0.19c-1.07,0.12-2.17,0.52-3.29,0.61
			c-1.12,0.09-2.28,0.09-3.37,0.06c-1.16-0.03-2.21-0.66-3.22-0.93c-1.12-0.3-1.93-0.84-2.73-1.56c-0.76-0.69-1.95-1.23-2.29-2.42
			c-0.26-0.92-0.29-2.19-0.24-3.47c0.51-0.67,0.55-0.28,1.43-1.67c0.52-0.91,0.65-1.74,0.46-2.51c-0.18-0.98-0.82-1.8-1.42-2.84
			c-0.47-0.81-1.15-1.68-1.52-2.81c-0.31-0.71,1.06-1.66,1.18-2.46C134.4,128.71,133.97,128.66,133.92,126.28z M193.25,116.14
			c0.02,0,0.36,0.12,0.48,0.05c0.54-0.49,0.4-0.35-0.08-0.11c-0.26,0.23-0.32,1-0.9,1.45c-1.08,0.9-3.4,1.39-4.4,1.26
			c-0.98-0.09-0.93-0.74-1.91-0.8c-1.31-0.05-2.65-0.14-3.96-0.13c-1.3,0.01-2.73,0.01-4.02,0.39c-1.01,0.45-1.88,1.16-2.9,1.3
			c-1.05,0.15-2.12,0.25-3.18,0.19c-1.05-0.06-2.16,0.07-3.21-0.09c-1.05-0.16-1.97-1.18-3.02-1.32c-1.05-0.14-2.17,0.18-3.22,0.17
			c-1.05-0.01-2.09,0.41-3.13,0.43c-1.04,0.01-2.09-0.11-3.13-0.08c-1.04,0.03-2.08,0.26-3.12,0.31c-1.04,0.04-2.08,0.07-3.13,0.13
			s-2.13-0.7-3.17-0.63c-1.96,0.1-1.94,0.34-3.9,0.43c-1.96,0.09-1.94,0.38-3.9,0.47c-1.03,0.03-2.12-0.25-3.24-0.31
			c-1.08-0.06-2.14-0.34-3.21-0.47c-1.12-0.13-2.04-0.13-3.04-0.31c-0.16-1.3-1.03-2.88-1.05-4.53c0-0.06,0.5-0.06,0.5-0.12
			c-0.01-1.12,0.81-1.87,1.93-1.88c0.02,0,0.02-0.31,0.03-0.31c0.9,0.01,1.9,0.24,2.8-0.05c0.85-0.28,1.46-1.29,2.31-1.65
			c0.87-0.37,1.87-0.44,2.75-0.57c0.87-0.49,1.78,0.79,2.66,0.92c1.21,0.1,2.37,0.51,3.48,0.54c1.2,0.03,2.36-0.49,3.48-0.55
			c1.18-0.06,2.37,0.27,3.5,0.12c1.15-0.14,2.23-0.71,3.37-0.92c1.12-0.21,2.2-0.65,3.34-0.92c1.1-0.26,2.24-0.4,3.4-0.71
			c1.3-0.34,2.38-0.81,3.34-0.91c1.35-0.14,2.5-0.06,3.5,0.01c1.15,0.08,2.18,0.72,3.38,0.69c0.35-0.03,0.33,0.05,0.68,0.04
			c0.47,0.09,0.69-0.55,1.15-0.51c0.71-1,1.51-1.77,2.3-2.53c0.88-0.84,1.94-1.43,2.88-1.99c1.04-0.61,2.15-0.99,3.22-1.29
			c1.15-0.31,2.31-0.55,3.43-0.52c1.17,0.03,2.4,0.07,3.48,0.43c1.1,0.37,1.82,1.48,2.75,2.16c0.93,0.67,1.65,1.42,2.34,2.35
			c0.67,0.91,1.38,1.74,1.77,2.86c0.36,1.05,0.6,2.03,0.66,3.24c-0.75,1.28-0.8,1.24-1.88,2.27
			C194.4,115.18,194.27,115.05,193.25,116.14z"/>
	</g>
	<g>
		<path class="st3" d="M226.78,177.63c-0.46,1-0.91,2.02-1.34,3.02c-0.43,1.01-0.87,2.01-1.28,3.03c-0.41,1.01-0.76,2.05-1.17,3.07
			c-0.41,1.02-0.83,2.03-1.24,3.04c-0.41,1.02-0.8,2.04-1.22,3.05c-0.42,1.01-0.91,1.99-1.36,2.99c-0.49,0.91-0.94,1.79-1.39,2.64
			c-0.47,0.89-0.87,1.78-1.33,2.66c0.18,0.06,0.31,0.07,0.49,0.18c1.11,0.61,2.25,1.16,3.38,1.71c1.14,0.55,2.28,1.11,3.43,1.65
			c0.5-1.11,0.93-2.06,1.42-3c0.46-0.89,0.95-1.81,1.59-2.9c0.48-0.82,1.04-1.73,1.7-2.82c0.5-0.83,1.13-1.72,1.77-2.78
			c0.52-0.85,1.04-1.82,1.67-2.85c0.53-0.87,1.05-1.83,1.67-2.84c0.54-0.89,1.16-1.81,1.78-2.82c0.54-0.9,1.11-1.86,1.72-2.88
			c-1.12-0.5-2.24-1.04-3.37-1.52c-1.13-0.48-2.28-0.92-3.43-1.36C229.11,178.45,227.95,178.02,226.78,177.63z"/>
	</g>
	<g>
		<path class="st3" d="M214.02,206.31c-0.1-0.05-0.12-0.16-0.21-0.22c-0.55,1.06-1.06,2.1-1.59,3.12c-0.54,1.05-1.08,2.07-1.61,3.08
			c-0.55,1.05-1.13,2.06-1.67,3.08c-0.55,1.03-1.05,2.07-1.59,3.08c-0.55,1.02-1.16,2.02-1.72,3.02c0.98,0.46,1.99,0.93,2.96,1.42
			c0.97,0.49,1.94,1,2.91,1.49c0.97,0.5,1.93,0.98,2.91,1.46c0.5-1.12,1.01-2.16,1.46-3.17c0.51-1.13,0.98-2.19,1.42-3.19
			c0.51-1.14,0.93-2.22,1.36-3.2c0.51-1.16,1.01-2.2,1.43-3.17c0.51-1.18,0.93-2.23,1.33-3.16c-1.24-0.59-2.47-1.19-3.71-1.79
			C216.47,207.56,215.22,206.97,214.02,206.31z"/>
	</g>
	<path class="st0" d="M107.99,117.11c0,0,2.31-0.07,4.98,2.31c4.76-0.14,7.29-2.66,7.15-7.57c-0.14-4.76-2.81-7.28-12.55-9.32
		c-4.76,0.14-7.36,0.21-7.15,7.43C100.56,114.87,103.23,117.25,107.99,117.11z"/>
</g>
</svg>
