<?xml version="1.0" encoding="utf-8"?>
<!-- Generator: Adobe Illustrator 26.0.2, SVG Export Plug-In . SVG Version: 6.00 Build 0)  -->
<svg version="1.1" id="Layer_1" xmlns="http://www.w3.org/2000/svg" xmlns:xlink="http://www.w3.org/1999/xlink" x="0px" y="0px"
	 viewBox="0 0 1125 885" style="enable-background:new 0 0 1125 885;" xml:space="preserve">
<style type="text/css">
	.st0{fill:#3D3A3D;}
	.st1{fill:#F6CB6D;}
	.st2{fill:#83B585;}
	.st3{fill:#F2EEDA;}
	.st4{fill:#2F2C2E;}
	.st5{fill:#E9605F;}
	.st6{clip-path:url(#SVGID_00000112607072315158099040000001625736925166226853_);fill:#F9D8DF;}
	.st7{clip-path:url(#SVGID_00000112607072315158099040000001625736925166226853_);}
	.st8{opacity:0.1091;fill:#EDAD7B;}
	.st9{clip-path:url(#SVGID_00000095334469792652017720000000807398475003067785_);fill:#F9D8DF;}
	.st10{clip-path:url(#SVGID_00000095334469792652017720000000807398475003067785_);}
	.st11{clip-path:url(#SVGID_00000101789887315124347770000000710145893035681446_);fill:#F9D8DF;}
	.st12{clip-path:url(#SVGID_00000101789887315124347770000000710145893035681446_);}
	.st13{clip-path:url(#SVGID_00000165927281342653789670000017766909909898237583_);fill:#F9D8DF;}
	.st14{clip-path:url(#SVGID_00000165927281342653789670000017766909909898237583_);}
	.st15{fill:#90DCE1;}
	.st16{fill:#FFFFFF;}
	.st17{fill:#FFD873;}
	.st18{fill:#BFC672;}
	.st19{fill:#E95B54;}
	.st20{fill:#FFF2DE;}
	.st21{clip-path:url(#SVGID_00000044143204051833427560000001899929625433452960_);fill:#FBE3DE;}
	.st22{fill:#ED635B;}
	.st23{clip-path:url(#SVGID_00000114075116620792648710000017179576377731748240_);}
	.st24{opacity:0.1091;fill:#F69F9A;}
	.st25{fill:#FAC9BB;}
</style>
<g>
	<path class="st0" d="M422.28,274.44c-0.11,4.49,0.1,8.97-0.57,13.43c-0.06,2.24,0.24,4.52-0.12,6.78c-0.26,2.26-0.5,4.57-0.09,6.86
		c0.08,0.47,0.54,0.78,1.01,0.7c0.4-0.07,0.69-0.4,0.72-0.78c0.2-2.22,0.09-4.43,0.11-6.68c-0.08-2.25,0.61-4.47,0.83-6.74
		c-0.08-4.56,0.18-9.12-0.37-13.65c-0.05-0.41-0.43-0.71-0.85-0.66C422.57,273.75,422.29,274.07,422.28,274.44z"/>
	<g>
		<path class="st1" d="M421.2,304.72c0,0,4.83-2.72,8.1,7.1c1.4,4.22,3.21,13.55,3.08,21.8l-3.81,0.2l-2.88-19.02l0.48,19.51
			l-2.72,0.45l-0.93-15.19l-1.53,15l-3.01,0.22l0.03-19.19l-2.88,19.34l-2.4-0.05c0,0-0.86-15.04,2.07-25.26
			C416.01,305.38,417.95,304.59,421.2,304.72z"/>
		<path class="st2" d="M417.33,304.95c1.18,2.64,4.31,3.84,7,2.69c2.69-1.15,3.91-4.23,2.74-6.86c-1.18-2.64-4.31-3.84-7-2.69
			C417.38,299.24,416.15,302.31,417.33,304.95z"/>
		<path class="st3" d="M416.78,305.78c-1.64,1.93-2.42,4.42-2.98,6.83c-0.57,2.43-0.96,4.9-1.24,7.37c-0.3,4.96-0.5,9.96,0.16,14.9
			c0.09-4.96,0.1-9.91,0.7-14.82c0.18-2.46,0.47-4.92,0.94-7.34C414.89,310.33,415.43,307.89,416.78,305.78z"/>
		<path class="st3" d="M418.08,316.57c-0.61,6.05-0.64,12.12-0.1,18.21C418.59,328.72,418.62,322.65,418.08,316.57z"/>
		<path class="st3" d="M422.66,319.83c-0.36,2.47-0.13,5.04-0.06,7.51c0.29,2.47,0.38,4.98,0.85,7.42c0.14-2.53-0.11-5-0.14-7.5
			C422.98,324.76,422.93,322.34,422.66,319.83z"/>
		<path class="st3" d="M425.88,314.69c0.36,6.45,1.26,12.8,2.69,19.13C428.21,327.39,427.31,320.99,425.88,314.69z"/>
	</g>
	<path class="st0" d="M238.1,298.69c0.13,3.21,0.81,6.36,0.9,9.59c0.3,1.58,1.02,3.1,1.03,4.72c0.11,1.61,0.17,3.23,0.7,4.76
		c0.15,0.45,0.65,0.69,1.1,0.54c0.35-0.12,0.58-0.43,0.59-0.77l0-0.1c0.07-1.63-0.32-3.17-0.66-4.72c-0.44-1.54-0.17-3.19-0.32-4.76
		c-0.82-3.09-1.04-6.26-1.82-9.38l-0.02-0.09c-0.1-0.4-0.51-0.65-0.92-0.55C238.32,298.02,238.09,298.35,238.1,298.69z"/>
	<path class="st0" d="M67.72,267.16c0.39,2.7,1.32,5.26,1.66,7.96c0.43,1.29,1.26,2.47,1.4,3.83c0.23,1.34,0.43,2.69,1.07,3.92
		c0.22,0.43,0.76,0.6,1.19,0.38c0.32-0.16,0.49-0.48,0.48-0.81c-0.06-1.38-0.58-2.65-1.05-3.93c-0.56-1.25-0.43-2.69-0.71-4.01
		c-1.07-2.52-1.55-5.19-2.57-7.73c-0.16-0.39-0.6-0.58-1-0.42C67.86,266.48,67.67,266.82,67.72,267.16z"/>
	<path class="st4" d="M52.92,123.43c59.22,14.85,119.97,24.49,181.14,26.45c61.14,1.89,122.51-2.77,182.54-14.4
		c30.11-5.37,59.7-13.15,89.1-21.39c29.19-8.95,58.18-18.63,86.46-30.06c56.53-22.82,112.51-47.01,167.14-73.94
		c0.43-0.21,0.6-0.72,0.38-1.14c-0.21-0.41-0.73-0.58-1.15-0.38C703.5,34.53,648.31,60.38,591.38,82.11
		c-56.74,22.05-115.26,39.89-175.19,51.28c-59.83,11.87-121.08,16.43-182.06,14.57c-61.01-1.96-121.66-11.29-180.82-25.99
		c-0.41-0.11-0.83,0.13-0.94,0.53C52.26,122.91,52.51,123.32,52.92,123.43z"/>
	<path class="st4" d="M397.58,139.31c0.3,4.36,1.16,8.64,1.42,13c0.39,2.15,1.19,4.23,1.29,6.42l0.3,3.26l0.29,1.61l0.08,0.42
		l0.07,0.27c0.08,0.11-0.08,0.03,0.33,0.46c0.17,0.1,0.3,0.28,0.91,0.17c0.59-0.27,0.47-0.36,0.55-0.41
		c0.27-0.55,0.15-0.53,0.18-0.71c0.01-0.41-0.29-1.36-1.29-1.47c-0.48-0.05-0.91,0.28-0.96,0.75c-0.05,0.47,0.29,0.89,0.76,0.94
		c-0.39-0.05-0.45-0.33-0.45-0.23c0.04-0.05-0.09,0.11,0.12-0.32c0.08-0.04-0.05-0.11,0.52-0.38c0.6-0.1,0.71,0.07,0.87,0.16
		c0.39,0.41,0.22,0.3,0.29,0.37c0.04,0.13,0.03,0.07,0.03,0.07l-0.04-0.38l-0.18-1.62l-0.64-3.21c-0.53-2.13-0.35-4.35-0.59-6.52
		c-1-4.26-1.4-8.61-2.35-12.88c-0.09-0.41-0.5-0.66-0.91-0.57C397.81,138.6,397.56,138.94,397.58,139.31z"/>
	<path class="st4" d="M243.66,149.28c-0.33,4.49-0.09,8.99-0.46,13.48c0.08,2.25,0.57,4.49,0.36,6.74
		c-0.12,2.25-0.29,4.49,0.02,6.74c0.06,0.47,0.5,0.8,0.98,0.74c0.4-0.05,0.7-0.36,0.75-0.74c0.3-2.25,0.13-4.49,0.01-6.74
		c-0.22-2.25,0.28-4.49,0.35-6.74c-0.38-4.49-0.15-8.99-0.48-13.48c-0.03-0.41-0.4-0.73-0.82-0.7
		C243.99,148.61,243.69,148.91,243.66,149.28z"/>
	<g>
		<polygon class="st1" points="444.73,256.59 449.46,278.52 403.91,288.02 398.33,266.3 		"/>
		<polygon class="st1" points="421.72,153 426.46,174.93 380.9,184.42 375.32,162.7 		"/>
		<path class="st5" d="M348.46,235.97c2.26,11.8,9.23,22.97,21.74,31.6c15.49,10.69,35.01,11.25,52.85,6.84
			c75.81-18.76,50.37-126.19-27.48-106.93C363.68,175.36,341.97,202.06,348.46,235.97z"/>
		<g>
			<defs>
				<path id="SVGID_1_" d="M348.46,235.97c2.26,11.8,9.23,22.97,21.74,31.6c15.49,10.69,35.01,11.25,52.85,6.84
					c44.57-11.03,54.14-52.7,38.65-81.26c-10.86-20.03-34.04-33.61-66.13-25.67C363.68,175.36,341.97,202.06,348.46,235.97z"/>
			</defs>
			<clipPath id="SVGID_00000180345005151567291400000014584428675617781182_">
				<use xlink:href="#SVGID_1_"  style="overflow:visible;"/>
			</clipPath>
			<path style="clip-path:url(#SVGID_00000180345005151567291400000014584428675617781182_);fill:#F9D8DF;" d="M470.93,171.78
				c-26.29,5.05-52.47,10.68-78.58,16.57c-26.04,6.19-52.07,12.4-77.91,19.37c-0.14,0.04-0.22,0.17-0.18,0.31
				c0.04,0.13,0.18,0.21,0.31,0.18c25.89-6.72,51.81-13.36,77.94-19.16c26.05-6.1,52.25-11.6,78.5-16.83
				c0.12-0.02,0.2-0.14,0.18-0.26C471.17,171.83,471.05,171.76,470.93,171.78z"/>
			<path style="clip-path:url(#SVGID_00000180345005151567291400000014584428675617781182_);fill:#F9D8DF;" d="M489.09,210.74
				c-26.45,6.42-53.1,12.05-79.9,16.9c-26.73,5.22-53.69,9.27-80.38,14.74c-0.14,0.03-0.23,0.16-0.2,0.3
				c0.03,0.13,0.16,0.22,0.3,0.19c26.72-5.22,53.6-9.71,80.41-14.53c26.77-5.07,53.46-10.56,79.88-17.17
				c0.12-0.03,0.19-0.15,0.16-0.27C489.33,210.78,489.21,210.71,489.09,210.74z"/>
			<path style="clip-path:url(#SVGID_00000180345005151567291400000014584428675617781182_);fill:#F9D8DF;" d="M483.66,179.71
				c-25.45,9.56-51.2,18.35-77.19,26.38c-25.88,8.39-52.12,15.66-77.93,24.3c-0.13,0.04-0.2,0.19-0.16,0.32
				c0.04,0.13,0.19,0.2,0.32,0.16c25.87-8.39,51.98-16.09,77.99-24.09c25.93-8.25,51.74-16.91,77.13-26.65
				c0.12-0.04,0.17-0.17,0.13-0.29C483.91,179.72,483.78,179.66,483.66,179.71z"/>
			<path style="clip-path:url(#SVGID_00000180345005151567291400000014584428675617781182_);fill:#F9D8DF;" d="M489.73,230.44
				l-179.57,20.6c-0.14,0.02-0.24,0.14-0.22,0.28c0.02,0.14,0.14,0.24,0.28,0.22l179.57-20.66c0.12-0.01,0.21-0.12,0.2-0.25
				C489.97,230.51,489.85,230.43,489.73,230.44z"/>
			<path style="clip-path:url(#SVGID_00000180345005151567291400000014584428675617781182_);fill:#F9D8DF;" d="M488.55,250.85
				c-27.99,4.96-56.05,9.49-84.23,13.25c-28.13,4.08-56.41,7.14-84.7,9.96c-0.14,0.01-0.24,0.14-0.23,0.27
				c0.01,0.14,0.14,0.24,0.28,0.22c28.33-2.57,56.55-6.08,84.75-9.75c28.15-3.98,56.25-8.38,84.21-13.53
				c0.12-0.02,0.2-0.14,0.18-0.26C488.78,250.91,488.67,250.83,488.55,250.85z"/>
			<g style="clip-path:url(#SVGID_00000180345005151567291400000014584428675617781182_);">
				<path class="st8" d="M445.16,255.25c-5.64,25.32-13.21,52.23-27.87,74.08c-4.1,6.12-9.81,14.04-14.7,19.58
					c-12.07,13.69-25.75,22.35-41.27,32.19c-3.35,2.13-13.76-23.24-7.49-27.39c15.77-15.2,31.54-30.4,47.31-45.59
					c5.79-9.68,10.39-19.86,13.8-30.53c4.52-12.47,8.74-25.29,10.39-38.46C426.24,231.98,446.4,249.67,445.16,255.25z"/>
				<path class="st8" d="M457.6,242.92c-7.12,29.67-15.79,58.12-34.3,83.13c-13.72,18.54-29.12,29.97-48.73,42.4
					c-3.25,2.06-4.58-13.73-4.71-15.01c-0.45-4.49-3.94-20.2,0.3-23.58c25.31-20.14,42.13-40.82,52.63-70.44
					c5.69-16.06,10.91-32.95,12.12-49.92c0.55-7.77,10.4,7.57,9.66,6.42C448.06,221.36,459.31,235.8,457.6,242.92z"/>
				<path class="st8" d="M461.28,229.01c-6.39,25.32-13.76,53.04-28.83,74.86c-3.98,5.77-10.73,14.56-15.45,19.76
					c-12.39,13.67-26.25,22.52-41.94,32.51c-5.15,3.28-8.94-5.25-5.05-7.81c7.2-4.75,14.41-9.51,21.61-14.26
					c22.96-18.97,38.91-41.7,47.85-68.2c5.29-13.84,9.35-27.96,13.02-42.29C454.19,216.97,462.49,224.22,461.28,229.01z"/>
				<path class="st8" d="M442.59,236.32c-5.7,25.37-12.86,50.72-26.65,73.18c-14.35,23.38-32.64,37.79-55.38,52.63
					c-4.06,2.65-8.6-20.11-8.55-19.91c-0.93-3.94-6.28-17.96-1.2-21.57c5.96-4.25,11.93-8.49,17.89-12.73
					c18.86-18.15,31.72-39.12,38.58-62.92c4.2-12.68,8.11-25.63,9.27-38.95c0.64-7.34,10.39,5.37,10.25,5.21
					C430.37,215.64,444.05,229.81,442.59,236.32z"/>
				<path class="st8" d="M451.01,229.84c-9.16,24.61-15.15,49.56-29.76,71.99c-15.25,23.4-34.67,37.97-58.01,52.79
					c-4.79,3.04-9.69-3.82-5.77-6.32c29.53-18.8,51.26-36.64,66.53-70.19c7.53-16.55,11.75-34.11,18.75-50.82
					C444.81,222.38,452.77,225.12,451.01,229.84z"/>
				<path class="st8" d="M469.4,238.23c-4.15,18.58-9.18,36.91-17.09,54.35c-6.5,15-15.11,28.73-25.82,41.19
					c-11.38,13.34-24.83,24.22-40.35,32.64c-6.19,4.13-5.66-12.97-2.15-15.69c6.62-5.14,13.24-10.28,19.85-15.42
					c15.3-13.59,26.01-30.18,32.12-49.77c10.47-21.26,18.59-37.43,22.42-60.06C460.06,215.61,470.48,233.38,469.4,238.23z"/>
				<path class="st8" d="M455.22,257.21c-5.79,25.57-13.24,50.99-27.35,73.51c-14.65,23.39-32.51,37.15-55.18,51.66
					c-7.16,4.59-10.07-21.14-6.19-23.91c13.6-7.88,25.2-17.98,34.8-30.3c7.29-8.98,13.16-18.73,17.61-29.26
					c8.88-18.54,16.33-38.79,18.44-59.28c0.57-5.58,7.39,1.18,8.1,1.86C448.29,244.26,456.26,252.61,455.22,257.21z"/>
				<path class="st8" d="M437.18,239.22c-3.95,9.58-5.91,19.54-9.08,29.38c-6.05,18.81-14.06,36.62-26.13,52.47
					c-13.92,18.29-29.53,29.85-49.02,42.32c-3.71,2.38-13-19.92-7.07-23.72c16.4-15.27,32.8-30.54,49.19-45.81
					c5.79-9.92,10.42-20.32,13.87-31.2c4.53-12.64,7.91-25.49,11.23-38.48C422.07,216.74,439.14,234.46,437.18,239.22z"/>
				<path class="st8" d="M464.03,230.03c-3.59,18.68-9.02,37.38-16.89,54.81c-6.5,14.91-15.09,28.57-25.77,40.96
					c-11.34,13.28-24.74,24.11-40.19,32.5c-6.41,4.28-6.88-14.03-3.27-16.8c16.99-12.99,31.4-25.79,43.37-43.75
					c9.43-12.41,15.58-26.43,18.45-42.04c7.26-12.37,11.42-25.45,12.48-39.25c0.46-3.84,2.89-3.44,5.55-2.13
					C460.48,215.68,464.58,227.19,464.03,230.03z"/>
				<path class="st8" d="M450.08,226.87c-4.7,25.55-12.86,51.42-26.77,73.7c-14.36,23-32.23,36.88-54.35,51.41
					c-7.12,4.68-10.51-21.99-6.61-24.82c23.41-17.05,40.84-34.54,53.17-60.84c9.04-19.27,16.84-40.24,18.67-61.49
					c0.53-6.16,8.04,3.69,7.96,3.58C445.08,212.86,451.13,221.15,450.08,226.87z"/>
				<path class="st8" d="M438.17,247.27c-6.06,25.1-13.21,51.88-27.82,73.65c-4.1,6.1-9.81,13.95-14.67,19.47
					c-12.01,13.65-25.52,22.34-40.94,32.23c-3.48,2.24-15.19-23.69-8.86-27.74c6.48-4.14,12.97-8.29,19.45-12.43
					c20.6-17.65,34.8-38.63,42.59-62.92c4.57-12.45,8.82-25.24,10.61-38.39C419.51,223.97,439.51,241.75,438.17,247.27z"/>
				<path class="st8" d="M466.66,246.16c-5.05,22.03-11.36,43.14-21.96,63.25c-5.17,11.08-11.91,21.23-20.2,30.43
					c-11.32,13.22-24.73,23.95-40.22,32.16c-6.58,4.33-6.18-18.64-2.35-21.67c19.87-15.74,36.15-30.98,47.88-53.78
					c11.55-22.47,20.19-47.03,23.54-72.03c0.8-5.97,7.59,4,7.46,3.79C463.53,232.68,467.88,240.83,466.66,246.16z"/>
			</g>
		</g>
		<path class="st3" d="M395.56,167.47c-15.08,4.03-29.58,12.12-39.12,24.66c-9.88,12.54-11.52,29.52-8.22,44.52
			c3.56,15.15,13.96,28.7,28.33,35.48c7.17,3.42,15.17,4.81,23.05,4.89c7.88,0.22,15.86-0.39,23.43-2.62
			c-7.79,1.03-15.55,2.35-23.41,2.01c-7.83-0.38-15.54-2.03-22.71-5.05c-14.5-6.1-24.57-20.01-27.99-34.86
			c-1.59-7.52-1.88-15.31-0.66-22.87c1.33-7.54,4.35-14.76,8.86-21.01C366.34,180.16,380.56,171.79,395.56,167.47z"/>
	</g>
	<path class="st0" d="M604.42,223.53c0.07,4.5,0.47,8.96-0.02,13.44c0.03,2.24,0.42,4.51,0.16,6.78c-0.17,2.27-0.31,4.59,0.19,6.86
		c0.1,0.46,0.57,0.76,1.04,0.66c0.4-0.08,0.67-0.42,0.69-0.8c0.11-2.23-0.09-4.43-0.16-6.68c-0.17-2.25,0.43-4.49,0.55-6.76
		c-0.26-4.55-0.2-9.12-0.93-13.62c-0.07-0.41-0.46-0.69-0.88-0.62C604.68,222.84,604.41,223.16,604.42,223.53z"/>
	<g>
		<path class="st1" d="M604.58,253.84c0,0,4.71-2.91,8.38,6.77c1.58,4.16,3.77,13.42,3.98,21.66l-3.8,0.35l-3.66-18.89l1.28,19.47
			l-2.7,0.56l-1.55-15.14l-0.92,15.04l-3,0.33l-0.76-19.17l-2.09,19.44l-2.4,0.05c0,0-1.48-15,1.03-25.32
			C599.43,254.7,601.33,253.83,604.58,253.84z"/>
		<path class="st2" d="M600.72,254.22c1.28,2.59,4.46,3.67,7.1,2.41c2.64-1.26,3.74-4.38,2.45-6.97c-1.28-2.59-4.46-3.67-7.1-2.41
			C600.54,248.51,599.44,251.63,600.72,254.22z"/>
		<path class="st3" d="M600.21,255.07c-1.56,1.99-2.24,4.51-2.69,6.94c-0.47,2.45-0.76,4.93-0.94,7.42
			c-0.09,4.97-0.09,9.97,0.77,14.88c-0.12-4.96-0.3-9.9,0.09-14.83c0.08-2.47,0.27-4.93,0.64-7.37
			C598.51,259.69,598.95,257.23,600.21,255.07z"/>
		<path class="st3" d="M601.95,265.8c-0.36,6.07-0.14,12.14,0.65,18.19C602.96,277.92,602.74,271.86,601.95,265.8z"/>
		<path class="st3" d="M606.66,268.88c-0.26,2.49,0.08,5.04,0.25,7.51c0.39,2.46,0.59,4.96,1.16,7.38c0.03-2.54-0.31-4.99-0.45-7.49
			C607.19,273.79,607.03,271.38,606.66,268.88z"/>
		<path class="st3" d="M609.67,263.61c0.63,6.43,1.78,12.74,3.48,19C612.52,276.21,611.35,269.85,609.67,263.61z"/>
	</g>
	<path class="st4" d="M574.19,89.49c0.48,4.34,1.52,8.59,1.95,12.94c0.48,2.13,1.36,4.18,1.56,6.36l0.43,3.24l0.35,1.6l0.1,0.42
		l0.08,0.27c0.09,0.11-0.08,0.04,0.35,0.45c0.18,0.1,0.31,0.27,0.92,0.14c0.58-0.29,0.45-0.37,0.54-0.43
		c0.24-0.56,0.13-0.54,0.15-0.72c0-0.41-0.35-1.35-1.35-1.42c-0.48-0.04-0.89,0.32-0.93,0.79c-0.03,0.47,0.32,0.88,0.8,0.91
		c-0.39-0.04-0.46-0.32-0.46-0.21c0.03-0.05-0.09,0.12,0.1-0.32c0.08-0.04-0.06-0.11,0.5-0.4c0.59-0.12,0.71,0.05,0.88,0.13
		c0.4,0.39,0.23,0.29,0.3,0.36c0.05,0.13,0.03,0.07,0.03,0.07l-0.06-0.38l-0.25-1.62l-0.77-3.18c-0.61-2.1-0.53-4.33-0.86-6.49
		c-1.17-4.22-1.75-8.55-2.87-12.77c-0.11-0.4-0.53-0.64-0.94-0.54C574.39,88.78,574.15,89.13,574.19,89.49z"/>
	<g>
		<polygon class="st1" points="626.12,204.82 631.75,226.54 586.62,237.83 580.15,216.35 		"/>
		<polygon class="st1" points="598.88,102.22 604.5,123.94 559.38,135.23 552.91,113.75 		"/>
		<path class="st5" d="M529.08,188.01c2.74,11.7,10.16,22.58,23.02,30.71c15.92,10.07,35.44,9.86,53.08,4.74
			c74.98-21.74,45.14-128.08-31.85-105.76C541.8,126.85,521.2,154.39,529.08,188.01z"/>
		<g>
			<defs>
				<path id="SVGID_00000037651884542538217050000017314106791724568743_" d="M529.08,188.01c2.74,11.7,10.16,22.58,23.02,30.71
					c15.92,10.07,35.44,9.86,53.08,4.74c44.08-12.78,51.93-54.8,35.28-82.72c-11.68-19.58-35.4-32.23-67.13-23.03
					C541.8,126.85,521.2,154.39,529.08,188.01z"/>
			</defs>
			<clipPath id="SVGID_00000115494690937955535720000005692433054939559568_">
				<use xlink:href="#SVGID_00000037651884542538217050000017314106791724568743_"  style="overflow:visible;"/>
			</clipPath>
			<path style="clip-path:url(#SVGID_00000115494690937955535720000005692433054939559568_);fill:#F9D8DF;" d="M648.81,119.04
				c-26.07,6.08-51.98,12.75-77.83,19.67c-25.76,7.22-51.52,14.45-77.05,22.43c-0.13,0.04-0.21,0.18-0.17,0.32
				c0.04,0.13,0.18,0.2,0.32,0.16c25.6-7.74,51.22-15.4,77.09-22.22c25.78-7.13,51.73-13.66,77.74-19.92
				c0.12-0.03,0.19-0.15,0.16-0.27C649.05,119.08,648.93,119.01,648.81,119.04z"/>
			<path style="clip-path:url(#SVGID_00000115494690937955535720000005692433054939559568_);fill:#F9D8DF;" d="M668.55,157.24
				c-26.17,7.47-52.57,14.14-79.15,20.05c-26.5,6.27-53.26,11.39-79.71,17.91c-0.14,0.03-0.22,0.17-0.19,0.3
				c0.03,0.13,0.17,0.21,0.31,0.18c26.49-6.27,53.15-11.82,79.75-17.7c26.54-6.12,52.98-12.67,79.11-20.32
				c0.12-0.04,0.19-0.16,0.15-0.27C668.8,157.28,668.67,157.21,668.55,157.24z"/>
			<path style="clip-path:url(#SVGID_00000115494690937955535720000005692433054939559568_);fill:#F9D8DF;" d="M661.86,126.45
				c-25.04,10.56-50.4,20.36-76.04,29.42c-25.51,9.41-51.44,17.71-76.87,27.36c-0.13,0.05-0.2,0.2-0.15,0.32
				c0.05,0.13,0.2,0.19,0.33,0.14c25.5-9.41,51.28-18.13,76.94-27.16c25.57-9.27,51-18.94,75.97-29.68
				c0.11-0.05,0.17-0.18,0.12-0.29C662.11,126.46,661.97,126.4,661.86,126.45z"/>
			<path style="clip-path:url(#SVGID_00000115494690937955535720000005692433054939559568_);fill:#F9D8DF;" d="M670.01,176.91
				l-178.58,27.68c-0.14,0.02-0.23,0.15-0.21,0.29c0.02,0.14,0.15,0.23,0.29,0.21l178.57-27.74c0.12-0.02,0.21-0.13,0.19-0.25
				C670.25,176.97,670.13,176.89,670.01,176.91z"/>
			<path style="clip-path:url(#SVGID_00000115494690937955535720000005692433054939559568_);fill:#F9D8DF;" d="M669.66,197.35
				c-27.76,6.06-55.62,11.7-83.62,16.57c-27.94,5.18-56.07,9.37-84.22,13.3c-0.14,0.02-0.24,0.15-0.22,0.28
				c0.02,0.14,0.15,0.23,0.29,0.21c28.2-3.69,56.26-8.31,84.28-13.09c27.97-5.09,55.86-10.6,83.59-16.85
				c0.12-0.03,0.2-0.15,0.17-0.26C669.9,197.39,669.78,197.32,669.66,197.35z"/>
			<g style="clip-path:url(#SVGID_00000115494690937955535720000005692433054939559568_);">
				<path class="st8" d="M625.94,203.37c-4.74,25.51-11.09,52.63-24.85,75.06c-3.85,6.27-9.23,14.41-13.88,20.14
					c-11.5,14.15-24.81,23.35-39.91,33.8c-3.32,2.3-14.74-22.36-8.69-26.7c15.2-15.79,30.4-31.57,45.6-47.36
					c5.41-9.91,9.6-20.26,12.59-31.06c4.02-12.63,7.69-25.59,8.91-38.81C606.38,181.15,626.96,197.86,625.94,203.37z"/>
				<path class="st8" d="M638.21,190.99c-5.91,29.93-13.39,58.69-30.86,84.42c-12.95,19.07-27.86,31.1-46.95,44.3
					c-3.16,2.18-5.21-13.59-5.39-14.88c-0.61-4.49-4.9-20.15-0.77-23.71c24.45-21.1,40.39-42.34,49.66-72.33
					c5.02-16.25,9.54-33.33,10.04-50.32c0.23-7.79,10.74,7.12,9.97,6.02C627.61,169.76,639.62,183.82,638.21,190.99z"/>
				<path class="st8" d="M642.05,176.67c-5.22,25.59-11.52,53.69-25.66,76.11c-3.74,5.93-10.1,14.97-14.61,20.37
					c-11.81,14.15-25.29,23.55-40.55,34.16c-5.04,3.51-9.11-5.02-5.34-7.74c6.99-5.04,13.98-10.08,20.98-15.12
					c22.17-19.94,37.15-43.37,44.94-70.27c4.68-14.05,8.17-28.33,11.17-42.82C634.39,164.54,643.03,171.83,642.05,176.67z"/>
				<path class="st8" d="M623.11,184.44c-4.63,25.57-10.77,51.19-23.62,74.17c-13.38,23.93-31.06,39.04-53.17,54.77
					c-3.95,2.81-9.38-19.67-9.32-19.47c-1.09-3.91-6.97-17.61-2.05-21.42c5.79-4.48,11.58-8.96,17.36-13.44
					c18.11-18.89,30.11-40.37,36-64.43c3.68-12.84,7.06-25.94,7.68-39.3c0.34-7.35,10.57,4.93,10.43,4.78
					C610.15,164.34,624.3,177.89,623.11,184.44z"/>
				<path class="st8" d="M631.89,177.48c-8.09,24.99-13,50.23-26.67,73.25c-14.25,23.99-33.11,39.32-55.79,55.03
					c-4.67,3.23-9.79-3.48-5.97-6.13c28.74-19.99,49.69-38.67,63.5-72.87c6.82-16.89,10.31-34.63,16.52-51.68
					C625.34,169.96,633.44,172.7,631.89,177.48z"/>
				<path class="st8" d="M650,185.98c-3.35,18.74-7.63,37.31-14.8,55.06c-5.88,15.24-13.91,29.29-24.09,42.17
					c-10.81,13.77-23.8,25.16-38.95,34.18c-6.04,4.39-6.16-13.12-2.76-15.99c6.38-5.39,12.76-10.79,19.14-16.18
					c14.68-14.19,24.65-31.18,29.93-50.96c9.54-21.61,17.05-38.16,19.82-60.9C639.52,163.28,650.88,181.06,650,185.98z"/>
				<path class="st8" d="M635.97,205.2c-4.72,25.77-11.14,51.46-24.31,74.51c-13.68,23.94-30.95,38.41-53.02,53.79
					c-7,4.88-11.14-20.66-7.41-23.54c26.25-20.24,44.01-41.27,54.51-71.74c5.48-15.9,10.53-32.79,11.59-49.54
					c0.35-5.55,7.35,0.72,8.15,1.42C628.43,192.68,636.81,200.62,635.97,205.2z"/>
				<path class="st8" d="M617.97,187.28c-3.51,9.74-5.08,19.77-7.84,29.72c-5.28,19.04-12.57,37.15-23.97,53.46
					c-13.16,18.83-28.3,30.99-47.26,44.21c-3.63,2.53-13.58-19.09-7.85-23.1c15.78-15.95,31.55-31.89,47.33-47.84
					c5.39-10.15,9.59-20.74,12.6-31.75c4.02-12.82,6.9-25.8,9.66-38.94C602.19,165.61,619.72,182.43,617.97,187.28z"/>
				<path class="st8" d="M644.63,177.9c-2.94,18.79-7.49,37.67-14.63,55.41c-5.87,15.16-13.89,29.14-24.04,41.95
					c-10.78,13.71-23.71,25.05-38.79,34.04c-6.25,4.55-7.4-14.09-3.89-17.02c16.4-13.67,30.23-27.03,41.4-45.46
					c8.88-12.78,14.42-27.03,16.63-42.73c6.63-12.63,10.25-25.83,10.86-39.6c0.33-3.91,2.7-3.58,5.46-2.34
					C640.4,163.4,645.08,175.01,644.63,177.9z"/>
				<path class="st8" d="M630.72,174.98c-3.8,25.7-10.78,51.79-23.77,74.63c-13.4,23.55-30.68,38.12-52.18,53.52
					c-6.91,4.95-11.32-21.66-7.53-24.68c22.67-18,39.31-36.21,50.54-62.98c8.23-19.61,15.09-40.84,16.13-62.14
					c0.31-6.2,8.21,3.46,8.12,3.34C625.13,161.03,631.57,169.2,630.72,174.98z"/>
				<path class="st8" d="M618.92,195.4c-5.04,25.3-11.13,52.3-24.83,74.62c-3.84,6.26-9.22,14.33-13.86,20.04
					c-11.43,14.1-24.6,23.35-39.57,33.86c-3.41,2.39-15.99-22.68-9.87-26.95c6.32-4.4,12.64-8.8,18.97-13.2
					c19.9-18.47,33.27-40.01,40.1-64.62c4.07-12.62,7.82-25.57,9.09-38.79C599.64,173.13,620.02,189.87,618.92,195.4z"/>
				<path class="st8" d="M647.35,194.1c-4.14,22.2-9.58,43.53-19.35,64.04c-4.72,11.27-11.03,21.67-18.92,31.2
					c-10.77,13.66-23.72,24.9-38.87,33.72c-6.42,4.59-7.06-18.76-3.33-21.96c19.18-16.49,34.72-32.3,45.47-55.5
					c10.58-22.84,18.3-47.73,20.5-72.8c0.53-6.05,7.83,3.74,7.68,3.52C643.46,180.56,648.36,188.69,647.35,194.1z"/>
			</g>
		</g>
		<path class="st3" d="M573.33,117.71c-14.91,4.62-29.05,13.28-38.07,26.18c-9.36,12.92-10.29,29.95-6.38,44.81
			c4.18,15,15.13,28.12,29.77,34.33c7.3,3.13,15.36,4.21,23.24,3.98c7.88-0.09,15.83-1.02,23.3-3.54
			c-7.75,1.34-15.44,2.97-23.31,2.93c-7.84-0.07-15.61-1.41-22.9-4.15c-14.74-5.52-25.37-19.02-29.4-33.72
			c-1.89-7.45-2.5-15.23-1.6-22.83c1.02-7.59,3.74-14.92,7.99-21.35C544.65,131.54,558.52,122.62,573.33,117.71z"/>
	</g>
	<g>
		<polygon class="st1" points="267.4,279.24 267.76,301.66 221.2,302.42 219.96,280.05 		"/>
		<polygon class="st1" points="265.04,173.24 265.4,195.65 218.84,196.42 217.6,174.05 		"/>
		<path class="st5" d="M176.94,240.91c-0.09,12.01,4.57,24.28,15.17,35.1c13.12,13.4,32.16,17.62,50.53,16.64
			c78.07-4.17,74.06-114.39-6.1-110.11C203.7,184.28,177.18,206.41,176.94,240.91z"/>
		<g>
			<defs>
				<path id="SVGID_00000178167788077669532880000017879931290104900744_" d="M176.94,240.91c-0.09,12.01,4.57,24.28,15.17,35.1
					c13.12,13.4,32.16,17.62,50.53,16.64c45.89-2.45,63.42-41.55,53.79-72.49c-6.75-21.7-26.86-39.38-59.9-37.62
					C203.7,184.28,177.18,206.41,176.94,240.91z"/>
			</defs>
			<clipPath id="SVGID_00000157999260438382874200000001118305486774987910_">
				<use xlink:href="#SVGID_00000178167788077669532880000017879931290104900744_"  style="overflow:visible;"/>
			</clipPath>
			<path style="clip-path:url(#SVGID_00000157999260438382874200000001118305486774987910_);fill:#F9D8DF;" d="M309.67,200.92
				c-26.79,0.01-53.58,0.63-80.36,1.5c-26.76,1.19-53.53,2.39-80.25,4.37c-0.14,0.01-0.25,0.13-0.24,0.27
				c0.01,0.14,0.13,0.24,0.27,0.23c26.73-1.73,53.46-3.38,80.24-4.16c26.76-1.09,53.55-1.57,80.33-1.77c0.12,0,0.22-0.1,0.22-0.22
				C309.89,201.02,309.79,200.92,309.67,200.92z"/>
			<path style="clip-path:url(#SVGID_00000157999260438382874200000001118305486774987910_);fill:#F9D8DF;" d="M319.88,242.57
				c-27.22,1.33-54.47,1.85-81.72,1.57c-27.25,0.1-54.5-0.99-81.77-0.64c-0.14,0-0.25,0.12-0.25,0.25c0,0.14,0.12,0.25,0.26,0.25
				c27.25-0.1,54.5,0.54,81.76,0.85c27.26,0.06,54.53-0.32,81.75-1.84c0.12-0.01,0.22-0.11,0.21-0.23
				C320.11,242.65,320.01,242.56,319.88,242.57z"/>
			<path style="clip-path:url(#SVGID_00000157999260438382874200000001118305486774987910_);fill:#F9D8DF;" d="M320.62,211.09
				c-26.84,4.6-53.83,8.39-80.91,11.39c-27.04,3.37-54.21,5.58-81.23,9.21c-0.14,0.02-0.24,0.14-0.22,0.28
				c0.02,0.14,0.15,0.23,0.29,0.21c27.03-3.38,54.16-6.02,81.25-8.99c27.06-3.22,54.08-6.88,80.91-11.67
				c0.12-0.02,0.2-0.14,0.18-0.26C320.85,211.15,320.74,211.07,320.62,211.09z"/>
			<path style="clip-path:url(#SVGID_00000157999260438382874200000001118305486774987910_);fill:#F9D8DF;" d="M316.67,262.03
				L136.4,248.51c-0.14-0.01-0.26,0.09-0.27,0.23c-0.01,0.14,0.09,0.26,0.23,0.27l180.27,13.46c0.12,0.01,0.23-0.08,0.24-0.2
				C316.89,262.14,316.79,262.04,316.67,262.03z"/>
			<path style="clip-path:url(#SVGID_00000157999260438382874200000001118305486774987910_);fill:#F9D8DF;" d="M311.52,281.84
				c-28.44-0.39-56.87-1.22-85.26-2.82c-28.41-1.29-56.76-3.59-85.07-6.14c-0.14-0.01-0.26,0.09-0.28,0.23
				c-0.01,0.14,0.09,0.26,0.23,0.27c28.3,2.8,56.69,4.66,85.08,6.35c28.41,1.38,56.85,2.34,85.29,2.55c0.12,0,0.23-0.1,0.23-0.22
				C311.75,281.94,311.65,281.84,311.52,281.84z"/>
			<g style="clip-path:url(#SVGID_00000157999260438382874200000001118305486774987910_);">
				<path class="st8" d="M270.89,279.03c-12.31,27.89-27.25,54.33-50.21,75.21c-17.29,15.72-34.78,24.11-56.67,32.69
					c-3.37,1.32-8.19-26.55-1.04-29.64c18.18-12.17,36.36-24.35,54.54-36.52c7.49-8.44,13.91-17.57,19.26-27.4
					c6.79-11.42,13.41-23.25,17.42-35.92C256.24,250.92,273.38,273.37,270.89,279.03z"/>
				<path class="st8" d="M283.9,266.72c-12.72,27.8-26.85,54.09-49.87,75.16c-17.05,15.61-34.42,23.89-56.06,32.41
					c-3.57,1.41-1.65-13.94-1.52-15.16c0.5-4.47,0.36-19.76,5.16-22.27c28.86-15.1,49.65-32.55,65.82-59.76
					c8.77-14.75,17.23-30.4,21.8-46.89c2.07-7.46,8.48,9.41,7.99,8.07C279.47,244.39,286.96,260.02,283.9,266.72z"/>
				<path class="st8" d="M286.44,254.66c-11.92,23.54-23.99,47.39-42.6,66.72c-19.38,20.14-41.47,30.8-67.15,40.93
					c-5.53,2.18-8.06-6.32-3.72-8.09c8.03-3.28,16.06-6.55,24.09-9.83c26.2-14.08,46.36-33.17,60.49-57.27
					c7.92-12.39,14.55-25.36,21.33-38.38C281.82,243.12,288.7,250.19,286.44,254.66z"/>
				<path class="st8" d="M269.29,259.92c-10.64,23.81-22.54,47.32-40.46,66.81c-18.65,20.29-39.38,30.98-64.64,41.28
					c-4.5,1.83-4.57-21.8-4.56-21.57c-0.15-4.02-2.75-19.22,2.97-21.83c6.66-3.04,13.31-6.07,19.97-9.11
					c21.98-14.24,38.63-32.37,49.95-54.39c6.58-11.64,12.91-23.6,16.64-36.44c2.08-7.15,9.27,7.38,9.16,7.19
					C260.99,236.84,272.03,253.79,269.29,259.92z"/>
				<path class="st8" d="M275.61,255.28c-13.96,22.28-24.83,45.38-43.56,64.56c-19.64,20.11-41.32,30.76-67.2,40.97
					c-5.3,2.09-9.01-5.53-4.73-7.2c32.62-12.75,57.5-26.16,79.22-55.91c10.69-14.64,18.22-31.01,28.67-45.73
					C270.82,248.02,278.31,250.97,275.61,255.28z"/>
				<path class="st8" d="M295.36,263.31c-8.82,21.03-19.99,40.84-34.28,58.75c-8.03,10.07-7.45,9.39-17.45,18.49
					c-17.07,15.54-34.32,24.08-55.83,33.11c-6.75,2.83-4.54-11.85-0.56-13.81c31.6-15.54,55.24-31.08,75.33-62.03
					c9.73-14.99,18.81-30.91,24.79-47.68c1.13-3.16,3.91-2.44,5.9-0.85C295.45,251.04,296.38,260.87,295.36,263.31z"/>
				<path class="st8" d="M280.83,281.34c-9.21,20.63-19.5,40.11-33.77,57.83c-7.2,9.89-15.78,18.54-25.73,25.95
					c-13.76,10.81-29.07,18.71-45.96,23.7c-7.74,3.11-4.7-22.37-0.24-24.5c14.89-5.45,28.2-13.42,39.96-23.91
					c8.85-7.61,16.5-16.21,22.92-25.8c12.29-16.67,23.56-35.28,29.53-55.12c1.67-5.56,7.15,3.35,7.46,3.86
					C277.23,266.97,282.84,276.83,280.83,281.34z"/>
				<path class="st8" d="M262.13,261.99c-9.66,23.84-22.94,47.54-40.86,66.44c-18.68,19.7-40.18,30.51-65.39,40.56
					c-4,1.6-9.53-23.77-2.77-26.45c15.18-3.74,28.27-11.06,39.25-21.96c13.19-7.73,23.66-18.13,31.39-31.18
					c9.46-14.2,19.33-29.6,23.77-46.01C249.24,237.07,264.4,256.38,262.13,261.99z"/>
				<path class="st8" d="M289.44,257.5c-8.74,16.18-15.92,32.56-26.58,47.74c-9.15,13.66-20.26,25.56-33.34,35.7
					c-13.77,10.9-29.08,19.03-45.93,24.38c-7.02,2.95-4.68-13.64-0.61-15.61c7.53-3.66,15.07-7.31,22.6-10.97
					c17.91-10.13,31.78-24.27,41.59-42.43c11.52-11.16,20.36-23.92,26.52-38.28c2.72-5.36,5.33-10.78,7.81-16.25
					C285.8,232.54,292.18,252.42,289.44,257.5z"/>
				<path class="st8" d="M276.54,251.4c-9.98,23.97-22.83,47.56-40.84,66.75c-18.63,19.84-38.86,30.13-63.43,40.21
					c-7.99,3.28-6.5-23.27-2.22-25.23c26.39-12.1,46.97-25.8,64.33-49.17c12.68-17.07,24.61-36.11,30.48-56.56
					c1.7-5.91,7.23,4.84,7.19,4.76C274.22,236.56,278.63,246.37,276.54,251.4z"/>
				<path class="st8" d="M263.94,270.83c-10.72,23.57-23.03,48.55-41.61,67.21c-5.21,5.24-12.32,11.85-18.18,16.38
					c-14.44,11.15-29.4,17.13-46.48,23.94c-3.63,1.45-10.49-27.99-3.27-30.91c7.09-2.86,14.18-5.72,21.27-8.58
					c23.38-13.51,41.18-31.41,53.38-53.68c6.83-11.34,13.44-23.08,17.64-35.63C248.96,242.77,266.41,265.41,263.94,270.83z"/>
				<path class="st8" d="M292.46,270.66c-7.65,16.83-15.7,33.48-26.47,48.68c-9.28,13.42-20.36,25.22-33.25,35.39
					c-13.7,10.87-28.96,18.9-45.78,24.1c-7.21,2.98-2.52-17.46,1.67-19.63c18.85-9.76,35.12-19.76,49.91-35.28
					c19.96-20.94,35.41-46.15,45.28-73.29c1.75-4.82,4.68-2.8,6.52,0.83C292.7,256.08,294.67,265.8,292.46,270.66z"/>
			</g>
		</g>
		<path class="st3" d="M236.54,182.53c-15.59,1.12-31.39,6.33-43.21,16.85c-12.15,10.45-17.06,26.81-16.75,42.15
			c0.53,15.54,8.1,30.79,20.88,40.15c6.37,4.7,13.95,7.57,21.67,9.13c7.69,1.7,15.64,2.6,23.51,1.83
			c-7.85-0.45-15.72-0.61-23.37-2.43c-7.61-1.84-14.86-4.91-21.3-9.23c-13.04-8.71-20.21-24.26-20.67-39.47
			c-0.09-7.68,1.15-15.38,3.82-22.57c2.77-7.15,7.15-13.67,12.8-18.96C205.38,189.49,220.97,183.95,236.54,182.53z"/>
	</g>
	<g>
		<polygon class="st1" points="93.19,246.65 92.08,269.04 45.56,266.86 45.79,244.46 		"/>
		<polygon class="st1" points="97.78,140.72 96.67,163.11 50.16,160.93 50.39,138.53 		"/>
		<path class="st5" d="M5.42,202.68c-0.87,11.98,2.97,24.51,12.83,35.98c12.21,14.2,30.94,19.61,49.34,19.8
			c78.18,0.77,81.41-109.48,1.13-110.27C35.85,147.86,7.94,168.27,5.42,202.68z"/>
		<g>
			<defs>
				<path id="SVGID_00000065069994254780162560000009020191803170765727_" d="M5.42,202.68c-0.87,11.98,2.97,24.51,12.83,35.98
					c12.21,14.2,30.94,19.61,49.34,19.8c45.96,0.45,66.02-37.46,58.44-68.95c-5.31-22.08-24.22-41-57.3-41.33
					C35.85,147.86,7.94,168.27,5.42,202.68z"/>
			</defs>
			<clipPath id="SVGID_00000004536573540661420650000010171027390097279146_">
				<use xlink:href="#SVGID_00000065069994254780162560000009020191803170765727_"  style="overflow:visible;"/>
			</clipPath>
			<path style="clip-path:url(#SVGID_00000004536573540661420650000010171027390097279146_);fill:#F9D8DF;" d="M140.5,171.16
				c-26.74-1.68-53.51-2.76-80.29-3.58c-26.79-0.51-53.58-1-80.37-0.71c-0.14,0-0.25,0.12-0.25,0.25c0,0.14,0.12,0.25,0.26,0.25
				c26.78-0.04,53.57,0.01,80.35,0.92c26.78,0.6,53.54,1.82,80.28,3.31c0.12,0.01,0.23-0.09,0.24-0.21
				C140.72,171.28,140.63,171.17,140.5,171.16z"/>
			<path style="clip-path:url(#SVGID_00000004536573540661420650000010171027390097279146_);fill:#F9D8DF;" d="M147.97,213.37
				c-27.25-0.39-54.48-1.6-81.66-3.59c-27.2-1.62-54.32-4.42-81.56-5.8c-0.14-0.01-0.26,0.1-0.27,0.24
				c-0.01,0.14,0.1,0.25,0.24,0.26c27.2,1.62,54.35,3.98,81.53,6.01c27.2,1.78,54.44,3.13,81.7,3.32c0.12,0,0.23-0.1,0.23-0.22
				C148.19,213.47,148.09,213.37,147.97,213.37z"/>
			<path style="clip-path:url(#SVGID_00000004536573540661420650000010171027390097279146_);fill:#F9D8DF;" d="M150.76,182.01
				c-27.09,2.89-54.27,4.97-81.49,6.26c-27.2,1.66-54.47,2.14-81.67,4.06c-0.14,0.01-0.25,0.13-0.24,0.27
				c0.01,0.14,0.13,0.24,0.27,0.23c27.19-1.66,54.44-2.59,81.67-3.84c27.22-1.51,54.42-3.45,81.5-6.53c0.12-0.01,0.21-0.12,0.2-0.25
				C151,182.08,150.89,181.99,150.76,182.01z"/>
			<path style="clip-path:url(#SVGID_00000004536573540661420650000010171027390097279146_);fill:#F9D8DF;" d="M143.48,232.59
				l-179.01-24.88c-0.14-0.02-0.27,0.08-0.29,0.21c-0.02,0.14,0.08,0.26,0.22,0.28h0l179.02,24.82c0.12,0.02,0.24-0.07,0.25-0.19
				C143.69,232.72,143.61,232.61,143.48,232.59z"/>
			<path style="clip-path:url(#SVGID_00000004536573540661420650000010171027390097279146_);fill:#F9D8DF;" d="M137.05,252.03
				c-28.35-2.19-56.67-4.81-84.89-8.2c-28.27-3.08-56.4-7.17-84.5-11.5c-0.14-0.02-0.27,0.07-0.29,0.21
				c-0.02,0.14,0.07,0.26,0.21,0.29c28.06,4.58,56.27,8.23,84.49,11.72c28.26,3.17,56.57,5.93,84.95,7.93
				c0.12,0.01,0.23-0.08,0.24-0.2C137.26,252.15,137.17,252.04,137.05,252.03z"/>
			<g style="clip-path:url(#SVGID_00000004536573540661420650000010171027390097279146_);">
				<path class="st8" d="M97.65,246.97c-14.14,27.07-30.75,52.51-55.05,71.91c-18.28,14.6-36.3,21.86-58.72,29.04
					c-3.33,1.07-6.08-27.28,1.31-29.97c18.87-11.09,37.73-22.18,56.6-33.27c8-7.96,14.98-16.68,20.94-26.15
					c7.51-10.99,14.88-22.39,19.66-34.8c2.09-5.42,7.22,2.94,7.88,4.04C92.35,231.22,99.97,242.53,97.65,246.97z"/>
				<path class="st8" d="M110.84,234.67c-14.49,26.95-30.34,52.29-54.69,71.86c-17.4,13.98-34.8,21.3-56.13,28.17
					c-7.5,2.42-1.56-33.46,4.23-36.03c29.84-13.26,51.81-29.46,69.77-55.62c9.74-14.19,19.22-29.28,24.9-45.46
					c2.56-7.29,7.76,9.89,7.36,8.51C108.1,212.36,114.33,228.17,110.84,234.67z"/>
				<path class="st8" d="M112.88,223.13c-13.64,22.6-27.1,45.54-46.95,63.63c-20.69,18.86-43.41,28.1-69.72,36.58
					c-5.61,1.81-7.74-6.67-3.28-8.16c33.39-11.15,58.8-23.13,82.01-52.1c11.61-14.49,20.96-30.34,30.76-46.03
					C108.99,211.81,115.47,218.84,112.88,223.13z"/>
				<path class="st8" d="M96.38,227.82c-12.21,23.08-25.61,45.78-44.77,64.11c-19.95,19.08-41.33,28.44-67.22,37.12
					c-4.61,1.55-3.13-22.19-3.14-21.95c0.12-4.02-1.49-19.49,4.4-21.74c6.83-2.61,13.67-5.22,20.5-7.83
					c22.84-12.82,40.62-29.86,53.34-51.1c7.32-11.2,14.41-22.74,18.97-35.3c2.55-7.02,8.8,8.01,8.71,7.81
					C89.51,204.08,99.53,221.86,96.38,227.82z"/>
				<path class="st8" d="M101.84,223.51c-15.43,21.33-27.73,44.68-48.25,62.16c-21.34,18.17-42.9,27.72-69.22,36.2
					c-5.44,1.75-8.72-6.1-4.36-7.5c15.83-6.64,31.66-13.29,47.49-19.93c16.9-10.73,30.99-24.02,42.26-39.85
					c8.72-11.3,15.64-23.7,24.66-34.76C97.48,216.09,104.82,219.39,101.84,223.51z"/>
				<path class="st8" d="M122.07,231.25c-11.95,23.52-26.13,46.61-45.45,65.11C56.09,316,33.78,325.87,7.23,335.06
					c-6.84,2.37-4.32-11.48-0.2-13.17c8.07-3.31,16.14-6.63,24.21-9.94c26.52-14.15,47.33-33.25,62.42-57.29
					c7.97-11.7,15.38-23.8,21.33-36.62C118.9,209.64,124.31,226.85,122.07,231.25z"/>
				<path class="st8" d="M107.53,249.39c-10.56,20.01-22.1,38.81-37.51,55.59c-7.84,9.42-16.97,17.51-27.38,24.28
					c-14.43,9.92-30.23,16.84-47.4,20.76c-7.87,2.6-2.9-22.4,1.71-24.27c15.23-4.59,29.05-11.78,41.47-21.57
					c9.33-7.09,17.53-15.23,24.58-24.43c13.35-15.91,25.82-33.82,33.09-53.28c2.05-5.48,6.9,4.03,7.12,4.47
					C105.16,234.79,109.86,244.96,107.53,249.39z"/>
				<path class="st8" d="M88.9,229.87c-11.47,23.11-26,45.85-45.14,63.67c-19.93,18.55-42.02,28.07-67.87,36.6
					c-4.03,1.33-8.14-25.04-1.12-27.32c15.35-2.79,28.85-9.28,40.48-19.46c13.63-6.9,24.71-16.6,33.27-29.11
					c10.34-13.55,21-28.25,26.71-44.24C77.47,203.73,91.58,224.48,88.9,229.87z"/>
				<path class="st8" d="M117.11,224.13c-9.98,16.17-18.67,32.69-30.69,47.61c-10.03,13.05-21.91,24.22-35.64,33.51
					c-14.48,10.01-30.3,17.15-47.48,21.43c-7.15,2.48-4.02-13.5,0.17-15.19c7.78-3.15,15.56-6.31,23.34-9.46
					c18.59-8.92,33.4-22.13,44.42-39.63c12.26-10.38,21.95-22.54,29.06-36.48c3.09-5.19,6.06-10.45,8.91-15.77
					C114.09,201.23,119.6,220.11,117.11,224.13z"/>
				<path class="st8" d="M103.42,219.4c-11.45,23.31-25.91,46.05-45.13,64.03c-19.89,18.61-40.77,27.61-65.95,36.1
					c-8.22,2.77-5.13-23.6-0.76-25.26c31.6-12.05,55.37-27.01,74.86-53.49c10.43-14.16,20.89-29.28,26.77-45.79
					c2.05-5.76,6.9,5.14,6.89,5.11C102,204.56,105.8,214.54,103.42,219.4z"/>
				<path class="st8" d="M90.7,238.6c-12.05,22.92-26.15,47.14-45.88,64.56c-5.55,4.9-13.06,11.05-19.21,15.21
					c-15.14,10.23-30.46,15.25-47.96,20.97c-3.63,1.19-8.61-29.2-1.13-31.7c7.23-2.42,14.47-4.83,21.7-7.25
					c24.13-12.05,42.98-28.79,56.55-50.22c7.54-10.89,14.93-22.2,19.82-34.5C77.2,209.12,93.54,233.19,90.7,238.6z"/>
				<path class="st8" d="M119.2,238.8c-6.8,12.98-14.26,25.53-22.83,37.46c-9.44,13.16-19.92,24.62-32.59,34.85
					c-17.76,14.34-35.18,21.58-57,29.04c-7.35,2.51-1.51-16.9,2.75-18.77c23.58-10.34,43.96-21.19,61.49-40.47
					c16.77-18.45,31.08-39.38,41.1-62.08c2.04-4.61,4.91-2.37,6.44,1.23C120.59,224.81,121.64,234.14,119.2,238.8z"/>
			</g>
		</g>
		<path class="st3" d="M68.73,148.19c-15.63,0.14-31.74,4.34-44.22,14.09c-12.81,9.66-18.79,25.68-19.48,41.01
			c-0.49,15.54,6.07,31.24,18.21,41.39c6.05,5.09,13.43,8.44,21.03,10.48c7.56,2.18,15.44,3.58,23.34,3.31
			c-7.81-0.95-15.65-1.6-23.16-3.9c-7.47-2.32-14.5-5.84-20.66-10.55c-12.44-9.52-18.58-25.48-18.04-40.7
			c0.41-7.67,2.15-15.28,5.29-22.28c3.24-6.96,8.03-13.19,14.02-18.11C37.18,153.17,53.1,148.63,68.73,148.19z"/>
	</g>
	<g>
		<path class="st1" d="M73.35,286.43c0,0,3.39-4.34,10.26,3.49c2.95,3.36,8.29,11.29,11.41,18.95l-3.43,1.62l-10.13-16.46
			l8.11,17.82l-2.33,1.45l-6.83-13.67l4.48,14.42l-2.69,1.34l-7.51-17.72l4.94,18.94l-2.23,0.86c0,0-6.71-13.55-8.01-24.09
			C68.83,289,70.3,287.54,73.35,286.43z"/>
		<path class="st2" d="M69.87,288.11c2.12,1.99,5.48,1.91,7.51-0.17c2.03-2.08,1.95-5.38-0.17-7.37c-2.12-1.99-5.48-1.91-7.51,0.17
			C67.67,282.82,67.75,286.12,69.87,288.11z"/>
		<path class="st3" d="M69.7,289.08c-0.76,2.4-0.5,4.99-0.06,7.43c0.43,2.46,1.04,4.88,1.75,7.27c1.68,4.69,3.45,9.38,6,13.68
			c-1.87-4.61-3.8-9.18-5.17-13.94c-0.8-2.34-1.5-4.71-2.01-7.12C69.74,293.99,69.28,291.54,69.7,289.08z"/>
		<path class="st3" d="M75.13,298.55c1.82,5.82,4.17,11.43,7.06,16.84C80.37,309.57,78.02,303.96,75.13,298.55z"/>
		<path class="st3" d="M80.63,299.82c0.64,2.42,1.86,4.69,2.9,6.95c1.24,2.17,2.31,4.45,3.7,6.52c-0.87-2.39-2.06-4.58-3.08-6.87
			C82.87,304.25,81.87,302.04,80.63,299.82z"/>
		<path class="st3" d="M81.59,293.86c2.87,5.81,6.19,11.34,10,16.63C88.73,304.7,85.38,299.13,81.59,293.86z"/>
	</g>
	<g>
		<path class="st1" d="M241.88,321.11c0,0,4.39-3.36,9.03,5.91c1.99,3.98,5.12,12.98,6.17,21.15l-3.74,0.72l-5.57-18.43l3.27,19.25
			l-2.63,0.82l-3.1-14.91l0.63,15.06l-2.95,0.63l-2.72-19l-0.09,19.55l-2.38,0.28c0,0-3.01-14.77-1.57-25.3
			C236.84,322.48,238.64,321.43,241.88,321.11z"/>
		<path class="st2" d="M238.08,321.87c1.54,2.45,4.82,3.21,7.31,1.7c2.5-1.51,3.27-4.73,1.73-7.17c-1.54-2.45-4.82-3.21-7.31-1.7
			C237.31,316.21,236.54,319.42,238.08,321.87z"/>
		<path class="st3" d="M237.66,322.77c-1.35,2.14-1.76,4.71-1.97,7.17c-0.22,2.49-0.25,4.98-0.17,7.47
			c0.42,4.96,0.93,9.93,2.29,14.73c-0.63-4.93-1.31-9.82-1.43-14.77c-0.17-2.46-0.24-4.93-0.12-7.39
			C236.44,327.54,236.62,325.04,237.66,322.77z"/>
		<path class="st3" d="M240.49,333.28c0.27,6.08,1.1,12.09,2.51,18.04C242.73,345.24,241.89,339.22,240.49,333.28z"/>
		<path class="st3" d="M245.48,335.87c0,2.5,0.6,5,1.02,7.44c0.64,2.41,1.09,4.88,1.91,7.23c-0.23-2.53-0.82-4.94-1.22-7.41
			C246.52,340.7,246.11,338.32,245.48,335.87z"/>
		<path class="st3" d="M247.94,330.34c1.28,6.34,3.08,12.5,5.4,18.56C252.07,342.59,250.26,336.38,247.94,330.34z"/>
	</g>
</g>
<g>
	<path class="st15" d="M774.15,337.13c9.9-17.52,29.92-29.86,51.77-30.13l0.06,0c2.54-0.03,4.62,2,4.65,4.54
		c0.03,2.54-2,4.62-4.54,4.65c-0.24,0-0.49-0.02-0.72-0.05C807.14,313.49,786.59,321.29,774.15,337.13z"/>
	<path class="st15" d="M780.79,355.34c8.26-0.85,16.64-1.73,25.29-0.45c4.32,0.65,8.63,1.89,12.74,3.92c4.09,2.02,8,4.9,11.07,8.77
		l0.12,0.15c1.58,1.99,1.25,4.89-0.74,6.48c-1.99,1.58-4.89,1.25-6.48-0.74c-0.18-0.23-0.35-0.5-0.49-0.75
		c-3.15-6.1-9.84-10.82-17.29-13.37C797.46,356.73,789.07,356,780.79,355.34z"/>
	<path class="st15" d="M721.1,366.26c-11.53,0.29-21.63,7.6-25.47,16.52c-1.01,2.35-3.74,3.44-6.09,2.43
		c-2.35-1.01-3.44-3.74-2.43-6.09c0.17-0.4,0.4-0.77,0.66-1.1l0.14-0.17C696.41,367.51,709.9,363.52,721.1,366.26z"/>
	<path class="st15" d="M724.95,336.08c-7.97-8.35-20.17-10.91-29.35-7.75c-2.42,0.83-5.06-0.46-5.89-2.88
		c-0.83-2.42,0.46-5.06,2.88-5.89c0.42-0.14,0.84-0.22,1.26-0.25l0.22-0.01C707.43,318.64,719.46,325.95,724.95,336.08z"/>
	<path class="st15" d="M752.44,329.39c-1.79-3.8-2.79-7.99-3.35-12.22c-0.55-4.24-0.66-8.56-0.29-12.9c0.39-4.34,1.23-8.7,2.83-13
		c1.62-4.26,4.02-8.59,8.12-12.01l0.11-0.09c1.95-1.63,4.86-1.37,6.49,0.59c1.63,1.95,1.37,4.86-0.59,6.49
		c-0.24,0.2-0.51,0.38-0.77,0.52c-2.72,1.47-5.22,4.21-7.17,7.45c-1.96,3.25-3.45,6.97-4.53,10.84c-1.07,3.88-1.72,7.93-1.94,12.02
		C751.17,321.17,751.37,325.33,752.44,329.39z"/>
	<path class="st16" d="M789.38,342.22c12.64-8.15,29.27-11.07,45.1-6.95l0.08,0.02c2.46,0.64,3.94,3.16,3.3,5.62
		c-0.64,2.46-3.16,3.94-5.62,3.3c-0.31-0.08-0.62-0.2-0.89-0.33C819.05,337.75,803.4,336.79,789.38,342.22z"/>
	<path class="st16" d="M739.43,326.62c-3.86-5.86-8.96-10.68-14.48-14.59c-2.77-1.94-5.68-3.64-8.65-4.95
		c-2.96-1.3-6.03-2.22-8.81-2.41c-2.54-0.18-4.46-2.38-4.29-4.92c0.18-2.54,2.38-4.46,4.92-4.29c0.35,0.02,0.69,0.09,1.02,0.18
		l0.14,0.05c4.07,1.25,7.44,3.25,10.5,5.47c3.04,2.24,5.74,4.76,8.2,7.44C732.86,313.98,736.91,320.04,739.43,326.62z"/>
	<path class="st16" d="M761.3,329.42c0.75-6.93,3.22-13.94,7.51-19.95c4.23-6.04,10.02-11,16.22-15.01l0.04-0.03
		c2.14-1.38,4.99-0.77,6.37,1.36c1.38,2.14,0.77,4.99-1.36,6.37c-0.28,0.18-0.6,0.34-0.9,0.45c-6.15,2.29-12.01,5.39-16.92,9.86
		C767.33,316.91,763.55,322.78,761.3,329.42z"/>
	<path class="st16" d="M771.04,363.98c6.72,1.36,13.32,3.82,19.47,7.4c6.08,3.63,12,8.4,15.82,15.61l0.06,0.1
		c1.2,2.25,0.34,5.05-1.92,6.24c-2.25,1.2-5.05,0.34-6.24-1.92c-0.17-0.33-0.31-0.69-0.4-1.03c-1.38-5.47-5.29-10.87-10.05-15.33
		C782.98,370.57,777.28,366.79,771.04,363.98z"/>
	<path class="st16" d="M733.68,353.06c-3.62-2.08-7.65-3.1-11.65-3.48c-4.02-0.37-8.05-0.12-11.98,0.53
		c-3.93,0.66-7.78,1.74-11.38,3.21c-3.55,1.44-7.05,3.41-9.2,5.57l-0.03,0.03c-1.79,1.8-4.71,1.81-6.51,0.02
		c-1.8-1.79-1.81-4.71-0.02-6.51c0.22-0.22,0.48-0.43,0.72-0.59c4.42-2.93,8.73-4.14,13.07-5.09c4.34-0.89,8.69-1.26,13.02-1.19
		c4.32,0.08,8.63,0.62,12.74,1.79C726.56,348.5,730.51,350.35,733.68,353.06z"/>
	<path class="st16" d="M742.3,371.45c-2.45,4.01-4.59,8.16-6.15,12.4c-1.56,4.22-2.53,8.58-2.52,12.6c0,2.57-2.08,4.66-4.65,4.66
		c-2.57,0-4.66-2.08-4.67-4.65c0-0.53,0.09-1.04,0.25-1.52l0.07-0.19c1.77-5.1,4.49-9.39,7.55-13.19
		C735.25,377.77,738.7,374.47,742.3,371.45z"/>
	<polygon class="st17" points="749.77,348.46 751.5,336.11 757.53,346.45 766.73,344.15 762.99,351.91 772.19,354.5 762.13,357.95 
		765.58,369.44 756.67,361.97 749.2,371.17 748.62,361.68 737.41,365.13 747.47,356.22 737.99,348.75 	"/>
</g>
<g>
	<path class="st16" d="M960.06,537.17c-4.76-8.6-13.25-13.91-21.97-16.56c-8.8-2.66-18.14-2.79-26.67-0.81
		c-3.07,0.71-6.13-1.2-6.84-4.27s1.2-6.13,4.27-6.84c0.36-0.08,0.72-0.13,1.08-0.14l0.09,0c10.69-0.33,21.2,2.02,30.28,6.84
		C949.3,520.14,957.1,527.78,960.06,537.17z"/>
	<path class="st16" d="M984.82,517.22c0.57-8.23,0.03-16.46-2.21-23.99c-2.21-7.54-6.13-14.21-11.25-19.57
		c-2.18-2.28-2.09-5.9,0.19-8.08c2.28-2.18,5.9-2.09,8.08,0.19c0.3,0.32,0.56,0.66,0.78,1.02l0.09,0.15
		c4.61,7.85,7.24,16.7,7.7,25.34C988.7,500.95,987.23,509.35,984.82,517.22z"/>
	<path class="st16" d="M949.04,572.08c-6.46,0-12.47,2.45-17.03,6.11c-4.59,3.68-7.62,8.63-8.88,13.75
		c-0.76,3.09-3.87,4.98-6.96,4.22c-3.09-0.76-4.98-3.87-4.22-6.96c0.14-0.57,0.36-1.1,0.65-1.58l0.17-0.28
		c3.95-6.54,9.91-11.49,16.44-14.07C935.72,570.66,942.85,570.2,949.04,572.08z"/>
	<path class="st16" d="M1021.25,535.66c5.48-4.6,12.13-7.95,19.06-10.44c6.99-2.43,14.29-4.17,22.37-4.22l0.09,0
		c3.16-0.02,5.75,2.53,5.77,5.69c0.02,3.16-2.53,5.75-5.69,5.77c-0.53,0-1.06-0.07-1.55-0.2c-6-1.64-12.96-1.99-19.78-1.49
		C1034.66,531.31,1027.73,532.68,1021.25,535.66z"/>
	<path class="st16" d="M1000.84,599.03c1.73,5.98,3.5,11.98,4.3,18.48c0.8,6.42,0.46,13.72-2.79,20.59l-0.19,0.41
		c-1.37,2.88-4.81,4.11-7.69,2.75c-2.88-1.37-4.11-4.81-2.75-7.69c0.27-0.57,0.64-1.1,1.06-1.53c3.45-3.58,5.64-8.82,6.7-14.66
		C1000.56,611.52,1000.71,605.25,1000.84,599.03z"/>
	<path class="st16" d="M1022.4,571.49c9.03,0.26,18.24,1.5,27.11,5.13c4.41,1.83,8.73,4.33,12.5,7.81
		c3.77,3.45,6.89,7.95,8.82,12.97l0.08,0.2c1.13,2.94-0.34,6.25-3.28,7.38c-2.94,1.13-6.25-0.34-7.38-3.28
		c-0.15-0.38-0.25-0.79-0.31-1.18c-0.56-3.64-1.97-7.19-4.24-10.41c-2.26-3.23-5.34-6.09-8.86-8.51
		C1039.74,576.77,1031.18,573.6,1022.4,571.49z"/>
	<path class="st18" d="M1013.17,587.66c8.11,1.32,16.3,4.76,22.75,10.96c6.47,6.11,10.83,15.1,11.44,24.68l0.02,0.28
		c0.2,3.15-2.19,5.88-5.35,6.08c-3.15,0.2-5.88-2.19-6.08-5.35c-0.03-0.45,0-0.91,0.07-1.34c1.18-6.84-0.27-14.33-4.44-20.71
		C1027.46,595.86,1020.79,590.79,1013.17,587.66z"/>
	<path class="st18" d="M968.95,518.79c-5.28-18.48-21.61-31.94-38.32-34.24c-3.12-0.43-5.31-3.31-4.87-6.43
		c0.43-3.12,3.31-5.31,6.43-4.87c0.39,0.05,0.76,0.15,1.12,0.27l0.16,0.06C953.77,480.86,967.39,499.65,968.95,518.79z"/>
	<path class="st18" d="M948.48,555.92c-3.41-2.53-7.32-4.12-11.28-5.14c-3.97-1-8.04-1.38-11.94-1.07c-3.9,0.31-7.6,1.34-10.74,3.07
		c-3.15,1.73-5.67,4.14-7.61,6.94c-1.8,2.59-5.36,3.24-7.95,1.44c-2.59-1.8-3.24-5.36-1.44-7.95c0.24-0.35,0.52-0.66,0.82-0.94
		l0.11-0.1c3.75-3.43,8.27-6.01,12.99-7.32c4.72-1.33,9.54-1.47,14.06-0.81c4.53,0.67,8.8,2.1,12.71,4.09
		C942.1,550.13,945.71,552.69,948.48,555.92z"/>
	<path class="st18" d="M999.91,532.91c0.83-4.22,2.31-8.34,3.94-12.36c1.66-4.02,3.53-7.97,5.6-11.83
		c2.09-3.86,4.35-7.65,6.94-11.34c2.65-3.68,5.38-7.3,9.63-10.64l0.07-0.05c2.48-1.95,6.07-1.53,8.03,0.95
		c1.95,2.48,1.53,6.07-0.95,8.03c-0.36,0.29-0.77,0.53-1.17,0.71c-2.92,1.33-6.21,3.89-9.19,6.6c-3.02,2.75-5.91,5.78-8.66,8.95
		c-2.74,3.18-5.35,6.51-7.79,9.99C1003.93,525.39,1001.64,528.98,999.91,532.91z"/>
	<path class="st18" d="M1027.36,557.6c15.9-6.24,34.89-6.35,52.06,0.73l0.1,0.04c2.92,1.2,4.31,4.54,3.1,7.46
		c-1.2,2.92-4.54,4.31-7.46,3.1c-0.4-0.16-0.79-0.38-1.12-0.62C1061.32,559.29,1044.24,555,1027.36,557.6z"/>
	<polygon class="st17" points="981.96,535.03 976.56,559.02 955.76,550.79 972.39,565.38 961.11,577.42 977.67,576.31 984.2,592.95 
		987.11,580.15 1001.29,587 991.88,574.8 1010.77,571.91 991.33,566.89 1011.82,551.64 985.8,558.74 	"/>
</g>
<polygon class="st17" points="269.41,74.34 254.79,40.13 276.56,70.26 292.79,38.84 286.77,71.28 318.43,58 290.22,78.78 317.92,82 
	290.22,84.58 307.61,106.48 284.22,89.15 281.2,120.65 277.07,89.66 258.65,112.92 270.43,87.62 239.33,94.24 268.39,80.98 
	237.39,65.25 "/>
<polygon class="st17" points="983.42,381.92 942.02,399.05 978.15,374.41 939.08,358.24 979.04,363.39 961.63,329.9 988.11,359.38 
	991.06,329.47 995.21,359.14 1021.43,339.54 1001.03,365.4 1039.74,367.35 1001.91,373.06 1031.08,391.91 999.65,380.28 
	1008.89,413.45 991.59,382.75 973.43,416.71 "/>
<g>
	<path class="st3" d="M720.49,530.86c3.97-0.35,7.95-0.65,11.92-0.46c3.97,0.23,7.95-0.25,11.92-0.15
		c3.97,0.13,7.95,0.44,11.92,0.13c3.97-0.29,7.95-0.21,11.92,0.47c0.78,0.13,1.3,0.87,1.17,1.65c-0.1,0.61-0.59,1.07-1.17,1.17
		c-3.97,0.67-7.95,0.75-11.92,0.47c-3.97-0.32-7.95-0.01-11.92,0.13c-3.97,0.1-7.95-0.38-11.92-0.15
		c-3.97,0.19-7.95-0.11-11.92-0.46c-0.77-0.07-1.33-0.75-1.26-1.51C719.29,531.44,719.83,530.92,720.49,530.86z"/>
	<path class="st3" d="M746.59,495.19c0.35,6.61,0.65,13.21,0.46,19.82c-0.23,6.61,0.25,13.21,0.15,19.82
		c-0.13,6.61-0.44,13.21-0.13,19.82c0.29,6.61,0.21,13.21-0.47,19.82c-0.08,0.78-0.77,1.34-1.55,1.26c-0.68-0.07-1.2-0.61-1.26-1.26
		c-0.67-6.61-0.75-13.21-0.47-19.82c0.32-6.61,0.01-13.21-0.13-19.82c-0.1-6.61,0.38-13.21,0.15-19.82
		c-0.19-6.61,0.11-13.21,0.46-19.82c0.04-0.77,0.7-1.35,1.46-1.31C745.99,493.92,746.55,494.49,746.59,495.19z"/>
	<path class="st3" d="M729.13,512.36c3.37,3.38,6.69,6.8,9.65,10.54c2.92,3.76,6.39,7.06,9.41,10.74c3,3.7,5.86,7.51,9.2,10.92
		c1.64,1.73,3.27,3.46,4.74,5.34c0.74,0.93,1.5,1.85,2.18,2.83c0.32,0.56,0.69,0.66,0.16,0.59c-0.08,0.01-0.29,0-0.68,0.29
		c-0.28,0.25-0.3,0.45-0.32,0.58c0.01,0.14,0,0.23,0.13,0.5c0.03,0.32,1.02,0.79,1.31,0.55c-0.75,0.2-1.52-0.25-1.72-1.01
		c-0.2-0.75,0.25-1.52,1.01-1.72c0.58-0.33,1.9,0.29,2.04,0.9c0.26,0.54,0.27,0.95,0.21,1.37c-0.07,0.41-0.23,0.9-0.75,1.34
		c-0.63,0.47-1.17,0.48-1.53,0.48c-1.76-0.23-2.17-1.21-2.62-1.51c-0.87-0.83-1.65-1.72-2.47-2.59c-1.63-1.73-3.1-3.62-4.56-5.5
		c-2.86-3.82-6.19-7.23-9.39-10.76c-3.17-3.55-5.91-7.47-9.18-10.94c-3.24-3.49-6.12-7.3-8.95-11.14c-0.46-0.62-0.32-1.49,0.29-1.95
		C727.88,511.8,728.65,511.87,729.13,512.36z"/>
	<path class="st3" d="M760.58,513.36c-2.29,3.89-4.62,7.75-7.35,11.33c-2.77,3.56-4.95,7.52-7.6,11.15
		c-2.69,3.61-5.52,7.12-7.83,10.99c-2.34,3.85-4.98,7.5-8.11,10.8c-0.54,0.57-1.44,0.6-2.01,0.06c-0.46-0.44-0.57-1.12-0.3-1.67
		c2.02-4.07,4.53-7.81,7.34-11.33c2.84-3.51,5.16-7.37,7.62-11.14c2.5-3.74,5.46-7.16,7.85-10.98c2.42-3.8,5.24-7.32,8.11-10.8
		c0.49-0.59,1.37-0.68,1.96-0.19C760.8,512.02,760.93,512.78,760.58,513.36z"/>
</g>
<g>
	<path class="st3" d="M745.71,153.22c5.17-0.35,10.35-0.65,15.52-0.46c5.18,0.23,10.35-0.25,15.53-0.15
		c5.17,0.13,10.35,0.44,15.53,0.13c5.17-0.29,10.35-0.21,15.53,0.47c0.78,0.1,1.33,0.81,1.22,1.59c-0.09,0.65-0.6,1.14-1.22,1.22
		c-5.18,0.67-10.35,0.75-15.53,0.47c-5.17-0.32-10.35-0.01-15.53,0.13c-5.18,0.1-10.35-0.38-15.53-0.15
		c-5.17,0.19-10.35-0.11-15.52-0.46c-0.77-0.05-1.35-0.72-1.29-1.48C744.46,153.81,745.03,153.26,745.71,153.22z"/>
	<path class="st3" d="M779.27,117.68c0.35,6.58,0.65,13.16,0.46,19.74c-0.23,6.58,0.25,13.16,0.15,19.74
		c-0.13,6.58-0.44,13.16-0.13,19.74c0.29,6.58,0.21,13.16-0.47,19.74c-0.08,0.78-0.77,1.34-1.55,1.26c-0.68-0.07-1.2-0.61-1.26-1.26
		c-0.67-6.58-0.75-13.16-0.47-19.74c0.32-6.58,0.01-13.16-0.13-19.74c-0.1-6.58,0.38-13.16,0.15-19.74
		c-0.19-6.58,0.11-13.16,0.46-19.74c0.04-0.77,0.7-1.35,1.46-1.31C778.67,116.41,779.23,116.99,779.27,117.68z"/>
	<path class="st3" d="M756.51,134.65c4.28,3.34,8.52,6.73,12.44,10.47c3.89,3.78,8.25,7.03,12.23,10.71
		c3.95,3.71,7.79,7.54,12.05,10.91c2.1,1.72,4.2,3.43,6.15,5.32c0.98,0.94,1.98,1.85,2.91,2.84c0.45,0.52,0.73,0.63,0.62,0.68
		c0.19-0.06-0.74,0.23-0.74,0.75c-0.04,0.22-0.05,0.47,0.22,0.83c0.29,0.4,0.9,0.43,0.99,0.35c-0.76,0.15-1.5-0.34-1.66-1.1
		c-0.15-0.76,0.34-1.5,1.1-1.66c0.41-0.15,1.4-0.04,1.9,0.64c0.48,0.63,0.49,1.26,0.36,1.8c-0.19,1.23-1.9,1.79-2.37,1.66
		c-1.5-0.04-2.32-0.9-2.85-1.27c-1.09-0.81-2.11-1.7-3.16-2.57c-2.1-1.72-4.04-3.61-5.99-5.5c-3.83-3.84-8.08-7.22-12.22-10.72
		c-4.11-3.53-7.83-7.5-12.03-10.93c-4.17-3.47-8.01-7.29-11.82-11.17c-0.54-0.55-0.53-1.43,0.02-1.97
		C755.19,134.26,755.97,134.22,756.51,134.65z"/>
	<path class="st3" d="M797.46,135.93c-3.09,3.91-6.23,7.79-9.72,11.34c-3.53,3.52-6.53,7.52-9.95,11.13
		c-3.45,3.58-7.04,7.05-10.16,10.94c-3.14,3.87-6.56,7.49-10.41,10.71c-0.6,0.5-1.5,0.42-2-0.18c-0.42-0.5-0.43-1.21-0.08-1.72
		c2.86-4.13,6.15-7.86,9.72-11.34c3.59-3.46,6.72-7.34,9.97-11.11c3.28-3.74,6.99-7.09,10.17-10.92c3.22-3.8,6.79-7.28,10.41-10.71
		c0.56-0.53,1.44-0.51,1.97,0.05C797.86,134.62,797.89,135.39,797.46,135.93z"/>
</g>
<g>
	<g>
		<path class="st3" d="M911.97,749.61c5.38-5.76,10.38-7.08,16.55-7.1c3.7-0.01,10.07,1.74,13.16,6.08
			c4.27-10.36,18.19-11.13,28.25-5.79c10.15,5.39,13.09,17.23,9.71,24.77c16.79,7.98,15.96,31.67,2.77,41.02
			c-2.91,2.06-6.19,1.91-9.86,2.34c-0.25,10.15-8.35,18.54-18.87,19.84c-12.7,1.57-23.36-5.46-25.34-13.67
			c-5.2,1.14-9.45,1-12.8-0.13c-5.62-1.9-10.93-5.37-13.29-11.32c-4.99-12.56,1.22-25.03,6.79-27.98c-3.27-2.59-4.27-7.3-4.01-11.85
			C905.36,759.9,905.75,756.27,911.97,749.61z"/>
		<path class="st19" d="M912.46,749.18c5.38-5.76,10.38-7.08,16.55-7.1c3.7-0.01,10.07,1.74,13.16,6.08
			c4.27-10.36,18.19-11.13,28.25-5.79c10.15,5.39,13.09,17.23,9.71,24.77c16.79,7.98,15.96,31.67,2.76,41.02
			c-2.91,2.06-6.19,1.91-9.86,2.34c-0.25,10.15-8.35,18.54-18.87,19.84c-12.69,1.57-23.36-5.46-25.34-13.67
			c-5.2,1.14-9.45,1-12.8-0.13c-5.62-1.9-10.93-5.37-13.29-11.32c-4.99-12.56,1.22-25.03,6.79-27.98c-3.27-2.59-4.27-7.3-4.01-11.85
			C905.86,759.47,906.25,755.83,912.46,749.18z"/>
		<path class="st20" d="M940.1,780.25c-1.89,3.6-0.5,8.04,3.09,9.92c3.6,1.89,8.04,0.5,9.92-3.09c1.89-3.59,0.5-8.04-3.09-9.92
			C946.43,775.27,941.99,776.66,940.1,780.25z"/>
		<g>
			
				<rect x="941.43" y="773.92" transform="matrix(0.4646 -0.8855 0.8855 0.4646 -177.1334 1257.218)" class="st20" width="19.37" height="2.36"/>
			<path class="st20" d="M952.84,760.44c1.35-2.58,4.55-3.57,7.12-2.22c2.58,1.35,3.57,4.55,2.22,7.12
				c-1.35,2.58-4.55,3.57-7.13,2.22C952.49,766.21,951.49,763.01,952.84,760.44z M954.93,761.53c-0.75,1.43-0.2,3.2,1.23,3.95
				c1.43,0.75,3.2,0.2,3.95-1.23c0.75-1.43,0.2-3.2-1.23-3.94C957.45,759.55,955.68,760.1,954.93,761.53z"/>
		</g>
		<g>
			
				<rect x="954.98" y="775.61" transform="matrix(0.1682 -0.9857 0.9857 0.1682 21.199 1595.7164)" class="st20" width="2.36" height="19.37"/>
			<path class="st20" d="M964.54,786.73c0.49-2.87,3.22-4.8,6.09-4.31l0,0c2.87,0.49,4.8,3.22,4.31,6.09c-0.24,1.39-1,2.6-2.15,3.42
				c-1.15,0.81-2.55,1.13-3.94,0.9c-0.56-0.1-1.08-0.28-1.56-0.53C965.33,791.26,964.15,789.04,964.54,786.73z M970.24,784.73
				L970.24,784.73c-1.59-0.27-3.1,0.8-3.37,2.39c-0.13,0.77,0.04,1.54,0.5,2.18c0.45,0.64,1.12,1.06,1.89,1.19
				c0.77,0.13,1.54-0.04,2.18-0.5c0.64-0.45,1.06-1.12,1.19-1.89c0.22-1.28-0.43-2.51-1.52-3.08
				C970.84,784.89,970.55,784.79,970.24,784.73z"/>
		</g>
		<g>
			
				<rect x="946.84" y="783.57" transform="matrix(0.9895 -0.1447 0.1447 0.9895 -104.8051 145.525)" class="st20" width="2.36" height="19.37"/>
			<path class="st20" d="M944.79,807.65c-0.42-2.88,1.58-5.56,4.46-5.99c1.39-0.2,2.78,0.15,3.92,0.99
				c1.13,0.84,1.86,2.07,2.07,3.47l0,0c0.2,1.39-0.15,2.79-0.99,3.92c-0.84,1.13-2.07,1.86-3.47,2.07
				c-1.14,0.17-2.26-0.05-3.21-0.55C946.12,810.8,945.04,809.39,944.79,807.65z M949.59,804c-1.59,0.23-2.7,1.72-2.47,3.31
				c0.23,1.59,1.72,2.7,3.31,2.47c0.77-0.11,1.45-0.52,1.92-1.15c0.47-0.63,0.66-1.4,0.55-2.17l0,0c-0.11-0.77-0.52-1.45-1.15-1.92
				c-0.13-0.09-0.26-0.18-0.39-0.25C950.82,804.01,950.2,803.91,949.59,804z"/>
		</g>
		<g>
			
				<rect x="928.25" y="786.78" transform="matrix(0.8964 -0.4433 0.4433 0.8964 -252.1096 497.4476)" class="st20" width="19.37" height="2.36"/>
			<path class="st20" d="M920.85,796.41c-0.62-1.26-0.72-2.69-0.27-4.03c0.45-1.34,1.4-2.41,2.66-3.04
				c1.26-0.62,2.69-0.72,4.03-0.27c1.33,0.45,2.41,1.4,3.04,2.66c0.62,1.26,0.72,2.69,0.27,4.03c-0.45,1.34-1.4,2.41-2.66,3.04
				c-1.26,0.62-2.69,0.72-4.03,0.27c-0.27-0.09-0.53-0.2-0.77-0.33C922.14,798.23,921.35,797.42,920.85,796.41z M926.52,791.3
				c-0.74-0.25-1.53-0.2-2.23,0.15c-0.7,0.35-1.22,0.94-1.47,1.68c-0.25,0.74-0.2,1.53,0.15,2.23c0.35,0.7,0.95,1.22,1.68,1.47
				c0.74,0.25,1.53,0.2,2.23-0.15l0,0c0.7-0.35,1.22-0.94,1.47-1.68c0.25-0.74,0.2-1.53-0.15-2.23c-0.28-0.56-0.71-1-1.26-1.29
				C926.81,791.41,926.66,791.35,926.52,791.3z"/>
		</g>
		<g>
			
				<rect x="938.67" y="767.06" transform="matrix(0.7156 -0.6985 0.6985 0.7156 -275.2643 877.4323)" class="st20" width="2.36" height="19.37"/>
			
				<rect x="941.43" y="773.92" transform="matrix(0.4646 -0.8855 0.8855 0.4646 -177.1334 1257.218)" class="st20" width="19.37" height="2.36"/>
			
				<rect x="954.98" y="775.61" transform="matrix(0.1682 -0.9857 0.9857 0.1682 21.199 1595.7164)" class="st20" width="2.36" height="19.37"/>
			
				<rect x="946.84" y="783.57" transform="matrix(0.9895 -0.1447 0.1447 0.9895 -104.8051 145.525)" class="st20" width="2.36" height="19.37"/>
			
				<rect x="928.25" y="786.78" transform="matrix(0.8964 -0.4433 0.4433 0.8964 -252.1096 497.4476)" class="st20" width="19.37" height="2.36"/>
			
				<rect x="938.67" y="767.06" transform="matrix(0.7156 -0.6985 0.6985 0.7156 -275.2643 877.4323)" class="st20" width="2.36" height="19.37"/>
			<path class="st20" d="M926.44,770.56c-2.03-2.08-1.99-5.43,0.09-7.46c1.01-0.98,2.34-1.52,3.75-1.5
				c1.41,0.02,2.73,0.58,3.71,1.59c2.03,2.08,1.99,5.43-0.09,7.46c-1.01,0.98-2.34,1.52-3.75,1.5c-0.84-0.01-1.66-0.22-2.38-0.6
				C927.29,771.3,926.84,770.97,926.44,770.56z M930.26,763.96c-0.78-0.01-1.52,0.29-2.08,0.83c-0.56,0.55-0.87,1.28-0.88,2.06
				c-0.01,0.78,0.29,1.52,0.83,2.08c0.55,0.56,1.28,0.87,2.06,0.88c0.78,0.01,1.52-0.29,2.08-0.83c1.15-1.13,1.17-2.98,0.05-4.13
				c-0.22-0.22-0.47-0.41-0.73-0.55C931.17,764.08,930.72,763.96,930.26,763.96z"/>
			<path class="st20" d="M946.07,784.71c0.32,0.17,0.71,0.19,1.06,0.02l14.3-6.92c0.59-0.28,0.83-0.99,0.55-1.57
				c-0.28-0.59-0.99-0.83-1.57-0.55l-14.3,6.92c-0.59,0.28-0.83,0.99-0.55,1.57C945.67,784.42,945.85,784.6,946.07,784.71z"/>
			<path class="st20" d="M957.06,796.17c0.44,0.23,0.99,0.17,1.36-0.19c0.47-0.45,0.48-1.2,0.03-1.66l-11-11.46
				c-0.45-0.47-1.2-0.48-1.66-0.03c-0.47,0.45-0.48,1.2-0.03,1.66l11,11.46C956.85,796.04,956.95,796.11,957.06,796.17z"/>
			<path class="st20" d="M938.57,798.71c0.57,0.3,1.28,0.08,1.58-0.49l7.5-14c0.31-0.57,0.09-1.29-0.48-1.59
				c-0.54-0.29-1.29-0.09-1.59,0.48l-7.5,14C937.77,797.68,937.98,798.4,938.57,798.71C938.56,798.71,938.56,798.71,938.57,798.71z"
				/>
			<path class="st20" d="M930.43,781.9c0.1,0.05,0.22,0.09,0.34,0.12l15.63,2.81c0.64,0.12,1.25-0.31,1.37-0.95
				c0.12-0.64-0.31-1.26-0.95-1.37l-15.63-2.81c-0.64-0.12-1.25,0.31-1.37,0.95C929.73,781.17,929.99,781.67,930.43,781.9z"/>
			<path class="st20" d="M946.07,784.71c0.21,0.11,0.45,0.16,0.71,0.12c0.64-0.09,1.09-0.68,1.01-1.33l-2.16-15.73
				c-0.09-0.64-0.68-1.1-1.33-1.01c-0.64,0.09-1.09,0.68-1.01,1.33l2.16,15.73C945.5,784.22,945.74,784.54,946.07,784.71z"/>
		</g>
	</g>
	<g>
		<defs>
			<path id="SVGID_00000023239399264934966080000007791643266956322476_" d="M912.46,749.18c5.38-5.76,10.38-7.08,16.55-7.1
				c3.7-0.01,10.07,1.74,13.16,6.08c2.14-5.18,6.68-7.97,11.95-8.79c5.27-0.82,11.27,0.32,16.3,2.99
				c10.15,5.39,13.09,17.23,9.71,24.77c16.79,7.98,15.96,31.67,2.76,41.02c-2.91,2.06-6.19,1.91-9.86,2.34
				c-0.25,10.15-8.35,18.54-18.87,19.84c-12.69,1.57-23.36-5.46-25.34-13.67c-5.2,1.14-9.45,1-12.8-0.13
				c-5.62-1.9-10.93-5.37-13.29-11.32c-4.99-12.56,1.22-25.03,6.79-27.98c-3.27-2.59-4.27-7.3-4.01-11.85
				C905.86,759.47,906.25,755.83,912.46,749.18z"/>
		</defs>
		<clipPath id="SVGID_00000001653226211772335000000010657833207931222443_">
			<use xlink:href="#SVGID_00000023239399264934966080000007791643266956322476_"  style="overflow:visible;"/>
		</clipPath>
		<path style="clip-path:url(#SVGID_00000001653226211772335000000010657833207931222443_);fill:#FBE3DE;" d="M884.94,775.86
			l41.48-29.25c5.14,6.1,10.56,12.88,10.7,20.86c0.11,6.07-2.89,11.71-5.8,17.03c-5.02,9.18-10.05,18.36-15.07,27.53
			c-0.8,1.46-1.89,3.11-3.55,3.15c-0.97,0.03-1.86-0.53-2.67-1.07c-6.37-4.21-12.82-8.49-17.9-14.2
			c-5.08-5.71-8.71-13.11-8.32-20.74C883.87,777.99,884.08,776.69,884.94,775.86z"/>
	</g>
	<g>
		<g>
			<path class="st3" d="M852.93,762.64c-0.98-6.12,0.61-9.87,3.59-13.71c1.78-2.31,5.94-5.41,10.13-5.24
				c-4.37-7.66,1.87-16.67,10.05-20.35c8.25-3.7,17.03,0.19,20.07,5.93c13.07-6.57,27.39,5.38,26.82,18.1
				c-0.13,2.81-1.8,4.77-3.31,7.26c6.19,5.06,7.48,14.14,3.21,21.3c-5.16,8.64-14.68,11.87-20.73,9.14
				c-1.8,3.78-3.94,6.35-6.26,7.89c-3.9,2.57-8.61,4.2-13.45,2.79c-10.21-2.97-14.96-12.85-14.1-17.73
				c-3.19,0.78-6.59-0.88-9.3-3.24C856.13,771.71,854.06,769.71,852.93,762.64z"/>
			<path class="st22" d="M853.77,762.98c-0.98-6.12,0.62-9.87,3.59-13.71c1.78-2.31,5.94-5.41,10.13-5.24
				c-4.37-7.66,1.87-16.67,10.05-20.35c8.25-3.7,17.03,0.19,20.07,5.93c13.07-6.57,27.39,5.38,26.82,18.1
				c-0.13,2.81-1.8,4.77-3.31,7.26c6.19,5.06,7.48,14.14,3.21,21.3c-5.16,8.64-14.68,11.87-20.73,9.14
				c-1.81,3.78-3.94,6.35-6.26,7.89c-3.9,2.57-8.61,4.2-13.45,2.79c-10.21-2.97-14.96-12.85-14.1-17.73
				c-3.19,0.78-6.59-0.88-9.3-3.24C856.97,772.05,854.9,770.05,853.77,762.98z"/>
			<path class="st20" d="M886.42,760.82c1.32,2.91,4.75,4.19,7.66,2.87c2.91-1.32,4.19-4.75,2.87-7.66
				c-1.32-2.91-4.75-4.19-7.66-2.87C886.39,754.48,885.1,757.91,886.42,760.82z"/>
			<g>
				
					<rect x="887.61" y="743.87" transform="matrix(0.9104 -0.4138 0.4138 0.9104 -231.3086 434.9749)" class="st20" width="1.85" height="15.24"/>
				<path class="st20" d="M880.27,743.33c-0.95-2.08-0.02-4.55,2.06-5.5c2.08-0.95,4.55-0.02,5.5,2.06c0.95,2.08,0.02,4.55-2.06,5.5
					C883.68,746.34,881.22,745.42,880.27,743.33z M881.95,742.57c0.52,1.15,1.89,1.67,3.04,1.14s1.67-1.89,1.14-3.04
					c-0.52-1.15-1.89-1.67-3.04-1.14C881.94,740.05,881.43,741.41,881.95,742.57z"/>
			</g>
			<g>
				
					<rect x="889.69" y="752.36" transform="matrix(0.738 -0.6749 0.6749 0.738 -273.218 802.9504)" class="st20" width="15.24" height="1.85"/>
				<path class="st20" d="M902.25,748.77c-1.55-1.69-1.43-4.32,0.26-5.87l0,0c1.69-1.54,4.32-1.43,5.87,0.26
					c0.75,0.82,1.13,1.88,1.08,2.99c-0.05,1.11-0.53,2.13-1.35,2.88c-0.33,0.3-0.7,0.54-1.08,0.72
					C905.44,750.47,903.49,750.13,902.25,748.77z M903.76,744.27L903.76,744.27c-0.94,0.86-1,2.31-0.14,3.25
					c0.41,0.45,0.98,0.72,1.59,0.75c0.61,0.03,1.2-0.19,1.65-0.6c0.45-0.41,0.72-0.98,0.74-1.59c0.03-0.61-0.19-1.2-0.6-1.65
					c-0.69-0.75-1.77-0.94-2.65-0.54C904.15,743.97,903.95,744.1,903.76,744.27z"/>
			</g>
			<g>
				
					<rect x="897.39" y="754.57" transform="matrix(0.4932 -0.8699 0.8699 0.4932 -207.7915 1167.6783)" class="st20" width="1.85" height="15.24"/>
				<path class="st20" d="M905.7,771.15c-1.99-1.13-2.69-3.67-1.56-5.66c0.55-0.96,1.44-1.66,2.51-1.95
					c1.07-0.3,2.19-0.16,3.15,0.39l0,0c0.96,0.55,1.66,1.44,1.95,2.51c0.3,1.07,0.16,2.19-0.39,3.15c-0.45,0.79-1.12,1.38-1.89,1.73
					C908.3,771.84,906.9,771.83,905.7,771.15z M905.75,766.4c-0.63,1.1-0.24,2.51,0.87,3.13c1.1,0.63,2.51,0.24,3.13-0.87
					c0.3-0.53,0.38-1.15,0.22-1.75c-0.16-0.59-0.55-1.08-1.08-1.39l0,0c-0.53-0.3-1.15-0.38-1.75-0.22
					c-0.12,0.03-0.23,0.07-0.34,0.12C906.36,765.64,905.99,765.97,905.75,766.4z"/>
			</g>
			<g>
				
					<rect x="882.54" y="764.97" transform="matrix(0.2003 -0.9797 0.9797 0.2003 -38.5394 1484.5667)" class="st20" width="15.24" height="1.85"/>
				<path class="st20" d="M887.16,780.59c-1.09-0.22-2.02-0.85-2.63-1.78c-0.61-0.93-0.83-2.03-0.6-3.12
					c0.22-1.09,0.85-2.02,1.78-2.63c0.92-0.61,2.03-0.83,3.12-0.6c1.09,0.22,2.02,0.85,2.63,1.78c0.61,0.93,0.83,2.03,0.6,3.12
					c-0.22,1.09-0.85,2.02-1.78,2.63c-0.19,0.12-0.38,0.23-0.58,0.32C888.91,780.66,888.03,780.76,887.16,780.59z M886.72,774.6
					c-0.51,0.34-0.86,0.86-0.99,1.46c-0.12,0.6,0,1.22,0.33,1.73c0.34,0.51,0.86,0.86,1.46,0.99c0.6,0.12,1.22,0,1.73-0.33
					c0.51-0.34,0.86-0.86,0.99-1.46l0,0c0.12-0.6,0-1.22-0.33-1.73c-0.34-0.51-0.86-0.86-1.46-0.99c-0.48-0.1-0.97-0.04-1.41,0.16
					C886.93,774.47,886.83,774.53,886.72,774.6z"/>
			</g>
			<g>
				
					<rect x="876.5" y="758.36" transform="matrix(0.9937 -0.112 0.112 0.9937 -79.5058 103.8408)" class="st20" width="15.24" height="1.85"/>
				
					<rect x="887.61" y="743.87" transform="matrix(0.9104 -0.4138 0.4138 0.9104 -231.3086 434.9749)" class="st20" width="1.85" height="15.24"/>
				
					<rect x="889.69" y="752.36" transform="matrix(0.738 -0.6749 0.6749 0.738 -273.218 802.9504)" class="st20" width="15.24" height="1.85"/>
				
					<rect x="897.39" y="754.57" transform="matrix(0.4932 -0.8699 0.8699 0.4932 -207.7915 1167.6783)" class="st20" width="1.85" height="15.24"/>
				
					<rect x="882.54" y="764.97" transform="matrix(0.2003 -0.9797 0.9797 0.2003 -38.5394 1484.5667)" class="st20" width="15.24" height="1.85"/>
				
					<rect x="876.5" y="758.36" transform="matrix(0.9937 -0.112 0.112 0.9937 -79.5058 103.8408)" class="st20" width="15.24" height="1.85"/>
				<path class="st20" d="M873.81,764.63c-2.28,0.26-4.34-1.39-4.59-3.66c-0.12-1.1,0.19-2.19,0.88-3.05
					c0.69-0.87,1.68-1.41,2.78-1.54c2.28-0.26,4.34,1.39,4.59,3.66c0.12,1.1-0.19,2.19-0.88,3.05c-0.41,0.52-0.94,0.92-1.52,1.19
					C874.67,764.46,874.25,764.58,873.81,764.63z M871.54,759.07c-0.38,0.48-0.56,1.08-0.49,1.69c0.07,0.61,0.37,1.16,0.85,1.54
					c0.48,0.38,1.08,0.56,1.69,0.49c0.61-0.07,1.16-0.37,1.54-0.85c0.38-0.48,0.56-1.08,0.49-1.69c-0.14-1.26-1.28-2.17-2.54-2.03
					c-0.24,0.03-0.48,0.09-0.7,0.19C872.06,758.55,871.77,758.78,871.54,759.07z"/>
				<path class="st20" d="M892.07,759.27c0.26-0.12,0.46-0.35,0.52-0.65l2.61-12.22c0.11-0.5-0.21-0.99-0.71-1.1
					c-0.5-0.11-0.99,0.21-1.1,0.71l-2.61,12.22c-0.11,0.5,0.21,0.99,0.71,1.1C891.7,759.38,891.9,759.35,892.07,759.27z"/>
				<path class="st20" d="M904.5,757.98c0.35-0.16,0.58-0.53,0.54-0.94c-0.05-0.51-0.51-0.88-1.02-0.83l-12.43,1.29
					c-0.51,0.05-0.88,0.51-0.83,1.02c0.05,0.51,0.51,0.88,1.02,0.83l12.43-1.29C904.32,758.04,904.41,758.02,904.5,757.98z"/>
				<path class="st20" d="M897.14,770.69c0.46-0.21,0.67-0.75,0.46-1.22l-5.07-11.42c-0.21-0.47-0.76-0.68-1.22-0.47
					c-0.44,0.19-0.68,0.75-0.47,1.22l5.07,11.42C896.12,770.69,896.67,770.9,897.14,770.69
					C897.14,770.7,897.14,770.69,897.14,770.69z"/>
				<path class="st20" d="M882.78,767.62c0.08-0.04,0.16-0.09,0.24-0.16l9.3-8.35c0.38-0.34,0.41-0.93,0.07-1.31
					c-0.34-0.38-0.93-0.41-1.31-0.07l-9.3,8.35c-0.38,0.34-0.41,0.93-0.07,1.31C881.98,767.71,882.42,767.79,882.78,767.62z"/>
				<path class="st20" d="M892.07,759.27c0.17-0.08,0.32-0.21,0.42-0.38c0.26-0.44,0.11-1.01-0.34-1.27l-10.82-6.26
					c-0.44-0.26-1.01-0.11-1.27,0.34c-0.26,0.44-0.11,1.01,0.34,1.27l10.82,6.26C891.49,759.38,891.81,759.39,892.07,759.27z"/>
			</g>
		</g>
		<g>
			<defs>
				<path id="SVGID_00000121977455957011389090000006696725999089780921_" d="M853.77,762.98c-0.98-6.12,0.62-9.87,3.59-13.71
					c1.78-2.31,5.94-5.41,10.13-5.24c-4.37-7.66,1.87-16.67,10.05-20.35c8.25-3.7,17.03,0.19,20.07,5.93
					c4.67-2.35,9.49-2.33,13.74-0.76c7.65,2.82,13.44,10.69,13.08,18.86c-0.13,2.81-1.8,4.77-3.31,7.26
					c6.19,5.06,7.48,14.14,3.21,21.3c-5.16,8.64-14.68,11.87-20.73,9.14c-1.81,3.78-3.94,6.35-6.26,7.89
					c-3.9,2.57-8.61,4.2-13.45,2.79c-10.21-2.97-14.96-12.85-14.1-17.73c-3.19,0.78-6.59-0.88-9.3-3.24
					C856.97,772.05,854.9,770.05,853.77,762.98z"/>
			</defs>
			<clipPath id="SVGID_00000005964728829090837540000004640274862392738709_">
				<use xlink:href="#SVGID_00000121977455957011389090000006696725999089780921_"  style="overflow:visible;"/>
			</clipPath>
			<g style="clip-path:url(#SVGID_00000005964728829090837540000004640274862392738709_);">
				<path class="st24" d="M794.72,712.83c-10.16,8.03-18.81,17.44-25.97,28.25c-9.76,11.68-19.08,23.69-27.97,36.05
					c-1.72,2.58-2.26,5.4-1.63,8.43c1.15,3.38,3.58,5.36,7.27,5.95c5.54,2.11,20.08,6.52,24.59,0.2
					c7.83-11.41,16.09-22.5,24.77-33.27c5.82-9.7,13.05-18.18,21.71-25.44c5.22-5.15,4.42-10.88-1.19-14.97
					C811.8,714.75,800.11,707.88,794.72,712.83z"/>
				<path class="st24" d="M782.42,694.84c-9.79,6.98-18.63,13.37-27.05,21.96c-12.85,13.1-23.9,27.54-35.14,42.03
					c1.05,4.9,4.25,7.81,9.61,8.74c9.23,2.52,18.59,4.41,28.07,5.68c11.73,2.07,23.54,3.66,35.4,4.77
					c8.56,1.95,16.93,1.64,25.12-0.95c12.65-12.23,25.61-23.32,39.18-34.54c-1.3,1.06-2.6,2.12-3.91,3.18
					c4.5-2.63,8.99-5.27,13.49-7.9c4.3-1.37,5.36-4.03,3.17-7.98c-5.62-6.22-12.54-10.57-20.76-13.06
					c-14.14-6.32-28.52-12.04-43.14-17.16C798.8,695.77,790.78,694.18,782.42,694.84z"/>
				<path class="st24" d="M776.44,640.89c-11.66,7.07-21.79,15.91-30.38,26.52c-10.13,11.42-19.88,23.15-29.24,35.21
					c-1.5,3.14-1.04,5.97,1.36,8.48c2.87,2.17,6.04,2.92,9.53,2.25c5.95,0.17,11.86-0.37,17.73-1.62
					c7.49-0.95,14.75-2.77,21.78-5.46c11.28-10.96,22.99-21.44,35.12-31.45c8.99-8.08,18.91-14.8,29.74-20.15
					c2.34-2.66,2.61-5.51,0.79-8.55c-3.72-3.86-8.37-5.78-13.97-5.77c-9.17-1.5-18.4-2.35-27.68-2.57
					C785.74,636.74,780.81,637.78,776.44,640.89z"/>
				<path class="st24" d="M820.86,684.56c-12.12,8.42-22.47,16.09-32.53,27.43c-9.11,10.27-17.72,20.85-26.38,31.52
					c-3.61,2.63-3.8,5.49-0.56,8.57c7.12,4.17,14.91,6.17,23.36,6c15.14,1.64,30.32,2.63,45.54,2.99c8.36,1.27,16.34,0.31,23.94-2.9
					c8.23-7.9,16.83-15.38,25.78-22.45c8.49-7.28,17.79-13.28,27.93-18c15.13-8.36-17.9-18.44-19.27-18.91
					c-14.44-4.69-29.06-8.76-43.85-12.21C836.93,683.65,828.94,682.97,820.86,684.56z"/>
				<path class="st24" d="M802.71,632.67c-14.24,10.14-19.07,13.5-30.71,25.95c-10.65,11.39-20.46,23.49-30.41,35.5
					c-3.84,4.64-3.74,11.75,2.59,14.38c5.01,0.65,9.98,0.41,14.93-0.72c5.03-0.67,9.78-2.18,14.25-4.53
					c9.94-11.05,20.28-21.73,31-32.03c9.05-8.8,19.12-16.21,30.22-22.21c5.49-3.47,6.64-10.64,0.78-14.59
					c-5.24-1.81-10.65-2.75-16.22-2.8C813.59,631.07,808.12,631.43,802.71,632.67z"/>
				<path class="st24" d="M753.76,673.36c-11.81,7.06-22.11,15.91-30.87,26.54c-9.96,11.36-19.5,23.06-28.63,35.11
					c-8.44,10.74,11.65,12.86,16.73,13.4c10.9,0.87,21.81,1.1,32.74,0.68c6.33,0.74,12.03-0.63,17.09-4.1
					c8.38-8.51,17.13-16.63,26.23-24.36c7.72-7.66,16.48-13.86,26.27-18.59c3.19-1.96,4.09-4.68,2.69-8.16
					c-3.52-4.92-8.34-8.08-14.46-9.46c-9.98-3.97-20.15-7.32-30.54-10.07C765.27,671.82,759.52,671.49,753.76,673.36z"/>
				<path class="st24" d="M776.74,718.5c-11.61,6.93-21.83,15.52-30.66,25.78c-9.63,11.63-18.83,23.6-27.58,35.9
					c-1.92,2.51-2.54,5.3-1.86,8.39c1.38,3.57,4.05,5.68,8.01,6.34c5.62,1.9,11.38,3.18,17.28,3.82c3.87,1.08,7.18,0.29,9.94-2.37
					c7.37-11.12,15.16-21.94,23.38-32.45c7.85-8.71,16.96-15.81,27.32-21.3c2.49-1.89,3.88-4.4,4.16-7.52
					c-0.18-3.69-2-6.4-5.48-8.13C796.44,723.16,783.29,713.88,776.74,718.5z"/>
				<path class="st24" d="M827.73,674.53c-11.72,6.79-22.08,15.27-31.06,25.43c-9.95,11.27-19.5,22.87-28.64,34.8
					c-1.72,2.87-1.7,5.74,0.05,8.59c3.17,3.37,7.17,4.83,12,4.39c7.69,0.6,15.38,0.56,23.06-0.13c4.84,0.38,8.82-1.13,11.95-4.53
					c8.84-10.19,18.08-20.01,27.72-29.45c9.61-8.01,20.09-14.63,31.45-19.85c2.41-2.39,3.04-5.19,1.88-8.38
					c-2.56-4.08-6.35-6.45-11.36-7.12c-7.77-2.4-15.69-4.18-23.75-5.32C836.23,671.4,831.79,671.93,827.73,674.53z"/>
				<path class="st24" d="M768.77,657.58c-11.89,7.02-22.24,15.86-31.04,26.52c-9.88,11.28-19.36,22.88-28.46,34.8
					c-9.56,12.1,17.29,11.91,20.77,11.98c12.93-0.03,25.82-0.71,38.69-2.03c7.33,0.29,13.95-1.54,19.86-5.51
					c9.17-8.16,18.68-15.9,28.53-23.23c8.64-7.49,18.15-13.59,28.56-18.32c3.46-2.22,4.03-5.03,1.69-8.42
					c-5.38-4.81-11.76-7.61-19.14-8.4c-12.72-3.22-25.57-5.8-38.55-7.75C782.56,655.11,775.59,655.23,768.77,657.58z"/>
				<path class="st24" d="M801.72,655.03c-11.71,6.91-21.9,15.62-30.56,26.12c-9.74,11.02-19.11,22.34-28.12,33.96
					c-10.33,12.89,20.55,11.71,23.45,11.73c14.61-0.19,29.17-1.02,43.71-2.5c8.15,0.25,15.63-1.67,22.44-5.75
					c9.4-8.01,19.14-15.59,29.21-22.74c9.06-7.34,18.89-13.43,29.5-18.26c3.79-2.31,4.23-5.14,1.31-8.49
					c-6.64-4.77-14.13-7.43-22.49-7.99c-14.77-2.94-29.64-5.23-44.61-6.9C817.43,652.22,809.48,652.49,801.72,655.03z"/>
				<path class="st24" d="M824.53,698.7c-13.26,6.07-25.22,14.08-35.88,24.04c-9.59,11.43-18.76,23.2-27.5,35.3
					c-1.76,2.71-2.03,5.57-0.78,8.55c2.27,3.51,5.6,5.31,9.99,5.39c6.61,1.25,13.29,1.86,20.02,1.83c4.33,0.71,7.93-0.45,10.8-3.49
					c5.86-8.02,12.03-15.78,18.52-23.29c5.82-8.63,13.85-14.65,24.11-18.04c-1.39,0.64-2.78,1.27-4.18,1.91
					c7.79-3.36,15.58-6.73,23.37-10.09c2.44-2.2,3.36-4.91,2.76-8.14c-1.6-4.06-4.63-6.66-9.07-7.78
					c-6.53-2.9-13.27-5.18-20.22-6.85C832.25,696.23,828.27,696.45,824.53,698.7z"/>
				<path class="st24" d="M757.2,692.55c-11.8,7.11-22.12,15.95-30.99,26.52c-9.88,11.34-19.33,23.03-28.34,35.06
					c-8.01,10.29,8.03,13.73,14.91,15.34c10.67,2.19,21.43,3.75,32.29,4.66c6.17,1.5,11.98,0.84,17.41-1.99
					c7.51-8.9,15.41-17.44,23.7-25.63c7.39-8.12,15.93-14.76,25.63-19.91c10.91-7.04-4.02-15.52-9.44-18.58
					c-9.24-4.88-18.74-9.16-28.51-12.86C768.51,692.11,762.96,691.24,757.2,692.55z"/>
			</g>
			<g style="clip-path:url(#SVGID_00000005964728829090837540000004640274862392738709_);">
				<g>
					<path class="st25" d="M863.36,761.42c0.18,0.76-0.01,0.67,0.78,0.48C863.96,761.14,864.15,761.23,863.36,761.42z"/>
					<path class="st25" d="M857.25,766.13c0.18,0.76-0.01,0.67,0.78,0.48C857.85,765.86,858.04,765.95,857.25,766.13z"/>
					<path class="st25" d="M874.39,742.69c0.09,0.78-0.09,0.66,0.72,0.56C875.01,742.48,875.19,742.59,874.39,742.69z"/>
					<path class="st25" d="M879.56,750.21c0.24,1.99,0.82,1.43,0.64-0.08C879.99,750.16,879.77,750.19,879.56,750.21z"/>
					<path class="st25" d="M866.64,741.72c-0.07,0.57,0.54,1.2,0.64,0.06C867.06,741.76,866.85,741.74,866.64,741.72z"/>
					<path class="st25" d="M862.91,754.52c0.02,0.51,0.73,1.16,0.64-0.05C863.34,754.48,863.12,754.5,862.91,754.52z"/>
					<path class="st25" d="M873.67,764.43c0.02,0.51,0.73,1.16,0.64-0.05C874.1,764.4,873.89,764.41,873.67,764.43z"/>
					<path class="st25" d="M864.22,737.21c0.49-0.08,1.07-0.87-0.12-0.63C864.13,736.79,864.17,737,864.22,737.21z"/>
					<path class="st25" d="M871.5,733.93c0.21,1.54,0.01,1.3,0.82,1.19C873.13,734.96,873.44,733.66,871.5,733.93z"/>
					<path class="st25" d="M882.28,731.25c0.03,0.21,0.06,0.43,0.08,0.64C883.2,731.43,882.79,731.15,882.28,731.25z"/>
					<path class="st25" d="M888.59,752.15c0.05,0.78-0.12,0.66,0.69,0.6C889.23,751.98,889.4,752.1,888.59,752.15z"/>
					<path class="st25" d="M849.39,738.42c-1,0.36-0.32,1.44,0.44,1.22C849.68,739.23,849.54,738.82,849.39,738.42z"/>
					<path class="st25" d="M841.94,727.47c0.12,1.2,0.71,0.43,0.64-0.06C842.37,727.43,842.16,727.45,841.94,727.47z"/>
					<path class="st25" d="M860.04,714.01c0.12,1.2,0.71,0.43,0.64-0.06C860.47,713.97,860.25,713.99,860.04,714.01z"/>
					<path class="st25" d="M850.57,748.65c0.12,1.2,0.71,0.43,0.64-0.06C851,748.61,850.78,748.63,850.57,748.65z"/>
					<path class="st25" d="M872.73,722.23c0.06,0.49,0.84,1.09,0.64-0.11C873.15,722.16,872.94,722.19,872.73,722.23z"/>
					<path class="st25" d="M872.68,753.37c0.04,0.21,0.09,0.42,0.13,0.63C873.46,753.75,873.42,753.54,872.68,753.37z"/>
					<path class="st25" d="M863.87,726.22c-0.26-0.73-0.06-0.66-0.83-0.39C863.68,727.61,864.09,726.78,863.87,726.22z"/>
					<path class="st25" d="M860.76,745.25c-1.04-1.21-1.36-1.88-1.25,0.31C859.93,745.46,860.34,745.35,860.76,745.25z"/>
					<path class="st25" d="M852,716.98c0.03,0.21,0.06,0.43,0.09,0.64C852.92,717.15,852.51,716.87,852,716.98z"/>
					<path class="st25" d="M838.3,741.58c0.03,0.21,0.06,0.43,0.09,0.64C839.22,741.75,838.81,741.47,838.3,741.58z"/>
					<path class="st25" d="M879.17,714.69c0.05,0.78-0.11,0.66,0.69,0.6C879.8,714.51,879.98,714.63,879.17,714.69z"/>
					<path class="st25" d="M886.63,739.91c-0.14-0.48,0.33-1.34,0.63-0.16C887.04,739.81,886.84,739.86,886.63,739.91z"/>
					<path class="st25" d="M887.59,723.15c-0.13-0.48,0.35-1.33,0.63-0.15C888.01,723.05,887.8,723.1,887.59,723.15z"/>
					<path class="st25" d="M894.36,742.44c-0.11-0.77,0.07-0.66-0.73-0.54C893.74,742.67,893.55,742.56,894.36,742.44z"/>
					<path class="st25" d="M857.55,732.68c-0.11-0.77,0.07-0.66-0.73-0.54C856.93,732.9,856.75,732.8,857.55,732.68z"/>
					<path class="st25" d="M845.26,755.82c-0.11-0.77,0.07-0.66-0.73-0.54C844.64,756.04,844.46,755.94,845.26,755.82z"/>
				</g>
				<g>
					<path class="st25" d="M893.2,737.4c0.18,0.76-0.01,0.67,0.78,0.48C893.8,737.12,893.99,737.21,893.2,737.4z"/>
					<path class="st25" d="M887.09,742.12c0.18,0.76-0.01,0.67,0.78,0.48C887.69,741.84,887.88,741.93,887.09,742.12z"/>
					<path class="st25" d="M904.21,718.66c0.09,0.78-0.09,0.66,0.72,0.56C904.83,718.45,905.01,718.56,904.21,718.66z"/>
					<path class="st25" d="M909.38,726.18c0.25,1.99,0.83,1.43,0.64-0.08C909.81,726.12,909.6,726.15,909.38,726.18z"/>
					<path class="st25" d="M896.45,717.69c-0.07,0.57,0.54,1.2,0.64,0.06C896.88,717.73,896.67,717.71,896.45,717.69z"/>
					<path class="st25" d="M892.74,730.49c0.02,0.51,0.73,1.16,0.64-0.05C893.17,730.46,892.95,730.48,892.74,730.49z"/>
					<path class="st25" d="M903.51,740.4c0.02,0.51,0.73,1.16,0.64-0.05C903.94,740.37,903.73,740.38,903.51,740.4z"/>
					<path class="st25" d="M894.03,713.19c0.49-0.08,1.07-0.87-0.12-0.63C893.95,712.76,893.99,712.97,894.03,713.19z"/>
					<path class="st25" d="M901.31,709.9c0.21,1.54,0.01,1.3,0.82,1.19C902.95,710.93,903.25,709.63,901.31,709.9z"/>
					<path class="st25" d="M912.09,707.21c0.03,0.21,0.06,0.43,0.09,0.64C913.01,707.39,912.6,707.11,912.09,707.21z"/>
					<path class="st25" d="M918.42,728.11c0.06,0.78-0.12,0.66,0.69,0.6C919.05,727.93,919.23,728.05,918.42,728.11z"/>
					<path class="st25" d="M879.21,714.41c-1,0.36-0.32,1.44,0.44,1.22C879.5,715.22,879.35,714.81,879.21,714.41z"/>
					<path class="st25" d="M871.75,703.47c0.12,1.2,0.71,0.43,0.64-0.07C872.18,703.43,871.97,703.45,871.75,703.47z"/>
					<path class="st25" d="M889.83,689.99c0.12,1.2,0.71,0.43,0.64-0.06C890.26,689.95,890.05,689.97,889.83,689.99z"/>
					<path class="st25" d="M880.4,724.64c0.12,1.2,0.71,0.43,0.64-0.07C880.82,724.59,880.61,724.62,880.4,724.64z"/>
					<path class="st25" d="M902.53,698.2c0.06,0.49,0.84,1.09,0.64-0.11C902.95,698.12,902.74,698.16,902.53,698.2z"/>
					<path class="st25" d="M902.51,729.34c0.04,0.21,0.09,0.42,0.14,0.63C903.29,729.72,903.25,729.51,902.51,729.34z"/>
					<path class="st25" d="M893.68,702.2c-0.26-0.73-0.06-0.66-0.83-0.39C893.49,703.58,893.9,702.76,893.68,702.2z"/>
					<path class="st25" d="M890.59,721.23c-1.04-1.21-1.36-1.88-1.25,0.31C889.75,721.44,890.17,721.33,890.59,721.23z"/>
					<path class="st25" d="M881.8,692.97c0.03,0.21,0.06,0.43,0.09,0.64C882.72,693.13,882.31,692.86,881.8,692.97z"/>
					<path class="st25" d="M868.12,717.58c0.03,0.21,0.06,0.43,0.09,0.64C869.04,717.75,868.63,717.47,868.12,717.58z"/>
					<path class="st25" d="M908.96,690.65c0.05,0.78-0.11,0.66,0.69,0.6C909.6,690.47,909.77,690.6,908.96,690.65z"/>
					<path class="st25" d="M916.44,715.87c-0.14-0.48,0.33-1.34,0.63-0.16C916.86,715.76,916.65,715.82,916.44,715.87z"/>
					<path class="st25" d="M917.39,699.11c-0.13-0.48,0.35-1.33,0.63-0.15C917.81,699.01,917.6,699.06,917.39,699.11z"/>
					<path class="st25" d="M924.18,718.39c-0.11-0.77,0.07-0.66-0.73-0.54C923.56,718.62,923.37,718.51,924.18,718.39z"/>
					<path class="st25" d="M887.37,708.66c-0.11-0.77,0.07-0.66-0.73-0.54C886.75,708.89,886.56,708.78,887.37,708.66z"/>
					<path class="st25" d="M875.09,731.81c-0.11-0.77,0.07-0.66-0.73-0.54C874.47,732.04,874.29,731.93,875.09,731.81z"/>
				</g>
			</g>
			<g style="clip-path:url(#SVGID_00000005964728829090837540000004640274862392738709_);">
				<g>
					<path class="st25" d="M865.25,774.3c0.07,0.78-0.11,0.66,0.7,0.59C865.88,774.11,866.06,774.22,865.25,774.3z"/>
					<path class="st25" d="M858.53,778.09c0.07,0.78-0.11,0.66,0.7,0.59C859.16,777.91,859.34,778.02,858.53,778.09z"/>
					<path class="st25" d="M878.83,757.33c-0.02,0.78-0.18,0.64,0.63,0.66C879.47,757.21,879.64,757.35,878.83,757.33z"/>
					<path class="st25" d="M882.87,765.51c-0.04,2.01,0.61,1.53,0.65,0.01C883.3,765.52,883.09,765.51,882.87,765.51z"/>
					<path class="st25" d="M871.29,755.26c-0.15,0.55,0.36,1.27,0.63,0.15C871.71,755.36,871.5,755.31,871.29,755.26z"/>
					<path class="st25" d="M865.78,767.4c-0.05,0.51,0.56,1.25,0.64,0.04C866.21,767.43,866,767.42,865.78,767.4z"/>
					<path class="st25" d="M875.03,778.75c-0.05,0.51,0.56,1.25,0.64,0.04C875.46,778.78,875.24,778.76,875.03,778.75z"/>
					<path class="st25" d="M869.54,750.45c0.5-0.01,1.18-0.71-0.03-0.65C869.52,750.02,869.53,750.24,869.54,750.45z"/>
					<path class="st25" d="M877.21,748.24c-0.01,1.55-0.18,1.29,0.64,1.3C878.68,749.5,879.17,748.26,877.21,748.24z"/>
					<path class="st25" d="M888.27,747.13c0,0.22,0,0.43-0.01,0.65C889.15,747.43,888.79,747.1,888.27,747.13z"/>
					<path class="st25" d="M891.54,768.72c-0.06,0.78-0.21,0.63,0.6,0.69C892.19,768.63,892.35,768.78,891.54,768.72z"/>
					<path class="st25" d="M854.69,749.54c-1.05,0.21-0.53,1.38,0.26,1.27C854.87,750.39,854.78,749.96,854.69,749.54z"/>
					<path class="st25" d="M848.88,737.65c-0.05,1.2,0.64,0.53,0.65,0.03C849.31,737.67,849.09,737.66,848.88,737.65z"/>
					<path class="st25" d="M868.71,726.9c-0.05,1.2,0.64,0.53,0.65,0.03C869.14,726.92,868.92,726.91,868.71,726.9z"/>
					<path class="st25" d="M854.4,759.84c-0.05,1.2,0.64,0.53,0.65,0.03C854.83,759.85,854.62,759.85,854.4,759.84z"/>
					<path class="st25" d="M880.09,736.84c-0.01,0.5,0.67,1.2,0.65-0.01C880.52,736.83,880.31,736.83,880.09,736.84z"/>
					<path class="st25" d="M875.61,767.66c0.01,0.21,0.03,0.43,0.04,0.64C876.33,768.15,876.32,767.93,875.61,767.66z"/>
					<path class="st25" d="M870.76,739.53c-0.15-0.76,0.03-0.67-0.76-0.5C870.38,740.87,870.9,740.11,870.76,739.53z"/>
					<path class="st25" d="M864.98,757.92c-0.85-1.35-1.08-2.05-1.29,0.13C864.12,758.01,864.55,757.96,864.98,757.92z"/>
					<path class="st25" d="M860.33,728.69c0,0.22,0,0.43,0,0.65C861.21,728.99,860.85,728.66,860.33,728.69z"/>
					<path class="st25" d="M843.27,751.1c0,0.22,0,0.43,0,0.65C844.15,751.39,843.79,751.06,843.27,751.1z"/>
					<path class="st25" d="M887.54,730.29c-0.06,0.78-0.21,0.63,0.59,0.69C888.2,730.2,888.35,730.35,887.54,730.29z"/>
					<path class="st25" d="M891.34,756.32c-0.07-0.49,0.52-1.28,0.64-0.07C891.77,756.28,891.55,756.3,891.34,756.32z"/>
					<path class="st25" d="M894.67,739.86c-0.06-0.49,0.54-1.27,0.64-0.06C895.1,739.83,894.89,739.85,894.67,739.86z"/>
					<path class="st25" d="M898.63,759.93c0-0.78,0.16-0.65-0.65-0.64C897.98,760.06,897.82,759.93,898.63,759.93z"/>
					<path class="st25" d="M863.59,745.02c0-0.78,0.16-0.65-0.65-0.64C862.94,745.16,862.78,745.03,863.59,745.02z"/>
					<path class="st25" d="M848.13,766.18c0-0.78,0.16-0.65-0.65-0.64C847.48,766.31,847.32,766.18,848.13,766.18z"/>
				</g>
				<g>
					<path class="st25" d="M887.74,746.1c-0.16,0.76-0.3,0.6,0.5,0.77C888.4,746.1,888.54,746.27,887.74,746.1z"/>
					<path class="st25" d="M880.21,747.76c-0.16,0.76-0.3,0.6,0.5,0.77C880.87,747.77,881,747.93,880.21,747.76z"/>
					<path class="st25" d="M905.69,733.84c-0.25,0.74-0.36,0.56,0.41,0.82C906.35,733.92,906.47,734.1,905.69,733.84z"/>
					<path class="st25" d="M907.17,742.85c-0.63,1.91,0.14,1.64,0.61,0.2C907.58,742.99,907.38,742.92,907.17,742.85z"/>
					<path class="st25" d="M899.09,729.67c-0.31,0.48-0.03,1.32,0.56,0.33C899.46,729.88,899.28,729.77,899.09,729.67z"/>
					<path class="st25" d="M890.27,739.66c-0.2,0.47,0.17,1.36,0.6,0.23C890.68,739.81,890.47,739.74,890.27,739.66z"/>
					<path class="st25" d="M895.79,753.21c-0.2,0.47,0.17,1.36,0.6,0.23C896.2,753.37,896,753.29,895.79,753.21z"/>
					<path class="st25" d="M898.83,724.55c0.48,0.14,1.34-0.33,0.16-0.63C898.93,724.14,898.88,724.35,898.83,724.55z"/>
					<path class="st25" d="M906.81,724.69c-0.46,1.48-0.55,1.18,0.23,1.43C907.85,726.32,908.68,725.27,906.81,724.69z"/>
					<path class="st25" d="M917.71,726.86c-0.07,0.21-0.13,0.41-0.2,0.62C918.47,727.4,918.22,726.98,917.71,726.86z"/>
					<path class="st25" d="M914.52,748.45c-0.28,0.73-0.39,0.54,0.37,0.84C915.17,748.56,915.28,748.75,914.52,748.45z"/>
					<path class="st25" d="M884.9,719.34c-1.06-0.1-0.91,1.17-0.12,1.29C884.81,720.19,884.86,719.77,884.9,719.34z"/>
					<path class="st25" d="M882.82,706.26c-0.4,1.14,0.46,0.69,0.61,0.22C883.22,706.41,883.02,706.34,882.82,706.26z"/>
					<path class="st25" d="M904.92,701.78c-0.4,1.14,0.46,0.69,0.61,0.22C905.33,701.93,905.12,701.86,904.92,701.78z"/>
					<path class="st25" d="M881.61,729.1c-0.4,1.14,0.46,0.69,0.61,0.22C882.01,729.24,881.81,729.17,881.61,729.1z"/>
					<path class="st25" d="M912.9,714.62c-0.15,0.48,0.29,1.35,0.62,0.17C913.32,714.74,913.11,714.68,912.9,714.62z"/>
					<path class="st25" d="M899.6,742.78c-0.05,0.21-0.1,0.42-0.15,0.63C900.15,743.46,900.2,743.25,899.6,742.78z"/>
					<path class="st25" d="M903.19,714.47c0.08-0.77,0.23-0.63-0.58-0.71C902.43,715.64,903.16,715.06,903.19,714.47z"/>
					<path class="st25" d="M892.28,730.36c-0.42-1.54-0.43-2.28-1.27-0.25C891.43,730.19,891.86,730.27,892.28,730.36z"/>
					<path class="st25" d="M896.39,701.05c-0.06,0.21-0.13,0.41-0.19,0.62C897.15,701.59,896.9,701.17,896.39,701.05z"/>
					<path class="st25" d="M873.52,717.48c-0.06,0.21-0.13,0.41-0.19,0.62C874.28,718.02,874.03,717.6,873.52,717.48z"/>
					<path class="st25" d="M921.94,710.54c-0.29,0.73-0.38,0.54,0.36,0.84C922.59,710.65,922.7,710.84,921.94,710.54z"/>
					<path class="st25" d="M917.95,736.54c0.08-0.49,0.87-1.07,0.63,0.12C918.38,736.62,918.16,736.58,917.95,736.54z"/>
					<path class="st25" d="M925.96,721.78c0.09-0.49,0.89-1.05,0.63,0.13C926.38,721.87,926.17,721.83,925.96,721.78z"/>
					<path class="st25" d="M923.87,742.12c0.22-0.74,0.34-0.57-0.43-0.81C923.21,742.06,923.09,741.89,923.87,742.12z"/>
					<path class="st25" d="M894.73,717.62c0.22-0.74,0.35-0.57-0.43-0.81C894.07,717.56,893.95,717.39,894.73,717.62z"/>
					<path class="st25" d="M873.75,733.32c0.22-0.74,0.34-0.57-0.43-0.81C873.1,733.26,872.98,733.09,873.75,733.32z"/>
				</g>
			</g>
		</g>
	</g>
</g>
</svg>
