<?xml version="1.0" encoding="utf-8"?>
<!-- Generator: Adobe Illustrator 26.0.2, SVG Export Plug-In . SVG Version: 6.00 Build 0)  -->
<svg version="1.1" id="Layer_1" xmlns="http://www.w3.org/2000/svg" xmlns:xlink="http://www.w3.org/1999/xlink" x="0px" y="0px"
	 viewBox="0 0 512 512" style="enable-background:new 0 0 512 512;" xml:space="preserve">
<style type="text/css">
	.st0{fill:#FFFFFF;}
	.st1{fill:none;stroke:#FFFFFF;stroke-width:8;stroke-miterlimit:10;}
</style>
<g>
	<g>
		<path class="st0" d="M398.1,310.5V119.7c0-1.7-0.7-3.3-2-4.5c-1.3-1.1-3-1.6-4.7-1.4l-178.7,24.7c-2.9,0.4-5.1,2.9-5.1,5.9v163.2
			h0c-5.6-5.5-12.9-9.6-21.5-11.9c-14-3.7-29.9-2.4-44.7,3.7c-14.9,6.2-27,16.4-34.3,29c-7.5,13-8.9,27-3.8,39.2
			c5.1,12.2,15.9,21.1,30.4,25c5.2,1.4,10.7,2.1,16.3,2.1c9.4,0,19.1-2,28.5-5.8c14.9-6.2,27-16.4,34.3-29
			c4.8-8.3,7.1-16.9,6.8-25.2V192.1L386.3,169v114.4c-5.6-5.5-12.9-9.6-21.5-11.9c-14-3.7-29.9-2.4-44.7,3.7
			c-14.9,6.2-27,16.4-34.3,29c-7.5,13-8.9,27-3.8,39.2c5.1,12.2,15.9,21.1,30.4,25c5.2,1.4,10.7,2.1,16.3,2.1c9.4,0,19.1-2,28.5-5.8
			c14.9-6.2,27-16.4,34.3-29C396.1,327.4,398.4,318.8,398.1,310.5z M173.7,378c-12.5,5.2-25.6,6.3-37.1,3.2
			c-10.9-2.9-18.9-9.3-22.5-18.1c-3.6-8.7-2.5-18.9,3.2-28.7c5.9-10.3,16.1-18.8,28.5-24c8.1-3.3,16.3-4.9,24-4.9
			c16.3,0,30.4,7.1,35.6,19.7C213.1,343.9,198.9,367.5,173.7,378z M386.3,157l-166.9,23.1v-30.5l166.9-23.1V157z M381,329.7
			c-5.9,10.3-16.1,18.8-28.5,24c-25.2,10.4-51.9,3.8-59.6-14.8c-7.7-18.6,6.5-42.2,31.7-52.6c7.9-3.3,16.1-4.9,23.9-4.9
			c4.5,0,9,0.6,13.2,1.7c10.9,2.9,18.9,9.3,22.5,18.1C387.8,309.8,386.7,320,381,329.7z"/>
	</g>
</g>
<g>
	<g>
		<path class="st0" d="M399,123.1c-0.5-3.7-3.9-6.3-7.6-5.8l-12.2,1.7c-3.7,0.5-6.3,3.9-5.8,7.6c0.5,3.4,3.4,5.9,6.7,5.9
			c0.3,0,0.6,0,0.9-0.1l12.2-1.7C396.9,130.2,399.5,126.8,399,123.1z"/>
	</g>
</g>
<g>
	<g>
		<path class="st0" d="M363,128.1c-0.5-3.7-3.9-6.3-7.6-5.8l-125.5,17.4c-3.7,0.5-6.3,3.9-5.8,7.6c0.5,3.4,3.4,5.9,6.7,5.9
			c0.3,0,0.6,0,0.9-0.1l125.5-17.4C361,135.2,363.6,131.8,363,128.1z"/>
	</g>
</g>
<circle class="st1" cx="256" cy="256" r="239"/>
</svg>
