<?xml version="1.0" encoding="utf-8"?>
<!-- Generator: Adobe Illustrator 26.0.2, SVG Export Plug-In . SVG Version: 6.00 Build 0)  -->
<svg version="1.1" id="Layer_1" xmlns="http://www.w3.org/2000/svg" xmlns:xlink="http://www.w3.org/1999/xlink" x="0px" y="0px"
	 viewBox="0 0 1125 417" style="enable-background:new 0 0 1125 417;" xml:space="preserve">
<style type="text/css">
	.st0{fill:#FCEAE5;}
	.st1{fill:url(#SVGID_1_);}
	.st2{fill:url(#SVGID_00000037658345882821464910000010869846772194285986_);}
	.st3{fill:url(#SVGID_00000121994016801923768580000014632149686236110256_);}
	.st4{fill:url(#SVGID_00000179615476216247585150000015359719068816242061_);}
	.st5{fill:url(#SVGID_00000109749125548631690660000018164824633118086825_);}
	.st6{fill:url(#SVGID_00000003072783799851857360000003793960517470957192_);}
	.st7{fill:url(#SVGID_00000132061647419615885520000011072119023640570787_);}
	.st8{fill:url(#SVGID_00000022555110683604637170000012428038377444796057_);}
	.st9{fill:url(#SVGID_00000065074497504760987860000017212983080986561178_);}
	.st10{fill:url(#SVGID_00000108285723154061058710000010621526127957553303_);}
	.st11{fill:url(#SVGID_00000048491742216931273560000006035333323870861485_);}
	.st12{fill:#FBDA7A;}
	.st13{fill:url(#SVGID_00000140715030809276641120000010008049174610525081_);}
	.st14{fill:url(#SVGID_00000077295882887334904070000000512198440125054614_);}
	.st15{fill:url(#SVGID_00000168820188058496047090000009581629191290145965_);}
	.st16{fill:url(#SVGID_00000086658630564073946560000014930752007550589574_);}
	.st17{fill:url(#SVGID_00000169538197888901274510000013716430995490023089_);}
	.st18{fill:url(#SVGID_00000031167773578083405890000007210704593320063392_);}
	.st19{fill:url(#SVGID_00000151503637606695801360000017492886596338401168_);}
	.st20{fill:url(#SVGID_00000060749789639343142310000013028063930586226062_);}
	.st21{fill:url(#SVGID_00000119821956051636984060000013326499047490381472_);}
	.st22{fill:url(#SVGID_00000025419654356219710450000009838378765867292077_);}
	.st23{fill:url(#SVGID_00000062913749281771693800000006462531168637314445_);}
	.st24{fill:url(#SVGID_00000022556504220226838550000001813471973447408259_);}
	.st25{fill:url(#SVGID_00000136371626922319412040000008549844858580102833_);}
	.st26{fill:url(#SVGID_00000090270323365899658620000015706454449164000142_);}
	.st27{fill:url(#SVGID_00000071541294244109369790000015478152973332942751_);}
	.st28{fill:url(#SVGID_00000137814526775945987610000000471823329406770065_);}
	.st29{fill:url(#SVGID_00000170272363657007699060000005568964390078488766_);}
	.st30{fill:url(#SVGID_00000181799105345470073930000003973747839747184264_);}
	.st31{fill:url(#SVGID_00000025411072109218062480000007318663108467648400_);}
	.st32{fill:url(#SVGID_00000122001486285455094440000014154846633726525347_);}
	.st33{fill:url(#SVGID_00000086694048549274280330000017389112695518300315_);}
	.st34{fill:url(#SVGID_00000165193029672574985320000012394672509174769080_);}
</style>
<g>
	<path class="st0" d="M56.85,134.48c-2.2,19.13-3.02,38.28-3.92,57.43c-0.95,19.17-1.59,38.32-2.06,57.49
		c-0.01,0.35-0.3,0.62-0.64,0.61c-0.35-0.01-0.62-0.3-0.61-0.64v0l0-0.03c0.48-19.15,0.79-38.3,0.79-57.44
		c0.05-19.16,0.18-38.32-1.07-57.51l-0.01-0.09c-0.14-2.08,1.44-3.88,3.53-4.02c2.08-0.14,3.88,1.44,4.02,3.52
		C56.88,134.02,56.87,134.26,56.85,134.48z"/>
	<path class="st0" d="M277.33,193.27c-0.68,5.65-1.17,11.27-1.5,16.86c-0.45,5.59-0.57,11.13-0.61,16.69
		c-0.28,11.19-0.35,22.37-0.19,33.54c0,0.35-0.27,0.63-0.62,0.64c-0.35,0.01-0.63-0.27-0.64-0.62v0l0-0.06
		c-0.14-11.15-0.4-22.29-1.08-33.41c-0.47-5.6-0.51-11.22-0.92-16.79c-0.28-5.57-0.92-11.11-1.96-16.61
		c-0.39-2.06,0.97-4.05,3.03-4.44c2.06-0.39,4.05,0.97,4.44,3.03C277.36,192.49,277.37,192.9,277.33,193.27z"/>
	<path class="st0" d="M644.1,2.29c-1.02,12.69-1.81,25.39-2.29,38.09c-0.63,12.7-0.83,25.4-1.24,38.1l-1.09,38.12
		c-0.44,12.7-0.52,25.41-0.76,38.11c-0.01,0.35-0.29,0.62-0.64,0.62c-0.35-0.01-0.62-0.32-0.62-0.67
		c0.14-12.7,0.44-25.39,0.37-38.09l0.04-38.09c-0.04-12.7,0.14-25.4-0.12-38.11c-0.11-12.7-0.52-25.41-1.17-38.11l0-0.08
		c-0.11-2.08,1.49-3.85,3.57-3.96c2.08-0.11,3.85,1.49,3.96,3.57C644.11,1.96,644.11,2.14,644.1,2.29z"/>
	<g>
		<linearGradient id="SVGID_1_" gradientUnits="userSpaceOnUse" x1="398.3097" y1="84.3487" x2="448.2634" y2="124.9478">
			<stop  offset="0" style="stop-color:#FCEAE5"/>
			<stop  offset="0.0495" style="stop-color:#FCE9DD"/>
			<stop  offset="0.1252" style="stop-color:#FCE6C8"/>
			<stop  offset="0.2177" style="stop-color:#FBE0A5"/>
			<stop  offset="0.3131" style="stop-color:#FBDA7A"/>
		</linearGradient>
		<path class="st1" d="M402.41,86.09c9.13,5.13,18.71,9.25,27.4,15.02c8.68,5.77,16.25,12.98,22.52,21.14
			c0.21,0.27,0.16,0.67-0.11,0.88c-0.27,0.21-0.67,0.16-0.88-0.11c-6.27-7.98-14.1-14.75-23.04-19.38
			c-8.89-4.72-18.52-7.96-28.67-9.58c-2.34-0.37-3.93-2.57-3.56-4.91c0.37-2.34,2.57-3.93,4.91-3.56
			C401.49,85.67,401.98,85.85,402.41,86.09z"/>
		
			<linearGradient id="SVGID_00000047754691838277143020000013994345191195602054_" gradientUnits="userSpaceOnUse" x1="438.4686" y1="57.6781" x2="452.5005" y2="121.2893">
			<stop  offset="0" style="stop-color:#FCEAE5"/>
			<stop  offset="0.0495" style="stop-color:#FCE9DD"/>
			<stop  offset="0.1252" style="stop-color:#FCE6C8"/>
			<stop  offset="0.2177" style="stop-color:#FBE0A5"/>
			<stop  offset="0.3131" style="stop-color:#FBDA7A"/>
		</linearGradient>
		<path style="fill:url(#SVGID_00000047754691838277143020000013994345191195602054_);" d="M441.24,62.53
			c3.56,9.84,8.29,19.15,11.67,29.04c3.32,9.87,5.55,20.26,4.86,30.67c-0.02,0.35-0.32,0.61-0.67,0.59
			c-0.34-0.02-0.6-0.31-0.59-0.65c0.44-10.19-2.33-20.25-6.65-29.38c-4.28-9.19-9.71-17.82-16.42-25.75
			c-1.63-1.93-1.39-4.82,0.54-6.45c1.93-1.63,4.82-1.39,6.45,0.54C440.78,61.55,441.06,62.04,441.24,62.53z"/>
		
			<linearGradient id="SVGID_00000152981001304075936490000010033541757202632336_" gradientUnits="userSpaceOnUse" x1="484.4709" y1="59.2498" x2="462.2693" y2="126.3534">
			<stop  offset="0" style="stop-color:#FCEAE5"/>
			<stop  offset="0.0495" style="stop-color:#FCE9DD"/>
			<stop  offset="0.1252" style="stop-color:#FCE6C8"/>
			<stop  offset="0.2177" style="stop-color:#FBE0A5"/>
			<stop  offset="0.3131" style="stop-color:#FBDA7A"/>
		</linearGradient>
		<path style="fill:url(#SVGID_00000152981001304075936490000010033541757202632336_);" d="M486.24,68.04
			c-6.11,7.79-10.65,16.67-14.48,25.81c-3.88,9.14-6.8,18.71-8.77,28.48c-0.07,0.34-0.4,0.56-0.74,0.49
			c-0.33-0.07-0.55-0.39-0.5-0.72c1.62-9.91,3.91-19.72,6.78-29.41c2.91-9.69,6.64-19.11,10.25-28.8c0.82-2.24,3.3-3.4,5.54-2.58
			c2.24,0.82,3.4,3.3,2.58,5.54C486.75,67.28,486.51,67.7,486.24,68.04z"/>
		
			<linearGradient id="SVGID_00000119118829634315960820000008118389395828737974_" gradientUnits="userSpaceOnUse" x1="523.601" y1="82.6764" x2="467.2859" y2="121.5918">
			<stop  offset="0.0646" style="stop-color:#FCEAE5"/>
			<stop  offset="0.0951" style="stop-color:#FCE9DD"/>
			<stop  offset="0.1418" style="stop-color:#FCE6C8"/>
			<stop  offset="0.1989" style="stop-color:#FBE0A5"/>
			<stop  offset="0.2577" style="stop-color:#FBDA7A"/>
		</linearGradient>
		<path style="fill:url(#SVGID_00000119118829634315960820000008118389395828737974_);" d="M517.86,92.36
			c-10.2,0.79-19.85,5.03-28.47,10.59c-8.7,5.5-16.4,12.73-22.4,21.15c-0.2,0.28-0.59,0.35-0.88,0.15c-0.28-0.2-0.35-0.59-0.15-0.88
			c0,0,0.01-0.01,0.01-0.01c6.28-8.4,13.71-15.89,22.05-22.36c8.43-6.41,17.76-11.39,27.56-16.44l0.06-0.03
			c2.04-1.05,4.54-0.25,5.59,1.79c1.05,2.04,0.25,4.54-1.79,5.59C518.94,92.17,518.39,92.31,517.86,92.36z"/>
		
			<linearGradient id="SVGID_00000155143844440675497890000014800606256651698573_" gradientUnits="userSpaceOnUse" x1="378.8663" y1="121.1362" x2="446.2196" y2="124.5039">
			<stop  offset="0" style="stop-color:#FCEAE5"/>
			<stop  offset="0.0495" style="stop-color:#FCE9DD"/>
			<stop  offset="0.1252" style="stop-color:#FCE6C8"/>
			<stop  offset="0.2177" style="stop-color:#FBE0A5"/>
			<stop  offset="0.3131" style="stop-color:#FBDA7A"/>
		</linearGradient>
		<path style="fill:url(#SVGID_00000155143844440675497890000014800606256651698573_);" d="M384.56,116.96
			c11.11,0.66,21.58,0.43,32.07,1.85c10.44,1.46,20.65,3.89,30.57,7.29c0.33,0.11,0.5,0.47,0.39,0.8c-0.11,0.33-0.47,0.5-0.8,0.39
			c-0.01,0-0.02-0.01-0.02-0.01c-9.68-3.75-20-5.9-30.34-6.32c-10.28-0.46-20.86,0.14-30.26,4.65c-2.27,1.09-4.99,0.13-6.07-2.14
			c-1.09-2.27-0.13-4.99,2.14-6.07c0.72-0.34,1.48-0.48,2.22-0.44L384.56,116.96z"/>
		
			<linearGradient id="SVGID_00000037655626494618871490000001190779522434782630_" gradientUnits="userSpaceOnUse" x1="391.5014" y1="159.7281" x2="443.8874" y2="133.7222">
			<stop  offset="0" style="stop-color:#FCEAE5"/>
			<stop  offset="0.0437" style="stop-color:#FCE9DD"/>
			<stop  offset="0.1104" style="stop-color:#FCE6C8"/>
			<stop  offset="0.192" style="stop-color:#FBE0A5"/>
			<stop  offset="0.276" style="stop-color:#FBDA7A"/>
		</linearGradient>
		<path style="fill:url(#SVGID_00000037655626494618871490000001190779522434782630_);" d="M395.21,152.73
			c8.56-2.97,16.61-6.81,24.96-9.98c8.36-3.13,16.84-5.81,25.44-7.93c0.34-0.08,0.68,0.12,0.76,0.46c0.08,0.33-0.11,0.66-0.44,0.76
			c-8.44,2.46-16.62,5.75-24.3,9.94c-7.71,4.12-15.15,8.77-21.84,14.65c-1.93,1.7-4.87,1.51-6.57-0.42
			c-1.7-1.93-1.51-4.87,0.42-6.57C394.11,153.23,394.66,152.93,395.21,152.73z"/>
		
			<linearGradient id="SVGID_00000065047585495220613800000016369878604254714508_" gradientUnits="userSpaceOnUse" x1="428.4098" y1="199.3023" x2="450.8608" y2="142.9875">
			<stop  offset="0" style="stop-color:#FCEAE5"/>
			<stop  offset="0.0439" style="stop-color:#FCE9DD"/>
			<stop  offset="0.1109" style="stop-color:#FCE6C8"/>
			<stop  offset="0.1929" style="stop-color:#FBE0A5"/>
			<stop  offset="0.2773" style="stop-color:#FBDA7A"/>
		</linearGradient>
		<path style="fill:url(#SVGID_00000065047585495220613800000016369878604254714508_);" d="M425.84,192.53
			c2.07-4.44,3.98-8.81,5.73-13.21c1.89-4.35,3.52-8.76,5.48-13.05c3.93-8.55,7.85-17.08,13.15-24.91c0.19-0.29,0.59-0.36,0.87-0.17
			c0.29,0.2,0.36,0.59,0.17,0.87l-0.01,0.02c-2.58,3.81-4.66,7.98-6.43,12.26c-1.8,4.27-3.37,8.64-4.67,13.09
			c-1.3,4.45-2.64,8.88-3.47,13.44c-0.95,4.52-1.49,9.15-1.49,13.79c0,2.71-2.2,4.91-4.91,4.91c-2.71,0-4.91-2.2-4.91-4.91
			c0-0.73,0.16-1.43,0.45-2.05L425.84,192.53z"/>
		
			<linearGradient id="SVGID_00000062154205897781805470000010641031742835499160_" gradientUnits="userSpaceOnUse" x1="471.5678" y1="194.656" x2="462.3943" y2="142.6103">
			<stop  offset="0" style="stop-color:#FCEAE5"/>
			<stop  offset="0.0443" style="stop-color:#FCE9DD"/>
			<stop  offset="0.1122" style="stop-color:#FCE6C8"/>
			<stop  offset="0.195" style="stop-color:#FBE0A5"/>
			<stop  offset="0.2804" style="stop-color:#FBDA7A"/>
		</linearGradient>
		<path style="fill:url(#SVGID_00000062154205897781805470000010641031742835499160_);" d="M466.32,190.84
			c-0.29-8.03-1.82-15.69-3.29-23.37c-1.41-7.69-3.11-15.3-4.96-22.87c-0.08-0.34,0.12-0.68,0.46-0.76
			c0.33-0.08,0.67,0.13,0.76,0.46c2.12,7.5,4.39,14.95,6.95,22.33c2.51,7.38,4.95,14.79,8.63,21.82l0.06,0.11
			c1.17,2.24,0.31,5-1.93,6.17c-2.24,1.17-5,0.31-6.17-1.93C466.52,192.17,466.35,191.49,466.32,190.84z"/>
		
			<linearGradient id="SVGID_00000077300218161979694610000006758715448349147036_" gradientUnits="userSpaceOnUse" x1="505.8856" y1="180.6476" x2="468.0932" y2="135.3715">
			<stop  offset="0" style="stop-color:#FCEAE5"/>
			<stop  offset="0.0319" style="stop-color:#FCE9DD"/>
			<stop  offset="0.0806" style="stop-color:#FCE6C8"/>
			<stop  offset="0.14" style="stop-color:#FBE0A5"/>
			<stop  offset="0.2014" style="stop-color:#FBDA7A"/>
		</linearGradient>
		<path style="fill:url(#SVGID_00000077300218161979694610000006758715448349147036_);" d="M501.9,182.54
			c-5.25-8.51-10.87-16.25-16.89-23.74c-5.97-7.48-12.53-14.61-20.49-19.91c-0.29-0.19-0.38-0.58-0.19-0.87
			c0.19-0.29,0.57-0.37,0.86-0.19c8.28,5.19,15.34,11.97,22.31,18.72c6.91,6.8,13.41,14.07,21.15,19.81
			c2.07,1.54,2.51,4.46,0.97,6.53s-4.46,2.51-6.53,0.97C502.62,183.49,502.2,183.02,501.9,182.54z"/>
		
			<linearGradient id="SVGID_00000075164839671322536190000008099930872125812097_" gradientUnits="userSpaceOnUse" x1="532.1349" y1="142.9557" x2="471.5171" y2="124.2466">
			<stop  offset="0" style="stop-color:#FCEAE5"/>
			<stop  offset="0.0294" style="stop-color:#FCE9DD"/>
			<stop  offset="0.0743" style="stop-color:#FCE6C8"/>
			<stop  offset="0.1292" style="stop-color:#FBE0A5"/>
			<stop  offset="0.1858" style="stop-color:#FBDA7A"/>
		</linearGradient>
		<path style="fill:url(#SVGID_00000075164839671322536190000008099930872125812097_);" d="M523.32,141.76
			c-7.42-5.81-16.54-8.06-25.54-9.6c-9.05-1.59-18.37-1.8-27.5-0.62c-0.34,0.04-0.66-0.2-0.7-0.54c-0.04-0.34,0.2-0.66,0.54-0.71
			c0.01,0,0.02,0,0.03,0c9.27-0.76,18.56-0.77,27.87-0.08c9.36,0.73,18.34,2.83,28.29,3.39l0.08,0c2.52,0.14,4.45,2.3,4.31,4.82
			c-0.14,2.52-2.3,4.45-4.82,4.31C524.91,142.67,524.03,142.32,523.32,141.76z"/>
		
			<linearGradient id="SVGID_00000145020985653716701400000009900472882776262281_" gradientUnits="userSpaceOnUse" x1="526.9241" y1="110.3927" x2="467.2415" y2="130.2244">
			<stop  offset="0" style="stop-color:#FCEAE5"/>
			<stop  offset="0.0315" style="stop-color:#FCE9DD"/>
			<stop  offset="0.0798" style="stop-color:#FCE6C8"/>
			<stop  offset="0.1386" style="stop-color:#FBE0A5"/>
			<stop  offset="0.1994" style="stop-color:#FBDA7A"/>
		</linearGradient>
		<path style="fill:url(#SVGID_00000145020985653716701400000009900472882776262281_);" d="M524.17,118.09
			c-9.07-2.88-18.99-3-28.53-1.36c-9.58,1.6-18.91,5.21-27.12,10.6c-0.29,0.19-0.68,0.11-0.87-0.18c-0.19-0.28-0.11-0.66,0.16-0.86
			c8.16-5.76,17.38-10.02,27.13-12.71c9.78-2.65,20-3.48,30.48-3.18l0.05,0c2.18,0.06,3.89,1.88,3.83,4.05
			c-0.06,2.18-1.88,3.89-4.05,3.83C524.88,118.26,524.51,118.2,524.17,118.09z"/>
	</g>
	<path class="st0" d="M450.94,131.02c-1.63,0-1.63,2.53,0,2.53C452.57,133.55,452.57,131.02,450.94,131.02z"/>
	<path class="st0" d="M453.86,135.88c-2.6,0-2.6,4.04,0,4.04C456.46,139.92,456.46,135.88,453.86,135.88z"/>
	<path class="st12" d="M454.98,125.29c-2.36,0-2.36,3.66,0,3.66C457.34,128.95,457.34,125.29,454.98,125.29z"/>
	<path class="st0" d="M458.58,132.79c-2.25,0-2.25,3.49,0,3.49C460.82,136.28,460.83,132.79,458.58,132.79z"/>
	<path class="st0" d="M461.94,125.73c-2.09,0-2.09,3.24,0,3.24C464.03,128.97,464.03,125.73,461.94,125.73z"/>
	<path class="st12" d="M464.64,130.97c-2.28,0-2.28,3.54,0,3.54C466.91,134.5,466.92,130.97,464.64,130.97z"/>
	<path class="st0" d="M460.82,138.63c-1.95,0-1.95,3.03,0,3.03C462.77,141.66,462.77,138.63,460.82,138.63z"/>
	<path class="st0" d="M469.58,135.66c-1.73,0-1.74,2.69,0,2.69C471.31,138.35,471.31,135.66,469.58,135.66z"/>
	<path class="st0" d="M465.09,144.59c-1.22,0-1.22,1.89,0,1.89C466.31,146.48,466.31,144.59,465.09,144.59z"/>
	<path class="st12" d="M455.66,145.96c-2.63,0-2.63,4.08,0,4.08C458.28,150.05,458.29,145.96,455.66,145.96z"/>
	<path class="st0" d="M445.55,144.03c-1.35,0-1.36,2.1,0,2.1C446.91,146.14,446.91,144.03,445.55,144.03z"/>
	<path class="st0" d="M441.73,131.11c-1.52,0-1.52,2.36,0,2.36C443.25,133.47,443.25,131.11,441.73,131.11z"/>
	<path class="st12" d="M443.75,120.37c-1.46,0-1.47,2.27,0,2.27C445.22,122.65,445.22,120.37,443.75,120.37z"/>
	<path class="st0" d="M452.74,111.63c-1.73,0-1.74,2.69,0,2.69C454.47,114.32,454.47,111.63,452.74,111.63z"/>
	<path class="st0" d="M461.27,112.08c-1.73,0-1.74,2.69,0,2.69C463,114.77,463.01,112.08,461.27,112.08z"/>
	<path class="st0" d="M467.89,113.7c-2.25,0-2.25,3.49,0,3.49C470.14,117.19,470.15,113.7,467.89,113.7z"/>
	<path class="st12" d="M474.29,124.73c-2.36,0-2.36,3.66,0,3.66C476.65,128.39,476.65,124.73,474.29,124.73z"/>
	<path class="st12" d="M474.94,138.38c0.05,0.06,0.1,0.13,0.15,0.19c0.24,0.3,0.86,0.3,1.1,0c0.05-0.06,0.1-0.13,0.15-0.19
		C477.96,136.33,473.32,136.33,474.94,138.38z"/>
	<path class="st12" d="M471.82,150.93c-1.31-1.31-3.15,1.09-1.53,1.98C471.52,153.6,472.86,151.97,471.82,150.93z"/>
	<path class="st0" d="M440.95,142.14c-2.49,0-2.5,3.87,0,3.87C443.44,146.01,443.44,142.14,440.95,142.14z"/>
	<path class="st12" d="M451.39,150.98c-2.38,0-2.39,3.7,0,3.7C453.77,154.69,453.78,150.98,451.39,150.98z"/>
	<path class="st12" d="M435.42,129.79c-0.32,0.15-0.63,0.3-0.95,0.45c-0.88,0.42-0.23,1.68,0.63,1.5l1.04-0.21
		C437.42,131.25,436.73,129.16,435.42,129.79z"/>
	<path class="st0" d="M436.57,117.95c-1.54,0-1.55,2.4,0,2.4C438.11,120.35,438.12,117.95,436.57,117.95z"/>
	<path class="st12" d="M448.02,105.83c-2.41,0-2.42,3.75,0,3.75C450.43,109.57,450.44,105.83,448.02,105.83z"/>
	<path class="st0" d="M482.59,138.81c-1.76-1.79-4.31,1.48-2.09,2.71C482.19,142.46,483.99,140.24,482.59,138.81z"/>
	<path class="st0" d="M460.83,105.43c-0.06,0.14-0.13,0.28-0.19,0.42c-0.42,0.92,0.43,1.77,1.35,1.35c0.14-0.06,0.28-0.13,0.42-0.19
		C464.2,106.2,461.65,103.63,460.83,105.43z"/>
	<path class="st12" d="M469.91,105.91c-1.87,0-1.87,2.9,0,2.9C471.78,108.81,471.79,105.91,469.91,105.91z"/>
	<path class="st0" d="M481.37,122.83c-2.19,0-2.2,3.41,0,3.41C483.56,126.25,483.56,122.83,481.37,122.83z"/>
	<path class="st0" d="M464.57,153.94c0.19,0.08,0.39,0.17,0.58,0.26c0.46,0.2,1.07,0.07,1.21-0.49c0.04-0.18,0.09-0.36,0.13-0.54
		C467.29,149.77,461.78,152.72,464.57,153.94z"/>
	
		<linearGradient id="SVGID_00000021836660351695975330000008387330737630632607_" gradientUnits="userSpaceOnUse" x1="77.3466" y1="198.4907" x2="156.1745" y2="98.7084">
		<stop  offset="0" style="stop-color:#A5D0C8"/>
		<stop  offset="0.0572" style="stop-color:#ADD2CB"/>
		<stop  offset="0.1448" style="stop-color:#C2D9D2"/>
		<stop  offset="0.2511" style="stop-color:#E5E3DD"/>
		<stop  offset="0.3131" style="stop-color:#FCEAE5"/>
	</linearGradient>
	<path style="fill:url(#SVGID_00000021836660351695975330000008387330737630632607_);" d="M90.93,186.03
		c3.75-8.69,7.57-17.34,11.66-25.86c4.2-8.46,8.57-16.86,13.86-24.71c10.41-15.72,24.4-29.46,41.59-37.48
		c0.25-0.12,0.55-0.01,0.67,0.24c0.12,0.25,0.01,0.55-0.24,0.67c-8.44,3.97-16.24,9.33-22.87,15.89
		c-6.68,6.51-12.4,13.95-17.34,21.85c-9.91,15.81-16.8,33.35-21.68,51.38c-0.43,1.6-2.08,2.55-3.68,2.11
		c-1.6-0.43-2.55-2.08-2.11-3.68C90.82,186.3,90.88,186.15,90.93,186.03z"/>
	
		<linearGradient id="SVGID_00000015355693784878612480000011969472336109590183_" gradientUnits="userSpaceOnUse" x1="124.9807" y1="218.8982" x2="161.4015" y2="107.1411">
		<stop  offset="0" style="stop-color:#A5D0C8"/>
		<stop  offset="0.0572" style="stop-color:#ADD2CB"/>
		<stop  offset="0.1448" style="stop-color:#C2D9D2"/>
		<stop  offset="0.2511" style="stop-color:#E5E3DD"/>
		<stop  offset="0.3131" style="stop-color:#FCEAE5"/>
	</linearGradient>
	<path style="fill:url(#SVGID_00000015355693784878612480000011969472336109590183_);" d="M130.75,200.32
		c0.62-8.65,2.13-16.99,3.89-25.25c1.9-8.22,3.97-16.37,6.63-24.34c2.62-7.98,5.61-15.82,8.96-23.51
		c3.42-7.65,6.92-15.27,11.09-22.55c0.14-0.24,0.44-0.32,0.68-0.19c0.24,0.14,0.32,0.44,0.19,0.68
		c-8.24,14.51-14.16,30.25-18.87,46.2c-4.58,15.91-7.94,32.61-6.58,48.89c0.15,1.65-1.06,3.12-2.71,3.27
		c-1.65,0.15-3.12-1.06-3.27-2.71C130.74,200.66,130.74,200.47,130.75,200.32z"/>
	
		<linearGradient id="SVGID_00000170982483632327784030000008584415199984048286_" gradientUnits="userSpaceOnUse" x1="60.7296" y1="123.7189" x2="149.5362" y2="97.2765">
		<stop  offset="0" style="stop-color:#A5D0C8"/>
		<stop  offset="0.0572" style="stop-color:#ADD2CB"/>
		<stop  offset="0.1448" style="stop-color:#C2D9D2"/>
		<stop  offset="0.2511" style="stop-color:#E5E3DD"/>
		<stop  offset="0.3131" style="stop-color:#FCEAE5"/>
	</linearGradient>
	<path style="fill:url(#SVGID_00000170982483632327784030000008584415199984048286_);" d="M73.98,122.27
		c5.4-5.14,11.34-9.21,17.48-12.83c6.2-3.51,12.6-6.6,19.29-8.92c6.68-2.31,13.54-4.1,20.52-5.09c6.98-0.92,14.11-1.26,21.1,0.02
		c0.27,0.05,0.45,0.31,0.4,0.58c-0.05,0.27-0.32,0.45-0.59,0.4c-13.75-2.31-27.93,0.83-40.72,5.97c-6.41,2.65-12.63,5.8-18.28,9.76
		c-5.67,3.88-10.84,8.57-14.66,14c-0.95,1.36-2.83,1.69-4.19,0.74c-1.36-0.95-1.69-2.83-0.74-4.19
		C73.7,122.57,73.84,122.4,73.98,122.27z"/>
	
		<linearGradient id="SVGID_00000168111922794055502020000012613469851416369316_" gradientUnits="userSpaceOnUse" x1="72.3031" y1="59.1383" x2="152.1291" y2="89.5719">
		<stop  offset="0" style="stop-color:#A5D0C8"/>
		<stop  offset="0.0572" style="stop-color:#ADD2CB"/>
		<stop  offset="0.1448" style="stop-color:#C2D9D2"/>
		<stop  offset="0.2511" style="stop-color:#E5E3DD"/>
		<stop  offset="0.3131" style="stop-color:#FCEAE5"/>
	</linearGradient>
	<path style="fill:url(#SVGID_00000168111922794055502020000012613469851416369316_);" d="M73.77,65.25
		c7.14-2.22,14.35-2.78,21.41-2.64c7.06,0.26,14.03,1.2,20.81,2.88c13.51,3.43,26.52,8.8,38.07,16.58c0.23,0.16,0.29,0.47,0.14,0.7
		c-0.15,0.23-0.47,0.29-0.7,0.14l-0.01-0.01c-11.39-7.7-24.5-12.82-37.93-15.43c-6.72-1.25-13.57-2.03-20.33-1.62
		c-6.73,0.32-13.45,1.83-19.11,4.93c-1.46,0.8-3.29,0.26-4.08-1.19s-0.26-3.29,1.19-4.08C73.39,65.39,73.59,65.31,73.77,65.25z"/>
	
		<linearGradient id="SVGID_00000095302497617414304870000009235298721653024184_" gradientUnits="userSpaceOnUse" x1="119.5673" y1="29.4271" x2="162.4737" y2="72.8324">
		<stop  offset="0" style="stop-color:#A5D0C8"/>
		<stop  offset="0.0572" style="stop-color:#ADD2CB"/>
		<stop  offset="0.1448" style="stop-color:#C2D9D2"/>
		<stop  offset="0.2511" style="stop-color:#E5E3DD"/>
		<stop  offset="0.3131" style="stop-color:#FCEAE5"/>
	</linearGradient>
	<path style="fill:url(#SVGID_00000095302497617414304870000009235298721653024184_);" d="M125.61,30.24
		c6.56,1.62,9.78,6.13,13.39,9.59c3.46,3.78,6.79,7.65,9.58,11.91c5.63,8.46,9.86,17.77,12.42,27.54c0.07,0.27-0.09,0.54-0.36,0.61
		c-0.27,0.07-0.54-0.09-0.61-0.36l0,0c-2.51-9.65-6.97-18.8-13.09-26.62c-3.04-3.91-6.38-7.59-10.17-10.75
		c-3.66-3.14-8.05-6.37-11.75-5.97c-1.68,0.18-3.19-1.03-3.37-2.71c-0.18-1.68,1.03-3.19,2.71-3.37c0.36-0.04,0.72-0.01,1.05,0.07
		L125.61,30.24z"/>
	
		<linearGradient id="SVGID_00000148634338528692304720000001702994250298663846_" gradientUnits="userSpaceOnUse" x1="214.5826" y1="18.5456" x2="164.6914" y2="83.9032">
		<stop  offset="0" style="stop-color:#A5D0C8"/>
		<stop  offset="0.0572" style="stop-color:#ADD2CB"/>
		<stop  offset="0.1448" style="stop-color:#C2D9D2"/>
		<stop  offset="0.2511" style="stop-color:#E5E3DD"/>
		<stop  offset="0.3131" style="stop-color:#FCEAE5"/>
	</linearGradient>
	<path style="fill:url(#SVGID_00000148634338528692304720000001702994250298663846_);" d="M205.03,33.74
		c-4.36,1.57-8.47,4.78-11.9,8.45c-3.54,3.65-6.47,7.89-9.2,12.24c-5.38,8.74-9.52,18.45-11.21,28.61
		c-0.04,0.27-0.29,0.47-0.56,0.43c-0.27-0.04-0.47-0.29-0.43-0.56l0-0.02c1.74-10.35,5.64-20.16,10.45-29.46
		c2.43-4.65,5.31-9.06,8.48-13.34c3.28-4.19,6.81-8.29,11.61-11.68c1.36-0.96,3.25-0.64,4.21,0.73c0.96,1.36,0.64,3.25-0.73,4.21
		C205.54,33.52,205.28,33.65,205.03,33.74z"/>
	
		<linearGradient id="SVGID_00000052789258732603352510000011922826116201647271_" gradientUnits="userSpaceOnUse" x1="254.8152" y1="56.1331" x2="175.4882" y2="81.5776">
		<stop  offset="0" style="stop-color:#A5D0C8"/>
		<stop  offset="0.0572" style="stop-color:#ADD2CB"/>
		<stop  offset="0.1448" style="stop-color:#C2D9D2"/>
		<stop  offset="0.2511" style="stop-color:#E5E3DD"/>
		<stop  offset="0.3131" style="stop-color:#FCEAE5"/>
	</linearGradient>
	<path style="fill:url(#SVGID_00000052789258732603352510000011922826116201647271_);" d="M244.95,64.45
		c-5.46-1.78-11.66-2.04-17.67-1.32c-6.06,0.63-12.03,2.27-17.83,4.28c-11.61,4.08-22.56,10.33-31.9,18.44
		c-0.21,0.18-0.52,0.16-0.71-0.04c-0.18-0.21-0.16-0.52,0.04-0.71l0,0c9.46-8.18,20.28-14.68,31.84-19.57
		c5.79-2.43,11.84-4.25,18.05-5.59c6.24-1.22,12.65-1.97,19.41-1.35c1.66,0.15,2.88,1.62,2.72,3.28c-0.15,1.66-1.62,2.88-3.28,2.72
		C245.41,64.57,245.15,64.51,244.95,64.45z"/>
	
		<linearGradient id="SVGID_00000031192378659204980140000008156306128882135437_" gradientUnits="userSpaceOnUse" x1="249.4252" y1="120.833" x2="175.087" y2="96.3862">
		<stop  offset="0" style="stop-color:#A5D0C8"/>
		<stop  offset="0.0572" style="stop-color:#ADD2CB"/>
		<stop  offset="0.1448" style="stop-color:#C2D9D2"/>
		<stop  offset="0.2511" style="stop-color:#E5E3DD"/>
		<stop  offset="0.3131" style="stop-color:#FCEAE5"/>
	</linearGradient>
	<path style="fill:url(#SVGID_00000031192378659204980140000008156306128882135437_);" d="M232.51,121.05
		c-6.45-7.98-15.54-13.9-25.07-18.17c-9.52-4.21-20.26-6.88-30.63-4.95c-0.27,0.06-0.54-0.11-0.6-0.38s0.11-0.54,0.38-0.6l0.02,0
		c10.69-1.96,21.54,0.48,31.59,4.06c10.08,3.82,19.44,9.13,28.46,15.72c1.35,0.99,1.64,2.88,0.66,4.22
		c-0.99,1.35-2.88,1.64-4.22,0.65c-0.21-0.15-0.4-0.33-0.56-0.53L232.51,121.05z"/>
	
		<linearGradient id="SVGID_00000092450876839744796050000011615181455487803300_" gradientUnits="userSpaceOnUse" x1="228.0886" y1="188.2656" x2="168.7183" y2="98.9606">
		<stop  offset="0" style="stop-color:#A5D0C8"/>
		<stop  offset="0.0572" style="stop-color:#ADD2CB"/>
		<stop  offset="0.1448" style="stop-color:#C2D9D2"/>
		<stop  offset="0.2511" style="stop-color:#E5E3DD"/>
		<stop  offset="0.3131" style="stop-color:#FCEAE5"/>
	</linearGradient>
	<path style="fill:url(#SVGID_00000092450876839744796050000011615181455487803300_);" d="M219.77,186.68
		c-3.93-15.75-10.02-31.08-18.13-45.19c-4.13-7.01-8.51-13.96-13.47-20.43c-4.91-6.51-10.7-12.37-17.24-17.23
		c-0.22-0.16-0.27-0.48-0.11-0.7c0.16-0.22,0.48-0.27,0.7-0.11l0,0c13.29,9.92,23.29,23.42,32.08,37.29
		c8.58,14.14,15.44,29.15,21.86,44.51c0.64,1.53-0.08,3.29-1.61,3.93c-1.53,0.64-3.29-0.08-3.93-1.61
		C219.86,187,219.81,186.82,219.77,186.68z"/>
	
		<linearGradient id="SVGID_00000049210600770492862650000002532968128963410056_" gradientUnits="userSpaceOnUse" x1="174.8042" y1="226.567" x2="163.828" y2="100.8405">
		<stop  offset="0" style="stop-color:#A5D0C8"/>
		<stop  offset="0.0572" style="stop-color:#ADD2CB"/>
		<stop  offset="0.1448" style="stop-color:#C2D9D2"/>
		<stop  offset="0.2511" style="stop-color:#E5E3DD"/>
		<stop  offset="0.3131" style="stop-color:#FCEAE5"/>
	</linearGradient>
	<path style="fill:url(#SVGID_00000049210600770492862650000002532968128963410056_);" d="M169.27,217.21
		c0.4-9.46,0.88-18.85,1.12-28.24c0.37-9.39,0.39-18.76,0.43-28.14c-0.16-18.68-0.2-37.66-5.06-55.76
		c-0.08-0.27,0.07-0.54,0.34-0.62c0.26-0.08,0.54,0.08,0.62,0.35c2.54,9.11,3.63,18.5,4.62,27.84c0.9,9.37,1.34,18.77,1.63,28.16
		c0.55,18.78,0.41,37.61,2.28,56.24c0.17,1.65-1.04,3.12-2.69,3.29c-1.65,0.17-3.12-1.04-3.29-2.69
		C169.26,217.5,169.26,217.34,169.27,217.21z"/>
	
		<linearGradient id="SVGID_00000177486773549443205920000001563343222498519431_" gradientUnits="userSpaceOnUse" x1="159.9953" y1="22.4547" x2="157.5007" y2="77.335">
		<stop  offset="0" style="stop-color:#A5D0C8"/>
		<stop  offset="0.0572" style="stop-color:#ADD2CB"/>
		<stop  offset="0.1448" style="stop-color:#C2D9D2"/>
		<stop  offset="0.2511" style="stop-color:#E5E3DD"/>
		<stop  offset="0.3131" style="stop-color:#FCEAE5"/>
	</linearGradient>
	<path style="fill:url(#SVGID_00000177486773549443205920000001563343222498519431_);" d="M158.36,27.97
		c2.66,8.07,4.99,15.97,6.1,24.12c1.05,8.14,1.11,16.34,0.04,24.42c-0.04,0.27-0.29,0.47-0.56,0.43c-0.27-0.04-0.47-0.29-0.43-0.56
		v0c1.07-7.97,0.73-16.14-1.03-23.94c-1.71-7.79-4.59-15.42-9.42-21.7c-1.02-1.33-0.77-3.24,0.56-4.26
		c1.33-1.02,3.24-0.77,4.26,0.56c0.21,0.28,0.37,0.58,0.47,0.89L158.36,27.97z"/>
	
		<linearGradient id="SVGID_00000167371996185353466010000010060809525121201818_" gradientUnits="userSpaceOnUse" x1="88.1424" y1="75.8893" x2="157.491" y2="95.8458">
		<stop  offset="0" style="stop-color:#A5D0C8"/>
		<stop  offset="0.0572" style="stop-color:#ADD2CB"/>
		<stop  offset="0.1448" style="stop-color:#C2D9D2"/>
		<stop  offset="0.2511" style="stop-color:#E5E3DD"/>
		<stop  offset="0.3131" style="stop-color:#FCEAE5"/>
	</linearGradient>
	<path style="fill:url(#SVGID_00000167371996185353466010000010060809525121201818_);" d="M94.61,79.55
		c10.51-1.36,20.78-1.38,30.87,0.13c10.05,1.6,19.85,4.48,29.01,8.82c0.25,0.12,0.36,0.42,0.24,0.67c-0.12,0.25-0.42,0.36-0.67,0.24
		l0,0c-9.03-4.3-18.88-6.91-28.81-7.72c-9.87-0.84-20.1-0.16-29.08,3.65c-1.54,0.65-3.31-0.06-3.96-1.6
		c-0.65-1.54,0.06-3.31,1.6-3.96C94.05,79.66,94.35,79.59,94.61,79.55z"/>
	
		<linearGradient id="SVGID_00000026842422022674068130000010299172342056847789_" gradientUnits="userSpaceOnUse" x1="236.8749" y1="85.2027" x2="172.515" y2="99.6712">
		<stop  offset="0" style="stop-color:#A5D0C8"/>
		<stop  offset="0.0572" style="stop-color:#ADD2CB"/>
		<stop  offset="0.1448" style="stop-color:#C2D9D2"/>
		<stop  offset="0.2511" style="stop-color:#E5E3DD"/>
		<stop  offset="0.3131" style="stop-color:#FCEAE5"/>
	</linearGradient>
	<path style="fill:url(#SVGID_00000026842422022674068130000010299172342056847789_);" d="M229.73,92.82
		c-7.3-3.66-15.63-4.89-23.87-4.65c-8.28,0.17-16.52,1.93-24.51,4.26c-0.27,0.08-0.54-0.07-0.62-0.34
		c-0.08-0.27,0.07-0.54,0.34-0.62h0c8.05-2.34,16.22-4.37,24.66-5.31c8.46-0.91,17.02-0.29,25.74,0.93l0.05,0.01
		c1.66,0.23,2.82,1.77,2.59,3.43c-0.23,1.66-1.77,2.82-3.43,2.59C230.34,93.07,230.02,92.96,229.73,92.82z"/>
	
		<linearGradient id="SVGID_00000170959906809043113330000000311434430717247417_" gradientUnits="userSpaceOnUse" x1="238.8337" y1="149.1801" x2="172.4781" y2="102.781">
		<stop  offset="0" style="stop-color:#A5D0C8"/>
		<stop  offset="0.0572" style="stop-color:#ADD2CB"/>
		<stop  offset="0.1448" style="stop-color:#C2D9D2"/>
		<stop  offset="0.2511" style="stop-color:#E5E3DD"/>
		<stop  offset="0.3131" style="stop-color:#FCEAE5"/>
	</linearGradient>
	<path style="fill:url(#SVGID_00000170959906809043113330000000311434430717247417_);" d="M226.42,147.17
		c-1.86-5.1-5.17-9.97-8.91-14.31c-3.71-4.42-7.99-8.38-12.43-12.13c-4.45-3.75-9.18-7.17-14.16-10.19
		c-4.96-3.03-10.25-5.61-15.82-7.14c-0.27-0.06-0.44-0.33-0.37-0.6c0.06-0.27,0.35-0.43,0.62-0.37c5.76,1.52,11.05,4.22,16.2,7.05
		c5.12,2.9,10.03,6.18,14.79,9.67c4.77,3.49,9.2,7.4,13.53,11.49c4.24,4.19,8.38,8.53,11.91,13.85c0.92,1.39,0.54,3.26-0.84,4.18
		c-1.39,0.92-3.26,0.54-4.18-0.84C226.62,147.63,226.5,147.39,226.42,147.17z"/>
	
		<linearGradient id="SVGID_00000139995871346753948920000000241513618298558357_" gradientUnits="userSpaceOnUse" x1="133.5674" y1="138.2037" x2="157.0163" y2="102.7807">
		<stop  offset="0" style="stop-color:#FCEAE5"/>
		<stop  offset="0.0495" style="stop-color:#FCE9DD"/>
		<stop  offset="0.1252" style="stop-color:#FCE6C8"/>
		<stop  offset="0.2177" style="stop-color:#FBE0A5"/>
		<stop  offset="0.3131" style="stop-color:#FBDA7A"/>
	</linearGradient>
	<path style="fill:url(#SVGID_00000139995871346753948920000000241513618298558357_);" d="M135,132.06
		c1.13-1.22,2.14-2.48,3.11-3.75l2.43-4.06c1.68-2.66,3.27-5.38,5.1-7.95c3.63-5.1,7.71-10.12,13.21-13.42
		c0.16-0.1,0.37-0.04,0.47,0.12c0.1,0.16,0.04,0.37-0.12,0.47l-0.02,0.01c-5.35,3.16-9.45,8.11-13.09,13.15
		c-1.79,2.57-3.54,5.17-4.99,7.95c-0.73,1.39-1.5,2.75-2.12,4.19c-0.49,1.51-0.88,3.06-1.13,4.66c-0.14,0.9-0.98,1.52-1.88,1.38
		c-0.9-0.14-1.52-0.98-1.38-1.88C134.63,132.59,134.78,132.29,135,132.06z"/>
	
		<linearGradient id="SVGID_00000064335957462573215430000005760661550822800525_" gradientUnits="userSpaceOnUse" x1="229.7168" y1="35.8133" x2="169.0992" y2="87.8247">
		<stop  offset="0" style="stop-color:#A5D0C8"/>
		<stop  offset="0.0572" style="stop-color:#ADD2CB"/>
		<stop  offset="0.1448" style="stop-color:#C2D9D2"/>
		<stop  offset="0.2511" style="stop-color:#E5E3DD"/>
		<stop  offset="0.3131" style="stop-color:#FCEAE5"/>
	</linearGradient>
	<path style="fill:url(#SVGID_00000064335957462573215430000005760661550822800525_);" d="M223.97,46.17
		c-8.96,1.25-17.21,6.19-24.23,12.19c-7.13,6-13.15,13.31-18.5,21c-0.16,0.23-0.47,0.28-0.7,0.13c-0.23-0.16-0.28-0.47-0.13-0.7l0,0
		c5.39-7.73,11.2-15.21,17.96-21.92c6.81-6.67,14.74-12.24,23.85-16.44l0.05-0.02c1.52-0.7,3.32-0.03,4.02,1.49
		c0.7,1.52,0.03,3.32-1.49,4.02C224.55,46.05,224.26,46.13,223.97,46.17z"/>
	
		<linearGradient id="SVGID_00000018200776315980051250000007494866094180353411_" gradientUnits="userSpaceOnUse" x1="189.7593" y1="147.5441" x2="166.8094" y2="101.6444">
		<stop  offset="0" style="stop-color:#FCEAE5"/>
		<stop  offset="0.0495" style="stop-color:#FCE9DD"/>
		<stop  offset="0.1252" style="stop-color:#FCE6C8"/>
		<stop  offset="0.2177" style="stop-color:#FBE0A5"/>
		<stop  offset="0.3131" style="stop-color:#FBDA7A"/>
	</linearGradient>
	<path style="fill:url(#SVGID_00000018200776315980051250000007494866094180353411_);" d="M167.36,103.77
		c4.95,6.17,9.37,12.79,12.88,19.9c1.78,3.54,3.24,7.22,4.74,10.88l2.12,5.55c0.87,1.8,1.78,3.59,2.82,5.35
		c0.45,0.77,0.19,1.77-0.58,2.22c-0.77,0.45-1.77,0.19-2.22-0.58c-0.13-0.23-0.21-0.49-0.22-0.74c-0.11-2.02-0.37-4-0.72-5.95
		c-0.5-1.91-1.16-3.76-1.79-5.63c-1.25-3.74-2.89-7.33-4.64-10.85c-3.52-7.04-7.95-13.6-12.91-19.72c-0.12-0.15-0.1-0.36,0.05-0.48
		C167.02,103.6,167.24,103.62,167.36,103.77L167.36,103.77z"/>
	
		<linearGradient id="SVGID_00000032641255900752044390000001904483371675405459_" gradientUnits="userSpaceOnUse" x1="220.0574" y1="119.8828" x2="172.1619" y2="98.4296">
		<stop  offset="0" style="stop-color:#FCEAE5"/>
		<stop  offset="0.0495" style="stop-color:#FCE9DD"/>
		<stop  offset="0.1252" style="stop-color:#FCE6C8"/>
		<stop  offset="0.2177" style="stop-color:#FBE0A5"/>
		<stop  offset="0.3131" style="stop-color:#FBDA7A"/>
	</linearGradient>
	<path style="fill:url(#SVGID_00000032641255900752044390000001904483371675405459_);" d="M173.37,99.83
		c1.68-1.02,3.66-0.79,5.37-0.48c1.74,0.34,3.45,0.72,5.16,1.16c3.41,0.88,6.78,1.99,9.99,3.46c3.23,1.44,6.24,3.33,9.08,5.44
		c1.42,1.06,2.71,2.28,4.01,3.51c1.4,1.14,2.78,2.34,4.19,3.64l0.03,0.03c0.67,0.62,0.71,1.65,0.09,2.32
		c-0.61,0.67-1.65,0.71-2.32,0.09c-0.22-0.21-0.38-0.47-0.46-0.74c-0.49-1.66-1.28-3.23-2.25-4.68c-1.07-1.36-2.37-2.54-3.69-3.67
		c-2.64-2.28-5.73-4-8.91-5.44c-3.19-1.43-6.53-2.51-9.92-3.37c-1.69-0.43-3.41-0.8-5.13-1.12c-1.68-0.3-3.5-0.46-4.89,0.41
		c-0.16,0.1-0.37,0.06-0.47-0.1C173.16,100.15,173.21,99.94,173.37,99.83C173.37,99.84,173.37,99.83,173.37,99.83z"/>
	
		<linearGradient id="SVGID_00000087393009654836254510000002655870949509904530_" gradientUnits="userSpaceOnUse" x1="218.4295" y1="73.5605" x2="178.5169" y2="90.5233">
		<stop  offset="0" style="stop-color:#FCEAE5"/>
		<stop  offset="0.0495" style="stop-color:#FCE9DD"/>
		<stop  offset="0.1252" style="stop-color:#FCE6C8"/>
		<stop  offset="0.2177" style="stop-color:#FBE0A5"/>
		<stop  offset="0.3131" style="stop-color:#FBDA7A"/>
	</linearGradient>
	<path style="fill:url(#SVGID_00000087393009654836254510000002655870949509904530_);" d="M177.91,90.16
		c2.21-2.25,4.94-3.85,7.69-5.24c2.77-1.38,5.61-2.61,8.51-3.68c2.9-1.09,5.88-1.91,8.84-2.77l4.5-1.16
		c1.47-0.56,2.95-1.12,4.45-1.82c0.83-0.38,1.81-0.03,2.2,0.8c0.39,0.83,0.03,1.81-0.8,2.2c-0.32,0.15-0.66,0.19-0.98,0.13
		c-1.56-0.27-3.12-0.38-4.68-0.35c-1.53,0.16-3.03,0.5-4.53,0.82c-3.01,0.61-5.93,1.62-8.81,2.67c-2.87,1.08-5.69,2.32-8.42,3.71
		c-2.72,1.39-5.38,2.98-7.48,5.16c-0.13,0.14-0.35,0.14-0.48,0.01C177.79,90.51,177.78,90.3,177.91,90.16L177.91,90.16z"/>
	
		<linearGradient id="SVGID_00000055705735110143345290000003193878941180184734_" gradientUnits="userSpaceOnUse" x1="116.6613" y1="85.6252" x2="152.0843" y2="97.1003">
		<stop  offset="0" style="stop-color:#FCEAE5"/>
		<stop  offset="0.0495" style="stop-color:#FCE9DD"/>
		<stop  offset="0.1252" style="stop-color:#FCE6C8"/>
		<stop  offset="0.2177" style="stop-color:#FBE0A5"/>
		<stop  offset="0.3131" style="stop-color:#FBDA7A"/>
	</linearGradient>
	<path style="fill:url(#SVGID_00000055705735110143345290000003193878941180184734_);" d="M154.12,92.76
		c-4.99-1.51-10.18-2.37-15.39-2.57c-2.6-0.08-5.23-0.1-7.82,0.26c-1.29,0.18-2.59,0.32-3.86,0.65c-1.24,0.47-2.45,1.05-3.6,1.79
		c-0.78,0.51-1.82,0.28-2.33-0.5c-0.51-0.78-0.28-1.82,0.5-2.33c0.35-0.23,0.76-0.3,1.14-0.26c1.42,0.18,2.78,0.27,4.13,0.33
		l3.95-0.32c2.63-0.11,5.26-0.28,7.89-0.17c5.26,0.16,10.51,0.99,15.57,2.48c0.18,0.05,0.28,0.24,0.23,0.42
		C154.49,92.72,154.3,92.82,154.12,92.76L154.12,92.76z"/>
	<path class="st0" d="M164.43,106.99c-2.48,6.51-3.64,13.48-4.58,20.39c-0.42,3.47-0.84,6.95-0.94,10.45
		c-0.05,1.75-0.16,3.5-0.09,5.25c0.2,1.75,0.53,3.5,1.01,5.23c0.25,0.87-0.25,1.78-1.12,2.03c-0.87,0.25-1.78-0.25-2.03-1.12
		c-0.08-0.29-0.08-0.6-0.01-0.87c0.47-1.78,0.83-3.54,1.16-5.29l0.43-5.26c0.36-3.49,0.58-7,1.03-10.48
		c0.9-6.95,2.01-13.94,4.5-20.58c0.07-0.18,0.26-0.26,0.44-0.2c0.18,0.07,0.26,0.26,0.2,0.44L164.43,106.99z"/>
	
		<linearGradient id="SVGID_00000169524459921457235730000000366895304098409600_" gradientUnits="userSpaceOnUse" x1="184.838" y1="33.7872" x2="164.3824" y2="77.1929">
		<stop  offset="0" style="stop-color:#FCEAE5"/>
		<stop  offset="0.0495" style="stop-color:#FCE9DD"/>
		<stop  offset="0.1252" style="stop-color:#FCE6C8"/>
		<stop  offset="0.2177" style="stop-color:#FBE0A5"/>
		<stop  offset="0.3131" style="stop-color:#FBDA7A"/>
	</linearGradient>
	<path style="fill:url(#SVGID_00000169524459921457235730000000366895304098409600_);" d="M166.88,77.42
		c0.47-7.24,2.12-14.4,4.83-21.12c1.32-3.38,2.97-6.6,4.52-9.87l2.42-4.86c0.64-1.71,1.23-3.45,1.71-5.26
		c0.23-0.87,1.12-1.4,1.99-1.17c0.87,0.23,1.4,1.12,1.17,1.99c-0.07,0.28-0.22,0.54-0.41,0.73c-1.31,1.33-2.49,2.73-3.6,4.18
		c-0.99,1.52-1.83,3.11-2.71,4.68c-1.77,3.14-3.24,6.44-4.58,9.78c-2.65,6.69-4.24,13.79-4.67,20.96c-0.01,0.19-0.17,0.33-0.36,0.32
		C167.01,77.77,166.86,77.61,166.88,77.42L166.88,77.42z"/>
	
		<linearGradient id="SVGID_00000153698856873252400280000015139251931252578705_" gradientUnits="userSpaceOnUse" x1="122.3336" y1="54.1472" x2="157.7566" y2="83.0842">
		<stop  offset="0" style="stop-color:#FCEAE5"/>
		<stop  offset="0.0495" style="stop-color:#FCE9DD"/>
		<stop  offset="0.1252" style="stop-color:#FCE6C8"/>
		<stop  offset="0.2177" style="stop-color:#FBE0A5"/>
		<stop  offset="0.3131" style="stop-color:#FBDA7A"/>
	</linearGradient>
	<path style="fill:url(#SVGID_00000153698856873252400280000015139251931252578705_);" d="M124.89,56.05c1.45,1.09,2.91,2.05,4.36,3
		c1.5,0.83,3.05,1.56,4.53,2.42c2.96,1.72,5.92,3.42,8.72,5.4c5.6,3.91,10.79,8.48,15.03,13.89c0.12,0.15,0.09,0.36-0.06,0.48
		c-0.15,0.12-0.36,0.09-0.48-0.06l0-0.01c-4.14-5.36-9.27-9.93-14.81-13.85c-2.79-1.93-5.65-3.8-8.7-5.28
		c-1.52-0.75-3.04-1.51-4.63-2.1c-1.65-0.46-3.35-0.78-5.07-0.94c-0.9-0.07-1.58-0.87-1.5-1.77c0.07-0.9,0.87-1.58,1.77-1.5
		C124.35,55.75,124.65,55.88,124.89,56.05z"/>
	<path class="st0" d="M155.29,81.63c-4.91,0-4.91,7.62,0,7.62C160.19,89.25,160.2,81.63,155.29,81.63z"/>
	<path class="st0" d="M156.8,94.36c-4.67,0-4.67,7.25,0,7.25C161.46,101.61,161.47,94.36,156.8,94.36z"/>
	<path class="st0" d="M161.12,100.75c-0.08,0.07-0.15,0.14-0.23,0.21c-0.8,0.74-1.06,2.28-0.41,3.2c0.06,0.08,0.11,0.16,0.17,0.24
		c1.56,2.24,5.15,1.79,5.57-1.12C166.62,100.43,163.16,98.87,161.12,100.75z"/>
	<path class="st0" d="M166.74,74.24c-4.82,0-4.82,7.48,0,7.48C171.55,81.72,171.56,74.24,166.74,74.24z"/>
	<path class="st0" d="M176.22,81.51c-4.45,0-4.46,6.92,0,6.92C180.67,88.43,180.68,81.51,176.22,81.51z"/>
	<path class="st12" d="M161.44,87.41c-0.09,0.21-0.18,0.42-0.28,0.64c-0.72,1.66,0.79,3.5,2.56,2.56l0.6-0.32
		C167.6,88.54,162.79,84.3,161.44,87.41z"/>
	<path class="st12" d="M166.24,92.81c-4.03,0-4.04,6.27,0,6.27C170.27,99.08,170.28,92.81,166.24,92.81z"/>
	<path class="st12" d="M170.23,88.79c-3.43,0-3.44,5.33,0,5.33C173.66,94.12,173.67,88.79,170.23,88.79z"/>
	<path class="st0" d="M174.22,95.97c-4.45,0-4.46,6.92,0,6.92C178.68,102.9,178.68,95.97,174.22,95.97z"/>
	<path class="st12" d="M70.74,99.67c-0.05-0.13-0.1-0.27-0.15-0.4c-0.3-0.81-0.89-1.28-1.76-1.34c-0.11-0.01-0.21-0.01-0.32-0.02
		c-1.05-0.07-1.67,0.94-1.56,1.87C66.17,102.95,71.84,102.61,70.74,99.67z"/>
	<path class="st0" d="M50.33,63.67c-0.17-0.17-0.33-0.33-0.5-0.5c-0.72-0.72-1.96-0.73-2.68,0c-0.17,0.17-0.33,0.33-0.5,0.5
		c-1.58,1.6-0.42,4.43,1.84,4.43C50.75,68.1,51.91,65.27,50.33,63.67z"/>
	<path class="st12" d="M101.53,41.44c-2.4-0.69-3.92,2.78-1.72,4.08C102.57,47.17,104.72,42.35,101.53,41.44z"/>
	<path class="st0" d="M85.42,154.46c-3.67,0-3.68,5.71,0,5.71C89.09,160.16,89.09,154.46,85.42,154.46z"/>
	<path class="st12" d="M149.28,194.2c-3.88,0-3.89,6.03,0,6.03C153.16,200.24,153.16,194.2,149.28,194.2z"/>
	<path class="st12" d="M215.63,205.37c-0.74,0.13-1.1,0.3-1.72,0.72c-3.26,2.23,1.08,6.61,3.33,3.33c0.43-0.62,0.6-0.99,0.72-1.72
		C218.22,206.21,217.12,205.11,215.63,205.37z"/>
	<path class="st12" d="M262.09,155.31c-0.79,0.69-1.12,1.11-1.7,1.97c-0.82,1.22,0.28,2.73,1.6,2.78c1.07,0.04,1.64-0.05,2.7-0.29
		C268.69,158.86,265.62,152.22,262.09,155.31z"/>
	<path class="st0" d="M150.27,169.45c-3.64,0-3.65,5.66,0,5.66C153.92,175.11,153.92,169.45,150.27,169.45z"/>
	<path class="st0" d="M199.73,185.21l-0.91-0.32c-3.9-1.35-3.93,6.05,0,4.69l0.91-0.32C201.72,188.58,201.72,185.91,199.73,185.21z"
		/>
	<path class="st0" d="M239.08,161.74c-3.28,0-3.29,5.1,0,5.1C242.36,166.84,242.37,161.74,239.08,161.74z"/>
	<path class="st0" d="M270.01,102.11c-2.98,0-2.98,4.63,0,4.63C272.99,106.74,273,102.11,270.01,102.11z"/>
	<path class="st12" d="M269.66,51.32c-0.11-0.2-0.22-0.41-0.33-0.61c-2.36-4.37-8.49,1.71-4.09,4.09c0.2,0.11,0.41,0.22,0.61,0.33
		C268.32,56.45,270.99,53.79,269.66,51.32z"/>
	<path class="st0" d="M241.87,31.23c-0.23-0.17-0.46-0.35-0.69-0.53c-1.36-1.03-3.27,0.38-3.27,1.88c0,1.5,1.91,2.91,3.27,1.88
		c0.23-0.17,0.46-0.35,0.69-0.52C242.86,33.18,242.86,31.98,241.87,31.23z"/>
	<path class="st0" d="M409.07,66.53c-2.02,0-2.02,3.13,0,3.13C411.09,69.66,411.09,66.53,409.07,66.53z"/>
	<path class="st0" d="M250.48,88.36c-0.3,0.12-0.6,0.24-0.9,0.36c-1.7,0.68-1.7,2.79,0,3.47c0.3,0.12,0.6,0.24,0.9,0.36
		C253.95,93.95,253.98,86.95,250.48,88.36z"/>
	<path class="st0" d="M365.66,93.14c-3.63,0-3.64,5.65,0,5.65C369.3,98.78,369.3,93.14,365.66,93.14z"/>
	<path class="st0" d="M376.03,184.75l-0.69-0.53c-1.48-1.12-3.55,0.41-3.55,2.04c0,1.63,2.08,3.16,3.55,2.04l0.69-0.53
		C377.14,186.93,377.14,185.6,376.03,184.75z"/>
	<path class="st0" d="M454.42,209.57c-0.21-0.35-0.45-0.6-0.81-0.81c-0.67-0.4-1.6-0.42-2.27,0c-0.19,0.12-0.39,0.24-0.58,0.36
		c-3.34,2.09,1.19,6.66,3.3,3.3c0.12-0.19,0.24-0.39,0.36-0.58C454.84,211.17,454.82,210.25,454.42,209.57z"/>
	<path class="st0" d="M524.82,157.68c-3.4,0-3.41,5.29,0,5.29C528.22,162.96,528.22,157.68,524.82,157.68z"/>
	<path class="st0" d="M507.85,199.33c-3.73,0-3.74,5.8,0,5.8C511.59,205.13,511.59,199.33,507.85,199.33z"/>
	<path class="st0" d="M455.97,47.57c-3.64,0-3.65,5.66,0,5.66C459.61,53.23,459.62,47.57,455.97,47.57z"/>
	<path class="st0" d="M537.56,91.67c-0.2-0.04-0.4-0.08-0.6-0.12c-1.95-0.37-3.45,1.13-3.08,3.08c0.04,0.2,0.08,0.4,0.12,0.6
		c0.42,2.19,3.4,2.73,4.85,1.28C540.29,95.07,539.76,92.09,537.56,91.67z"/>
	<path class="st0" d="M509.34,65.76c-4.25-1.57-6.5,4.66-2.31,5.76C510.47,72.42,512.67,66.99,509.34,65.76z"/>
	<path class="st0" d="M404.55,190.1c-0.21-0.09-0.42-0.19-0.63-0.28c-1.56-0.7-2.97,0.71-2.27,2.27c0.09,0.21,0.19,0.42,0.28,0.63
		c0.44,0.98,1.78,1.12,2.62,0.69c0.32-0.16,0.52-0.37,0.69-0.69C405.67,191.88,405.53,190.54,404.55,190.1z"/>
	<path class="st0" d="M542.78,125.93c-3.16,0-3.17,4.91,0,4.91C545.94,130.85,545.94,125.93,542.78,125.93z"/>
	<path class="st0" d="M370.54,144.14c-2.58,0.9-3.77,3.91-1.15,5.61c0.78,0.5,1.8,0.13,2.27-0.6c0.11-0.17,0.5-0.72,0.64-0.82
		C374.21,146.91,373.21,143.2,370.54,144.14z"/>
	<path class="st0" d="M606.51,55.85c0.09,0.2,0.18,0.39,0.27,0.59c0.68,1.51,3.3,1.51,3.99,0c0.09-0.2,0.18-0.39,0.27-0.59
		C613.28,50.92,604.27,50.92,606.51,55.85z"/>
	<path class="st0" d="M1.1,75.13c-3.58,0-3.59,5.56,0,5.56C4.68,80.69,4.68,75.13,1.1,75.13z"/>
	<path class="st0" d="M336.37,42.44c-4,0-4.01,6.22,0,6.22C340.37,48.66,340.38,42.44,336.37,42.44z"/>
	<path class="st0" d="M310.24,159.99c-0.25-0.25-0.5-0.5-0.75-0.74c-1.36-1.34-3.75-0.36-3.75,1.55c0,1.91,2.4,2.89,3.75,1.55
		c0.25-0.25,0.5-0.5,0.75-0.74C310.68,161.18,310.68,160.42,310.24,159.99z"/>
	<path class="st0" d="M665.15,86.82l-0.55-0.34c-4.65-2.91-4.65,7.22,0,4.32c0.18-0.11,0.37-0.23,0.55-0.34
		C666.51,89.61,666.51,87.67,665.15,86.82z"/>
	<path class="st0" d="M587.36,141.88c-0.02,1.1,0.11,1.74,0.96,2.46c0.6,0.5,1.31,0.51,1.92,0c0.87-0.73,0.98-1.35,0.96-2.46
		C591.15,139.41,587.41,139.41,587.36,141.88z"/>
	<path class="st0" d="M9.73,176.59c-0.42-0.87-1.88-0.87-2.3,0c-0.68,1.39-1.13,2.11-1.02,3.67c0.18,2.8,4.17,2.8,4.35,0
		C10.86,178.73,10.39,177.94,9.73,176.59z"/>
	<path class="st12" d="M398.23,136.87c-3.19,0-3.2,4.96,0,4.96C401.42,141.83,401.43,136.87,398.23,136.87z"/>
	<path class="st12" d="M427.17,69.61c-3.07,0-3.07,4.77,0,4.77C430.24,74.38,430.24,69.61,427.17,69.61z"/>
	<path class="st12" d="M527.95,69.47c-3.25,0-3.26,5.05,0,5.05C531.2,74.52,531.21,69.47,527.95,69.47z"/>
	<path class="st12" d="M452.62,186.92c-2.98,0-2.98,4.63,0,4.63C455.59,191.55,455.6,186.92,452.62,186.92z"/>
	<path class="st12" d="M507,151.28c-2.62,0-2.62,4.07,0,4.07C509.61,155.35,509.62,151.28,507,151.28z"/>
</g>
</svg>
